<?xml version="1.0" standalone="no"?>
<!DOCTYPE svg PUBLIC "-//W3C//DTD SVG 1.1//EN" "http://www.w3.org/Graphics/SVG/1.1/DTD/svg11.dtd" >
<svg xmlns="http://www.w3.org/2000/svg" xmlns:xlink="http://www.w3.org/1999/xlink" version="1.1">
<metadata></metadata>
<defs>
<font id="aktiv_grotesk_geberititalic" horiz-adv-x="1212" >
<font-face units-per-em="2048" ascent="1638" descent="-410" />
<missing-glyph horiz-adv-x="456" />
<glyph unicode="&#xfb00;" horiz-adv-x="1368" d="M125 0l194 918h-163l28 141h166l23 106q39 170 125 242t227 72q61 0 109.5 -12.5t76.5 -24.5l-51 -133q-25 10 -53.5 17t-73.5 7q-78 0 -121 -43t-61 -131l-23 -100h269l-29 -141h-270l-193 -918h-180zM809 0l194 918h-163l28 141h166l23 106q39 170 125 242t227 72 q61 0 109.5 -12.5t76.5 -24.5l-51 -133q-25 10 -53.5 17t-73.5 7q-78 0 -121 -43t-61 -131l-23 -100h269l-29 -141h-270l-193 -918h-180z" />
<glyph unicode="&#xfb01;" horiz-adv-x="1146" d="M125 0l194 918h-163l28 141h166l23 106q39 170 125 242t227 72q61 0 109.5 -12.5t76.5 -24.5l-51 -133q-25 10 -53.5 17t-73.5 7q-78 0 -121 -43t-61 -131l-23 -100h269l-29 -141h-270l-193 -918h-180zM752 0l225 1059h178l-225 -1059h-178zM1003 1255l43 207h193 l-43 -207h-193z" />
<glyph unicode="&#xfb02;" horiz-adv-x="1146" d="M125 0l194 918h-163l28 141h166l23 106q39 170 125 242t227 72q61 0 109.5 -12.5t76.5 -24.5l-51 -133q-25 10 -53.5 17t-73.5 7q-78 0 -121 -43t-61 -131l-23 -100h269l-29 -141h-270l-193 -918h-180zM752 0l309 1462h178l-309 -1462h-178z" />
<glyph unicode="&#xfb03;" horiz-adv-x="1830" d="M125 0l194 918h-163l28 141h166l23 106q39 170 125 242t227 72q61 0 109.5 -12.5t76.5 -24.5l-51 -133q-25 10 -53.5 17t-73.5 7q-78 0 -121 -43t-61 -131l-23 -100h269l-29 -141h-270l-193 -918h-180zM809 0l194 918h-163l28 141h166l23 106q39 170 125 242t227 72 q61 0 109.5 -12.5t76.5 -24.5l-51 -133q-25 10 -53.5 17t-73.5 7q-78 0 -121 -43t-61 -131l-23 -100h269l-29 -141h-270l-193 -918h-180zM1436 0l225 1059h178l-225 -1059h-178zM1687 1255l43 207h193l-43 -207h-193z" />
<glyph unicode="&#xfb04;" horiz-adv-x="1828" d="M125 0l194 918h-163l28 141h166l23 106q39 170 125 242t227 72q61 0 109.5 -12.5t76.5 -24.5l-51 -133q-25 10 -53.5 17t-73.5 7q-78 0 -121 -43t-61 -131l-23 -100h269l-29 -141h-270l-193 -918h-180zM809 0l194 918h-163l28 141h166l23 106q39 170 125 242t227 72 q61 0 109.5 -12.5t76.5 -24.5l-51 -133q-25 10 -53.5 17t-73.5 7q-78 0 -121 -43t-61 -131l-23 -100h269l-29 -141h-270l-193 -918h-180zM1434 0l309 1462h178l-309 -1462h-178z" />
<glyph unicode="&#xd;" horiz-adv-x="456" />
<glyph horiz-adv-x="0" />
<glyph unicode=" "  horiz-adv-x="456" />
<glyph unicode="&#x09;" horiz-adv-x="456" />
<glyph unicode="&#xa0;" horiz-adv-x="456" />
<glyph unicode="!" horiz-adv-x="471" d="M68 0l49 238h198l-49 -238h-198zM168 420l209 1042h188l-231 -1042h-166z" />
<glyph unicode="&#x22;" horiz-adv-x="684" d="M186 938l97 516h180l-123 -516h-154zM528 938l97 516h180l-123 -516h-154z" />
<glyph unicode="#" d="M47 360l25 134h215l149 405h-213l27 133h235l127 357h160l-131 -357h320l129 357h159l-127 -357h183l-25 -133h-207l-149 -405h202l-26 -134h-223l-127 -360h-162l131 360h-320l-129 -360h-159l129 360h-193zM446 494h320l145 405h-317z" />
<glyph unicode="$" d="M76 389h174q4 -117 60.5 -179.5t160.5 -84.5l113 532q-174 41 -254 128t-80 229q0 100 38 180t104.5 136t158.5 87t201 35l36 170h134l-39 -178q172 -27 256 -129.5t102 -239.5l-168 -24q-10 51 -25.5 93t-41 73.5t-62.5 53t-92 32.5l-109 -515l29 -6q180 -41 261 -134 t81 -230q0 -219 -137 -336t-387 -117h-23l-41 -196h-131l43 208q-74 12 -139.5 42t-114.5 79t-77.5 121t-30.5 170zM424 1028q0 -86 49 -135t145 -74l103 488q-80 -6 -137.5 -31t-92 -63.5t-51 -86t-16.5 -98.5zM600 113h4q166 0 246 78.5t80 207.5q0 31 -6 65t-26.5 64.5 t-56.5 55t-98 37.5l-34 8z" />
<glyph unicode="%" horiz-adv-x="1880" d="M176 887q0 98 28.5 197.5t85 180.5t140 132t196.5 51q66 0 120.5 -22.5t94 -64.5t62 -100.5t22.5 -132.5q0 -98 -27.5 -197.5t-82.5 -180t-140 -132t-200 -51.5q-66 0 -120 22.5t-94 64.5t-62.5 100.5t-22.5 132.5zM342 893q0 -78 35.5 -129t113.5 -51q72 0 123 39t83 98 t47.5 130t15.5 136q0 84 -35 135.5t-113 51.5q-72 0 -123 -39t-84 -99.5t-48 -133.5t-15 -138zM413 0l1016 1415h184l-1015 -1415h-185zM1100 281q0 98 28.5 197.5t85 180.5t140 132t196.5 51q66 0 120.5 -22.5t94 -64.5t62 -100.5t22.5 -132.5q0 -98 -27.5 -197.5 t-82.5 -180t-140 -132t-200 -51.5q-66 0 -120 22.5t-94 64.5t-62.5 100.5t-22.5 132.5zM1266 287q0 -78 35.5 -129t113.5 -51q72 0 123 39t83 98t47.5 130t15.5 136q0 84 -35 135.5t-113 51.5q-72 0 -123 -39t-84 -99.5t-48 -133.5t-15 -138z" />
<glyph unicode="&#x26;" horiz-adv-x="1304" d="M82 332q0 90 27.5 158.5t81 125t131 105.5t180.5 98q-10 16 -18.5 31.5t-16.5 34.5q-29 51 -48.5 111.5t-19.5 125.5q0 74 26 138.5t73 110.5t116.5 72.5t157.5 26.5q76 0 132.5 -22.5t94 -59t56 -85t18.5 -99.5q0 -88 -27.5 -152.5t-75.5 -113.5t-111.5 -88t-135.5 -74 l274 -426q49 78 75 165t32 173h166q-10 -127 -55.5 -249t-129.5 -222l142 -217h-193l-69 104q-80 -66 -181.5 -101.5t-224.5 -35.5q-119 0 -208 28t-149.5 77t-90 115.5t-29.5 144.5zM266 350q0 -43 14.5 -85t49.5 -75.5t93 -55t148 -21.5q104 0 181 30.5t137 79.5l-314 484 q-70 -35 -127 -69t-97 -76t-62.5 -93t-22.5 -119zM565 1130q0 -55 20.5 -107t41.5 -93q4 -10 10 -21.5t12 -21.5q59 29 108.5 57.5t84.5 62t54 77.5t19 104q0 66 -42 107.5t-111 41.5q-92 0 -144.5 -54.5t-52.5 -152.5z" />
<glyph unicode="'" horiz-adv-x="342" d="M186 938l97 516h180l-123 -516h-154z" />
<glyph unicode="(" horiz-adv-x="538" d="M123 264q0 166 31.5 333t91 326.5t146.5 306t196 273.5h172q-209 -272 -330 -591.5t-121 -673.5q0 -135 16.5 -250t59.5 -242h-166q-23 47 -40 109.5t-29.5 132t-19.5 140.5t-7 136z" />
<glyph unicode=")" horiz-adv-x="538" d="M-104 -254q209 272 329.5 591.5t120.5 674.5q0 135 -16.5 249.5t-59.5 241.5h166q20 -47 39 -110.5t31 -132t19 -140t7 -135.5q0 -166 -31.5 -333t-92 -326.5t-146.5 -307t-194 -272.5h-172z" />
<glyph unicode="*" horiz-adv-x="798" d="M240 889l233 203l-231 79l69 144l211 -117l25 264h170l-82 -264l227 109l49 -148l-264 -72l150 -219l-138 -80l-112 226l-191 -223z" />
<glyph unicode="+" d="M188 618l33 158h393l88 422h164l-88 -422h393l-34 -158h-394l-88 -421h-163l88 421h-392z" />
<glyph unicode="," horiz-adv-x="456" d="M-23 -199l156 443h191l-201 -443h-146z" />
<glyph unicode="-" horiz-adv-x="798" d="M131 510l39 178h602l-39 -178h-602z" />
<glyph unicode="." horiz-adv-x="458" d="M53 0l49 240h205l-51 -240h-203z" />
<glyph unicode="/" horiz-adv-x="677" d="M-63 0l784 1503h188l-784 -1503h-188z" />
<glyph unicode="0" d="M127 455q0 98 15.5 211.5t50 224t88 213t129 180.5t174 124t223.5 46q94 0 172 -34t134 -96t87 -153.5t31 -207.5q0 -100 -14.5 -213t-48 -223.5t-86 -213t-127 -180.5t-175 -124t-227.5 -46q-96 0 -174 34t-134.5 96.5t-87 153.5t-30.5 208zM317 457q0 -150 60.5 -242 t187.5 -92q121 0 211 79t148.5 200.5t87 269t28.5 286.5q0 150 -59 242t-186 92q-82 0 -148.5 -35.5t-120 -98t-92.5 -145.5t-64.5 -176.5t-39 -190.5t-13.5 -189z" />
<glyph unicode="1" d="M360 1165l471 250h183l-299 -1415h-183l256 1212l-354 -186z" />
<glyph unicode="2" d="M57 0l31 150q92 70 210 156.5t226 168.5q98 74 187.5 140.5t158 137t109.5 147.5t41 169q0 109 -63.5 166t-174.5 57q-143 0 -224 -59t-130 -195l-168 27q25 80 65 150.5t103.5 124t153.5 84t213 30.5q102 0 180 -29.5t130 -80t77.5 -119t25.5 -148.5q0 -109 -42 -197.5 t-111.5 -167.5t-160.5 -152t-189 -144q-88 -63 -178.5 -127t-168.5 -125h686l-59 -164h-928z" />
<glyph unicode="3" d="M117 391h178q8 -141 92 -205.5t219 -64.5q141 0 228.5 74.5t87.5 230.5q0 111 -59.5 170t-170.5 59h-180l35 162h164q68 0 125 15.5t100 48t66.5 84t23.5 125.5q0 90 -63.5 147t-184.5 57q-147 0 -226 -53t-124 -184l-164 26q20 80 59 147.5t100.5 117t151 78t209.5 28.5 q100 0 179 -26.5t132.5 -72.5t81 -109.5t27.5 -137.5q0 -150 -74.5 -241t-203.5 -134q51 -25 86 -59.5t56.5 -74.5t30.5 -83t9 -82q0 -215 -132 -343t-378 -128q-104 0 -191.5 28.5t-152 83t-101 134.5t-36.5 182z" />
<glyph unicode="4" d="M82 352l31 140l860 923h182l-194 -917h198l-53 -146h-176l-74 -352h-174l74 352h-674zM307 498h479l144 673z" />
<glyph unicode="5" d="M135 362h176q8 -127 73 -184t210 -57q156 0 248 103.5t92 283.5q0 53 -14.5 100t-44 81t-74.5 53.5t-107 19.5q-98 0 -170.5 -30t-144.5 -91h-156l215 774h774l-32 -162h-623l-121 -438q72 49 142.5 71.5t166.5 22.5q88 0 158 -30.5t117 -83t71.5 -122t24.5 -147.5 q0 -117 -34.5 -219t-101.5 -179t-166 -121t-228 -44q-96 0 -177 22.5t-141.5 70.5t-95.5 124t-37 182z" />
<glyph unicode="6" d="M162 451q0 90 15.5 198.5t50 220t88 217t130 187.5t176 131t224.5 49q352 0 393 -321l-164 -31q-23 115 -81 155.5t-163 40.5q-76 0 -144.5 -31.5t-126.5 -100t-105 -176t-80 -257.5q76 98 167 140t203 42q94 0 167 -31.5t122 -86t75 -127t26 -152.5q0 -129 -37 -231.5 t-105.5 -174t-166 -110.5t-220.5 -39q-111 0 -194.5 36t-139 100.5t-83 154.5t-27.5 197zM340 391q0 -55 16.5 -105t50 -89t85 -61.5t118.5 -22.5q164 0 254 97t90 298q0 55 -15 102t-47 82t-79 55.5t-108 20.5q-70 0 -135.5 -25.5t-117 -75t-82 -119t-30.5 -157.5z" />
<glyph unicode="7" d="M270 0q90 178 177.5 336t179.5 308.5t192.5 300t220.5 308.5h-757l32 162h963l-31 -151q-223 -299 -418.5 -615.5t-355.5 -648.5h-203z" />
<glyph unicode="8" d="M90 319q0 100 34 171t84 119t110.5 77t113.5 45q-68 37 -118 106.5t-50 168.5q0 94 35 177t102.5 142t169 94t234.5 35q106 0 187 -27.5t135.5 -75.5t82 -111.5t27.5 -133.5q0 -84 -25.5 -147.5t-68.5 -109.5t-98.5 -78t-112.5 -50q39 -14 77 -40t67.5 -62.5t48 -84 t18.5 -104.5q0 -119 -43 -206t-120 -145.5t-183.5 -87t-231.5 -28.5q-119 0 -208 28.5t-148 78t-89 114t-30 135.5zM270 344q0 -49 17.5 -91t54.5 -74t95 -50t138 -18t151 16t123 53t83 96.5t31 145.5q0 45 -17.5 85t-53.5 70.5t-93.5 48t-136.5 17.5q-207 0 -299.5 -81 t-92.5 -218zM436 1012q0 -43 16.5 -82t48 -69t80.5 -47t117 -17q72 0 138.5 15t117 50t80 91.5t29.5 138.5q0 41 -15.5 79.5t-47 69.5t-83 49.5t-122.5 18.5q-96 0 -165 -23.5t-112 -64.5t-62.5 -94.5t-19.5 -114.5z" />
<glyph unicode="9" d="M117 311h172q16 -115 84.5 -153.5t177.5 -38.5q164 0 273.5 137t152.5 422q-78 -92 -168 -132t-203 -40q-94 0 -167.5 32.5t-124 88t-76 127t-25.5 147.5q0 125 36 227.5t104.5 175t165.5 111.5t220 39q213 0 328 -134t115 -370q0 -98 -13.5 -208.5t-42 -220t-77 -211 t-119 -178.5t-167.5 -123t-224 -46q-209 0 -308.5 91t-113.5 257zM393 918q0 -51 14.5 -99.5t45 -85.5t77.5 -58.5t113 -21.5q68 0 132.5 22.5t115.5 67.5t83 113t32 156q0 57 -16.5 110.5t-50.5 94t-84 64.5t-118 24q-160 0 -252 -95.5t-92 -291.5z" />
<glyph unicode=":" horiz-adv-x="458" d="M53 0l49 240h205l-51 -240h-203zM227 819l49 240h205l-51 -240h-203z" />
<glyph unicode=";" horiz-adv-x="456" d="M-23 -199l156 443h191l-201 -443h-146zM227 819l49 240h205l-51 -240h-203z" />
<glyph unicode="&#x3c;" d="M215 625l29 139l1011 426l-38 -180l-783 -320l647 -328l-37 -163z" />
<glyph unicode="=" d="M172 389l33 160h887l-33 -160h-887zM266 846l35 160h885l-33 -160h-887z" />
<glyph unicode="&#x3e;" d="M100 199l39 184l783 315l-648 330l37 162l830 -426l-29 -139z" />
<glyph unicode="?" horiz-adv-x="1026" d="M207 1110q25 86 64.5 155.5t100 119t143.5 76t196 26.5q94 0 166.5 -24.5t123 -68.5t77 -103.5t26.5 -129.5q0 -72 -18.5 -129t-50 -105t-74.5 -91t-95 -84q-45 -37 -88 -69t-77.5 -66.5t-60.5 -75.5t-38 -95l-4 -26h-178l6 31q14 68 42 117.5t64.5 90.5t83 78t97.5 80 q43 35 80.5 69t65.5 71.5t44.5 82.5t16.5 103q0 88 -58.5 139t-167.5 51q-61 0 -110 -11t-89 -40t-72 -77t-56 -122zM330 0l49 238h199l-50 -238h-198z" />
<glyph unicode="@" horiz-adv-x="1953" d="M106 348q0 215 72 402.5t205 327t324.5 220t431.5 80.5q170 0 314 -49t249.5 -138t165 -216t59.5 -281q0 -143 -31.5 -270t-97 -223.5t-165 -152.5t-232.5 -56q-188 0 -215 153q-133 -166 -320 -165q-88 0 -149.5 32.5t-100 86t-56 123t-17.5 140.5q0 123 37.5 228.5 t104.5 182.5t157 121t192 44q86 0 153.5 -37t108.5 -117l29 131h162l-148 -688q-2 -10 -3 -17t-1 -15q0 -35 22.5 -56.5t69.5 -21.5q88 0 153 46t108 124t63.5 181t20.5 218q0 131 -46.5 234.5t-130.5 174t-202.5 107.5t-262.5 37q-197 0 -356.5 -65.5t-271 -182.5 t-173 -278.5t-61.5 -356.5q0 -139 43 -259t127 -209t208 -139t286 -50q182 0 309 43t217 145h176q-106 -172 -281 -248.5t-429 -76.5q-176 0 -327 53t-259.5 154.5t-170 248t-61.5 330.5zM721 373q0 -127 46 -189.5t132 -62.5q82 0 137.5 34.5t96.5 90.5q33 43 53 100 t31 111l12 69q8 41 8 82q0 88 -51 140q-29 29 -64 42t-84 13q-66 0 -123 -33t-100 -90t-68.5 -136t-25.5 -171z" />
<glyph unicode="A" horiz-adv-x="1380" d="M-51 0l878 1462h197l258 -1462h-195l-69 408h-625l-239 -408h-205zM483 571h512l-114 678z" />
<glyph unicode="B" horiz-adv-x="1294" d="M86 0l309 1462h482q131 0 218 -29.5t138 -75.5t71.5 -104.5t20.5 -115.5q0 -147 -75.5 -237.5t-223.5 -137.5q102 -45 154.5 -124t52.5 -177q0 -104 -36 -190.5t-110.5 -145.5t-192.5 -92t-280 -33h-528zM303 156h330q223 0 315 75.5t92 229.5q0 96 -69.5 159.5 t-220.5 63.5h-334zM449 844h323q70 0 135.5 12t115.5 43t81 84t31 133q0 43 -14.5 78t-47.5 59.5t-87 39t-134 14.5h-305z" />
<glyph unicode="C" horiz-adv-x="1454" d="M170 584q0 182 52 348t151.5 292t243 200.5t323.5 74.5q250 0 381 -130t152 -355l-189 -31q-23 176 -102.5 264t-251.5 88q-129 0 -232.5 -58t-177.5 -158.5t-112.5 -234.5t-38.5 -284q0 -98 23.5 -184t72.5 -150.5t123 -101.5t174 -37q190 0 293.5 94t138.5 248h205 q-25 -111 -75 -204t-129 -159.5t-189.5 -104.5t-255.5 -38q-135 0 -243 45t-182.5 126t-114.5 195.5t-40 254.5z" />
<glyph unicode="D" horiz-adv-x="1462" d="M86 0l309 1462h475q133 0 241 -44t182.5 -122.5t115.5 -187.5t41 -236q0 -190 -54.5 -350t-165 -275.5t-277.5 -181t-392 -65.5h-475zM309 164h279q166 0 291 50t207.5 143.5t124.5 224.5t42 290q0 88 -24.5 166t-74.5 136.5t-126 92t-176 33.5h-301z" />
<glyph unicode="E" horiz-adv-x="1216" d="M88 0l309 1462h946l-34 -166h-758l-98 -458h716l-34 -168h-717l-107 -504h799l-61 -166h-961z" />
<glyph unicode="F" horiz-adv-x="1155" d="M88 0l309 1462h908l-35 -166h-719l-102 -479h673l-35 -170h-673l-138 -647h-188z" />
<glyph unicode="G" horiz-adv-x="1466" d="M168 584q0 176 51 341t150.5 293t246 204.5t336.5 76.5q217 0 351.5 -107.5t164.5 -310.5l-184 -32q-27 147 -115 217.5t-233 70.5q-139 0 -244.5 -61.5t-178.5 -164.5t-109.5 -236.5t-36.5 -276.5q0 -96 24.5 -181t73.5 -149.5t123 -102.5t172 -38q147 0 237 34t150 75 l76 352h-371l37 164h547l-129 -602q-39 -35 -94.5 -69t-126 -59.5t-154.5 -42t-182 -16.5q-137 0 -245 46t-182.5 129t-114.5 197t-40 249z" />
<glyph unicode="H" horiz-adv-x="1439" d="M88 0l309 1462h189l-131 -618h737l131 618h188l-309 -1462h-188l141 668h-737l-142 -668h-188z" />
<glyph unicode="I" horiz-adv-x="512" d="M88 0l309 1462h189l-310 -1462h-188z" />
<glyph unicode="J" horiz-adv-x="1222" d="M74 369q0 16 1 33.5t3 35.5h184v-39q0 -57 12.5 -107t44 -87t86 -57.5t136.5 -20.5q86 0 148.5 25.5t106.5 73.5t72.5 118t46.5 158l205 960h189l-211 -997q-53 -262 -191.5 -382t-378.5 -120q-100 0 -183 25.5t-143.5 76t-94 126t-33.5 178.5z" />
<glyph unicode="K" horiz-adv-x="1331" d="M88 0l309 1462h189l-146 -690l826 690h221l-639 -557l383 -905h-209l-326 793l-305 -248l-115 -545h-188z" />
<glyph unicode="L" horiz-adv-x="1150" d="M88 0l309 1462h189l-275 -1294h758l-63 -168h-918z" />
<glyph unicode="M" horiz-adv-x="1732" d="M88 0l309 1462h228l211 -1237l737 1237h233l-309 -1462h-174l244 1153l-703 -1153h-153l-207 1149l-244 -1149h-172z" />
<glyph unicode="N" horiz-adv-x="1433" d="M88 0l309 1462h170l510 -1161l246 1161h182l-309 -1462h-166l-514 1161l-246 -1161h-182z" />
<glyph unicode="O" horiz-adv-x="1566" d="M174 569q0 172 53.5 339t155.5 298t251 212t339 81q129 0 234.5 -43t182 -122t118.5 -190.5t42 -250.5q0 -172 -52 -339t-152.5 -298t-250 -212t-341.5 -81q-129 0 -235.5 42t-183.5 121t-119 191.5t-42 251.5zM371 580q0 -100 25.5 -183.5t74.5 -143.5t123 -93t170 -33 q143 0 252.5 66.5t184.5 174t114 242.5t39 275q0 100 -25.5 183t-75 142.5t-123 92t-169.5 32.5q-143 0 -253 -66.5t-184.5 -174t-113.5 -242.5t-39 -272z" />
<glyph unicode="P" horiz-adv-x="1282" d="M86 0l309 1462h479q131 0 221.5 -34.5t144.5 -88t77.5 -120t23.5 -129.5q0 -137 -45 -236.5t-128 -163t-201.5 -93.5t-264.5 -30h-309l-121 -567h-186zM426 727h297q96 0 175 16.5t136.5 57.5t88 109.5t30.5 172.5q0 94 -69.5 157t-239.5 63h-295z" />
<glyph unicode="Q" horiz-adv-x="1566" d="M174 569q0 172 53.5 339t155.5 298t250.5 212t339.5 81q129 0 234.5 -43t182 -122t118.5 -190.5t42 -250.5q0 -111 -20.5 -218.5t-62.5 -207.5t-103 -186t-141 -154l127 -205l-133 -86l-127 205q-74 -37 -158 -57.5t-178 -20.5q-129 0 -235.5 42t-183.5 121t-119 191.5 t-42 251.5zM371 580q0 -100 25.5 -183.5t74.5 -143.5t123 -93t170 -33q127 0 235 57l-145 238l133 84l141 -227q55 55 97.5 124.5t71 148.5t43 163t14.5 170q0 100 -25.5 183t-75 142.5t-123 92t-169.5 32.5q-143 0 -253 -66.5t-184.5 -174t-113.5 -242.5t-39 -272z" />
<glyph unicode="R" horiz-adv-x="1300" d="M86 0l309 1462h469q135 0 226.5 -33.5t144.5 -87t75.5 -121t22.5 -137.5q0 -180 -92 -285.5t-252 -150.5l174 -647h-205l-149 610q-29 -4 -60.5 -4h-60.5h-287l-129 -606h-186zM436 768h314q88 0 160.5 15.5t124.5 52t80 96t28 149.5q0 45 -15.5 85t-51.5 71t-96 48.5 t-151 17.5h-280z" />
<glyph unicode="S" horiz-adv-x="1316" d="M84 416h188q16 -152 105.5 -221.5t284.5 -69.5q94 0 160.5 22.5t107.5 62.5t60.5 95t19.5 119q0 35 -8.5 67.5t-31 62.5t-61.5 52.5t-100 34.5l-193 41q-174 37 -267 128t-93 241q0 113 40 197.5t112.5 140t175 83t229.5 27.5q121 0 213 -29.5t155.5 -82t99.5 -127 t46 -162.5l-180 -31q-20 137 -98 204.5t-248 67.5q-102 0 -170 -21.5t-108 -57t-56 -81.5t-16 -96q0 -92 47 -146t172 -83l188 -41q98 -20 167 -57t110 -85t59 -107.5t18 -125.5q0 -119 -41 -208t-115.5 -148t-178 -89t-228.5 -30q-102 0 -202.5 21.5t-179.5 74t-129 139.5 t-54 218z" />
<glyph unicode="T" horiz-adv-x="1230" d="M236 1294l36 168h1155l-34 -168h-484l-272 -1294h-191l275 1294h-485z" />
<glyph unicode="U" horiz-adv-x="1396" d="M170 401q0 78 23 187l184 874h188l-186 -882q-18 -92 -19 -166q0 -287 312 -287q98 0 169.5 28.5t123 85t85 141.5t58.5 198l188 882h189l-187 -882q-35 -164 -89 -280t-131 -191.5t-180 -110.5t-236 -35q-111 0 -201 26.5t-154.5 80t-100.5 136.5t-36 195z" />
<glyph unicode="V" horiz-adv-x="1363" d="M260 1462h203l190 -1218l711 1218h209l-871 -1462h-186z" />
<glyph unicode="W" horiz-adv-x="1906" d="M258 1462h209l51 -1202l569 1196h201l66 -1196l557 1202h207l-717 -1462h-197l-67 1223l-580 -1223h-190z" />
<glyph unicode="X" horiz-adv-x="1306" d="M-51 0l678 776l-332 686h209l256 -557l489 557h213l-618 -702l368 -760h-211l-294 625l-543 -625h-215z" />
<glyph unicode="Y" horiz-adv-x="1255" d="M262 1462h203l250 -676l534 676h213l-680 -841l-131 -621h-188l129 621z" />
<glyph unicode="Z" horiz-adv-x="1200" d="M-8 0l31 145l1062 1151h-811l35 166h1049l-31 -147l-1061 -1147h854l-61 -168h-1067z" />
<glyph unicode="[" horiz-adv-x="579" d="M25 -254l374 1757h402l-33 -153h-221l-307 -1450h221l-35 -154h-401z" />
<glyph unicode="\" horiz-adv-x="677" d="M264 1503h174l146 -1503h-176z" />
<glyph unicode="]" horiz-adv-x="579" d="M-106 -254l32 154h221l308 1450h-222l35 153h402l-375 -1757h-401z" />
<glyph unicode="^" d="M170 618l594 834h151l238 -834h-180l-172 629l-439 -629h-192z" />
<glyph unicode="_" horiz-adv-x="1024" d="M-150 -358l23 106h1022l-23 -106h-1022z" />
<glyph unicode="`" horiz-adv-x="800" d="M383 1501h209l182 -291h-168z" />
<glyph unicode="a" horiz-adv-x="1101" d="M57 258q0 113 48.5 186.5t129 118.5t189 64.5t231.5 23.5l201 6l6 29q10 47 10 84q0 82 -48 132t-165 50q-129 0 -192.5 -34.5t-97.5 -126.5l-162 20q49 154 162.5 217.5t306.5 63.5q186 0 278.5 -84t92.5 -232q0 -63 -15 -123l-137 -653h-174l31 145q-74 -76 -162 -123 t-221 -47q-139 0 -225.5 75t-86.5 208zM242 268q0 -61 41 -104t133 -43q74 0 139.5 22.5t115.5 61.5t85 92t49 115l24 120l-176 -8q-119 -6 -197.5 -23.5t-126.5 -48t-67.5 -76.5t-19.5 -108z" />
<glyph unicode="b" horiz-adv-x="1222" d="M63 0l310 1462h178l-117 -551q72 86 161 133.5t206 47.5q100 0 170.5 -38t116 -100.5t66 -144.5t20.5 -170q0 -129 -39 -250t-111 -214t-174 -150.5t-229 -57.5q-113 0 -202 46t-147 147l-32 -160h-177zM326 375q0 -121 75.5 -190.5t198.5 -69.5q88 0 159.5 43t122 115.5 t77 168t26.5 197.5q0 150 -61.5 227.5t-169.5 77.5q-70 0 -135.5 -29.5t-117.5 -80t-89 -115t-52 -133.5l-18 -84q-8 -35 -12 -67t-4 -60z" />
<glyph unicode="c" horiz-adv-x="1144" d="M125 412q0 164 47 290.5t128 212.5t188.5 131.5t228.5 45.5q100 0 174 -29t122 -78t73.5 -115.5t31.5 -140.5l-176 -27q-6 47 -18.5 91.5t-40 78t-70.5 53t-111 19.5q-86 0 -157.5 -37t-122.5 -105.5t-80 -165.5t-29 -216q0 -66 15.5 -121t47.5 -96t82 -64.5t122 -23.5 q133 0 204.5 66.5t100.5 170.5h182q-23 -88 -63.5 -159.5t-103 -122t-146.5 -77t-193 -26.5q-104 0 -186 34t-137.5 94.5t-84 141t-28.5 175.5z" />
<glyph unicode="d" horiz-adv-x="1220" d="M119 416q0 129 39 250.5t111.5 216t176 152t232.5 57.5q109 0 197 -46.5t145 -144.5l119 561h178l-311 -1462h-175l29 147q-72 -92 -158 -136t-196 -44q-102 0 -175 38t-120 100.5t-69.5 143.5t-22.5 167zM307 420q0 -141 63.5 -222t182.5 -81q72 0 135.5 29.5 t112.5 79.5t84 115t49 136l18 84q14 66 15 127q0 102 -72 178q-35 37 -85 57.5t-118 20.5q-88 0 -159.5 -42t-122 -113.5t-77 -167t-26.5 -201.5z" />
<glyph unicode="e" horiz-adv-x="1167" d="M125 420q0 162 45 286.5t123 211t185.5 130.5t230.5 44q100 0 176 -31t127 -85t77.5 -128t26.5 -160q0 -35 -2 -80t-12 -88l-8 -35h-791q-2 -18 -2 -37.5v-37.5q0 -59 18.5 -113.5t54.5 -95.5t90 -65.5t128 -24.5q127 0 190.5 48t94.5 138h174q-23 -76 -61 -137.5 t-94 -104.5t-135 -65.5t-186 -22.5q-109 0 -191.5 36t-141 97.5t-88 143.5t-29.5 176zM326 618h612q2 16 3 34t1 36q0 53 -15.5 101.5t-46 85t-78 58t-110.5 21.5q-135 0 -231 -81.5t-135 -254.5z" />
<glyph unicode="f" horiz-adv-x="684" d="M125 0l194 918h-163l28 141h166l23 106q39 170 125 242t227 72q61 0 109.5 -12.5t76.5 -24.5l-51 -133q-25 10 -53.5 17t-73.5 7q-78 0 -121 -43t-61 -131l-23 -100h269l-29 -141h-270l-193 -918h-180z" />
<glyph unicode="g" horiz-adv-x="1218" d="M45 -98h176q14 -96 72.5 -137t191.5 -41q166 0 246 93t117 269l20 102q-135 -168 -360 -168q-100 0 -172 36t-118 95.5t-67.5 136.5t-21.5 161q0 115 38 228.5t108.5 204.5t173 148t231.5 57q106 0 195.5 -44t148.5 -142l35 158h174l-189 -887q-29 -135 -64.5 -244.5 t-97 -186.5t-158.5 -119t-247 -42q-205 0 -315.5 78t-116.5 244zM317 449q0 -135 62.5 -208t173.5 -73q139 0 246.5 93t142.5 253q14 66 19.5 100.5t5.5 75.5q0 121 -76 187.5t-197 66.5q-90 0 -159.5 -42t-117.5 -111.5t-74 -158.5t-26 -183z" />
<glyph unicode="h" horiz-adv-x="1167" d="M63 0l310 1462h178l-119 -559q92 104 190.5 146.5t192.5 42.5q147 0 225 -80t78 -224q0 -55 -12 -116l-143 -672h-179l138 649q6 27 10 52.5t4 50.5q0 86 -41 136t-133 50q-119 0 -232 -86q-55 -45 -97 -96t-58 -129l-133 -627h-179z" />
<glyph unicode="i" horiz-adv-x="462" d="M68 0l225 1059h178l-225 -1059h-178zM319 1255l43 207h193l-43 -207h-193z" />
<glyph unicode="j" horiz-adv-x="462" d="M-303 -340l57 137q25 -10 56.5 -18t76.5 -8q74 0 112 43t56 129l238 1116h178l-233 -1100q-18 -78 -43 -141.5t-63 -107.5t-94 -67.5t-138 -23.5q-68 0 -117 12.5t-86 28.5zM319 1255l43 207h193l-43 -207h-193z" />
<glyph unicode="k" horiz-adv-x="1071" d="M63 0l310 1462h176l-176 -844l577 441h224l-457 -363l270 -696h-190l-224 602l-245 -184l-88 -418h-177z" />
<glyph unicode="l" horiz-adv-x="462" d="M68 0l309 1462h178l-309 -1462h-178z" />
<glyph unicode="m" horiz-adv-x="1763" d="M63 0l224 1059h176l-35 -160q88 104 175 148.5t171 44.5q106 0 175 -49.5t93 -151.5q102 117 197.5 159t185.5 42q137 0 212 -76t75 -201q0 -31 -4 -73t-14 -89l-138 -653h-178l135 631q8 37 13.5 79t5.5 74q0 72 -39 113t-117 41q-53 0 -105 -18.5t-108 -63.5 q-51 -41 -80.5 -87t-46.5 -120l-139 -649h-178l133 627q10 43 15 84t5 67q0 78 -37.5 119t-111.5 41q-57 0 -104.5 -20.5t-100.5 -65.5t-90 -98.5t-59 -143.5l-127 -610h-179z" />
<glyph unicode="n" horiz-adv-x="1167" d="M63 0l224 1059h176l-35 -160q92 104 191.5 148.5t195.5 44.5q147 0 225 -80t78 -224q0 -55 -12 -116l-143 -672h-179l138 649q6 27 10 52.5t4 50.5q0 86 -41 136t-133 50q-119 0 -232 -86q-55 -43 -97 -95t-58 -130l-133 -627h-179z" />
<glyph unicode="o" horiz-adv-x="1230" d="M125 410q0 160 48 285.5t132 213.5t195.5 135.5t240.5 47.5q98 0 179 -33t138.5 -91.5t89.5 -140.5t32 -178q0 -160 -46.5 -286.5t-129 -214t-195.5 -134.5t-244 -47q-98 0 -179 33t-139.5 92.5t-90 140t-31.5 177.5zM313 418q0 -137 68 -220t197 -83q92 0 167.5 39 t130 108.5t85 165.5t30.5 213q0 137 -66.5 220t-195.5 83q-92 0 -168 -39t-131 -108.5t-86 -165.5t-31 -213z" />
<glyph unicode="p" horiz-adv-x="1222" d="M-23 -397l310 1456h176l-31 -148q72 86 162 133.5t207 47.5q100 0 170.5 -37t116 -98.5t66 -142.5t20.5 -169q0 -129 -38 -252t-110 -217t-174 -151.5t-231 -57.5q-113 0 -201 46t-146 145l-118 -555h-179zM326 377q0 -123 75.5 -192.5t198.5 -69.5q88 0 159.5 43 t122 115.5t77 168t26.5 197.5q0 150 -61.5 227.5t-169.5 77.5q-66 0 -129.5 -27.5t-116.5 -74.5t-92 -113.5t-56 -142.5l-18 -84q-8 -35 -12 -65.5t-4 -59.5z" />
<glyph unicode="q" horiz-adv-x="1222" d="M119 422q0 127 40 248t112.5 214t175 150.5t231.5 57.5q111 0 201 -47.5t145 -147.5l35 162h174l-311 -1456h-179l115 540q-72 -90 -157 -133t-195 -43q-102 0 -175 37t-120 100.5t-69.5 145.5t-22.5 172zM305 420q0 -141 64.5 -222t183.5 -81q72 0 135.5 29.5 t112.5 79.5t84 115t49 136l18 84q14 63 15 125q0 109 -72 180q-74 78 -205 78q-88 0 -159.5 -42t-122 -114.5t-77 -168t-26.5 -199.5z" />
<glyph unicode="r" horiz-adv-x="749" d="M63 0l224 1059h176l-35 -164q90 102 168 142t168 40q29 0 52.5 -4t39.5 -8l-47 -162q-20 4 -40.5 7t-49.5 3q-39 0 -89 -14t-104 -55q-57 -47 -97 -98.5t-56 -129.5l-131 -616h-179z" />
<glyph unicode="s" horiz-adv-x="1069" d="M66 307h170q2 -57 24.5 -95t59 -60.5t86 -31.5t106.5 -9q133 0 193.5 51t60.5 131q0 68 -34 102.5t-124 55.5l-119 26q-160 35 -227 102.5t-67 178.5q0 86 34.5 148.5t94 103.5t138.5 61.5t167 20.5q188 0 287.5 -79t115.5 -225l-164 -24q-16 92 -69.5 139t-180.5 47 q-72 0 -119.5 -14t-77.5 -39t-42 -55.5t-12 -61.5q0 -61 36.5 -97t139.5 -58l125 -27q145 -29 212.5 -99.5t67.5 -197.5q0 -90 -38 -153.5t-99 -103.5t-143 -58.5t-170 -18.5q-80 0 -158 16.5t-138.5 56.5t-98 104.5t-37.5 162.5z" />
<glyph unicode="t" horiz-adv-x="710" d="M154 918l28 141h166l62 289h178l-62 -289h281l-31 -141h-278l-127 -603l-7.5 -37.5t-3.5 -33.5q0 -119 119 -119q45 0 76 6t59 16l29 -137q-45 -16 -92 -24.5t-107 -8.5q-127 0 -195.5 60.5t-68.5 179.5q0 25 2 50.5t11 54.5l126 596h-165z" />
<glyph unicode="u" horiz-adv-x="1148" d="M121 266q0 29 4 59.5t10 63.5l144 670h178l-140 -658q-10 -51 -10 -102q0 -76 36 -127t128 -51q115 0 221 88q53 43 96 95t60 132l133 623h178l-225 -1059h-174l35 162q-92 -104 -186.5 -149.5t-190.5 -45.5q-150 0 -223.5 83t-73.5 216z" />
<glyph unicode="v" horiz-adv-x="1067" d="M156 1059h198l133 -860l504 860h205l-649 -1059h-193z" />
<glyph unicode="w" horiz-adv-x="1501" d="M158 1059h192l31 -844l422 838h178l61 -838l394 844h190l-532 -1059h-189l-59 844l-418 -844h-186z" />
<glyph unicode="x" horiz-adv-x="1030" d="M-51 0l508 567l-250 492h196l179 -379l338 379h200l-456 -508l270 -551h-195l-204 432l-377 -432h-209z" />
<glyph unicode="y" horiz-adv-x="1071" d="M-35 -365l51 138q23 -8 48.5 -14.5t58.5 -6.5t57.5 8.5t46 27.5t42 50t48.5 76l70 115l-231 1030h196l162 -832l477 832h207l-709 -1159q-45 -72 -81.5 -127.5t-76.5 -93t-88 -57t-112 -19.5q-49 0 -90 8t-76 24z" />
<glyph unicode="z" horiz-adv-x="956" d="M-14 0l28 133l768 782h-596l29 144h825l-28 -133l-766 -783h641l-49 -143h-852z" />
<glyph unicode="{" horiz-adv-x="589" d="M96 549l33 151h10q76 0 114 40t54 112l84 397q31 143 110 198.5t199 55.5h125l-32 -149h-99q-59 0 -89 -27t-40 -80l-94 -436q-14 -72 -52 -121t-108 -65q47 -14 67.5 -46t20.5 -79q0 -29 -6 -62l-94 -436q-4 -10 -4 -20.5v-20.5q0 -31 18.5 -48t63.5 -17h106l-32 -150 h-123q-100 0 -155.5 41t-55.5 133q0 33 10 80l84 397q6 31 6 56q0 47 -25.5 71.5t-85.5 24.5h-10z" />
<glyph unicode="|" horiz-adv-x="466" d="M16 -254l375 1757h176l-374 -1757h-177z" />
<glyph unicode="}" horiz-adv-x="589" d="M-121 -254l33 150h98q59 0 89 26.5t40 79.5l94 436q14 72 52.5 121t107.5 66q-47 14 -67.5 45.5t-20.5 79.5q0 27 6 61l95 436q4 10 4 20.5v20.5q0 31 -18.5 48.5t-63.5 17.5h-107l33 149h123q100 0 155.5 -41t55.5 -133q0 -33 -10 -80l-84 -397q-6 -31 -7 -55 q0 -47 26 -72t85 -25h10l-33 -151h-10q-76 0 -113.5 -40t-54.5 -112l-84 -397q-16 -72 -43.5 -121t-66.5 -78.5t-89.5 -42t-109.5 -12.5h-125z" />
<glyph unicode="~" d="M131 512q14 115 45 185.5t74 108.5t95 51t112 13q76 0 132 -33.5t104 -73.5t93 -73t99 -33q74 0 114.5 42t61.5 151h156q-14 -115 -45 -185.5t-75 -109.5t-98.5 -52.5t-111.5 -13.5q-76 0 -132.5 34t-104.5 75t-93 75t-98 34q-72 0 -112 -42t-58 -153h-158z" />
<glyph unicode="&#xa1;" horiz-adv-x="471" d="M-18 -397l231 1036h164l-205 -1036h-190zM231 821l50 238h198l-49 -238h-199z" />
<glyph unicode="&#xa2;" d="M203 594q0 156 44 279.5t119.5 210.5t178 134.5t219.5 53.5l39 176h133l-39 -186q147 -29 217 -125.5t82 -223.5l-176 -28q-4 39 -13.5 74.5t-27.5 66.5t-46 53.5t-69 34.5l-172 -809q117 10 179.5 73.5t91.5 162.5h182q-45 -172 -161 -276.5t-322 -108.5l-37 -174h-133 l38 184q-160 33 -243.5 149.5t-83.5 278.5zM389 604q0 -104 40 -182t132 -107l172 807q-78 -10 -141.5 -50t-108.5 -107.5t-69.5 -158.5t-24.5 -202z" />
<glyph unicode="&#xa3;" d="M102 0l31 145q111 92 177.5 190.5t74.5 227.5q2 18 2 35.5t2 36.5h-180l31 147h137q-6 37 -11.5 82t-5.5 92q0 229 113 363.5t356 134.5q174 0 270.5 -82t125.5 -256l-160 -31q-25 121 -81 169.5t-163 48.5q-84 0 -140 -25t-89 -69t-46.5 -104.5t-13.5 -133.5 q0 -51 5.5 -96.5t11.5 -92.5h457l-31 -147h-414q-2 -150 -59.5 -262.5t-169.5 -212.5h758l-58 -160h-930z" />
<glyph unicode="&#xa4;" d="M125 295l141 121q-43 82 -43 184q0 135 40 242.5t110 183.5l-97 129l123 96l95 -127q117 70 258 70q72 0 134 -21.5t109 -62.5l140 123l94 -113l-144 -125q43 -80 43 -182q0 -133 -37.5 -238.5t-103.5 -181.5l100 -131l-122 -96l-97 127q-121 -74 -270 -74 q-72 0 -133.5 21.5t-108.5 62.5l-135 -121zM385 612q0 -115 57.5 -183.5t167.5 -68.5q78 0 143.5 32t112.5 89.5t73 139t26 182.5q0 115 -56.5 183.5t-169.5 68.5q-78 0 -142.5 -32t-111.5 -89t-73.5 -139t-26.5 -183z" />
<glyph unicode="&#xa5;" d="M133 322l29 137h366l33 151l-14 45h-350l28 138h267l-232 622h189l227 -661l510 661h192l-493 -622h264l-29 -138h-348l-33 -45l-32 -151h378l-30 -137h-377l-68 -322h-178l68 322h-367z" />
<glyph unicode="&#xa6;" horiz-adv-x="466" d="M16 -254l154 715h176l-153 -715h-177zM242 799l149 704h176l-149 -704h-176z" />
<glyph unicode="&#xa7;" horiz-adv-x="1079" d="M37 119h172q4 -49 20.5 -88t49 -66.5t86 -43t131.5 -15.5q82 0 133 15.5t80.5 43t40 64.5t10.5 77q0 45 -32 91.5t-122 70.5l-166 47q-152 41 -217 116t-65 181q0 113 54 193t183 115q-72 35 -102.5 98t-30.5 135q0 92 35 156.5t96.5 106.5t145.5 61.5t182 19.5 q117 0 196.5 -28.5t129 -73.5t74 -99.5t34.5 -105.5l-166 -35q-8 41 -26.5 77t-51 61.5t-83 41t-119.5 15.5q-80 0 -132.5 -14.5t-83 -41t-42 -61.5t-11.5 -76q0 -47 32 -91t118 -67l176 -51q150 -45 211 -117.5t61 -177.5q0 -111 -53 -191.5t-184 -115.5 q76 -39 104.5 -103.5t28.5 -131.5q0 -98 -32 -165t-90 -109t-140.5 -60.5t-182.5 -18.5q-119 0 -203.5 29t-139 78t-81 114.5t-28.5 139.5zM319 621q0 -53 38 -97.5t130 -72.5l66 -19q53 -16 102 -16q41 0 81 13t71 41t49 71t18 102q0 53 -36.5 97t-128.5 73l-76 23 q-23 6 -47.5 10t-46.5 4q-43 0 -82 -13.5t-70 -41t-49.5 -70.5t-18.5 -104z" />
<glyph unicode="&#xa8;" horiz-adv-x="800" d="M289 1260l41 202h182l-43 -202h-180zM647 1260l41 202h182l-43 -202h-180z" />
<glyph unicode="&#xa9;" horiz-adv-x="1585" d="M160 731q0 166 55 301t150.5 230.5t222.5 147.5t272 52q156 0 284 -52t220 -147.5t142 -230.5t50 -301t-54 -301t-148 -230.5t-221 -147.5t-273 -52q-154 0 -282.5 52t-222 147.5t-144.5 230.5t-51 301zM295 731q0 -139 41 -251.5t115.5 -192.5t179 -124t229.5 -44 q123 0 226.5 44t178 124t116.5 192.5t42 251.5q0 137 -42 250t-116.5 192.5t-178 123.5t-226.5 44q-125 0 -229.5 -44t-179 -123.5t-115.5 -192.5t-41 -250zM481 727q0 94 27 173t77 134.5t122.5 86t162.5 30.5q145 0 226.5 -71.5t101.5 -194.5l-141 -25q-16 78 -59.5 124 t-131.5 46q-63 0 -106 -23.5t-70.5 -63.5t-40 -95t-12.5 -117q0 -61 12.5 -116.5t39 -96.5t69.5 -64.5t106 -23.5q88 0 136.5 47t60.5 131h151q-20 -139 -106 -219t-244 -80q-186 0 -283.5 113t-97.5 305z" />
<glyph unicode="&#xaa;" horiz-adv-x="870" d="M207 891q0 84 34.5 139t94 89t141.5 48.5t178 18.5l131 4q2 20 5.5 36.5t3.5 33.5q0 57 -34 90.5t-110 33.5q-96 0 -140 -25.5t-67 -90.5l-127 16q39 121 122 168t223 47q135 0 203.5 -62.5t68.5 -172.5q0 -39 -10 -90l-101 -474h-137l19 95q-51 -47 -112 -80t-153 -33 q-102 0 -167.5 58.5t-65.5 150.5zM354 901q0 -41 28 -71.5t93 -30.5q106 0 179 56t94 149l18 79l-121 -4q-86 -4 -141 -16t-89 -33.5t-47.5 -53.5t-13.5 -75z" />
<glyph unicode="&#xab;" horiz-adv-x="1017" d="M127 526l375 455h184l-362 -463l157 -450h-176zM537 526l375 455h184l-362 -463l157 -450h-176z" />
<glyph unicode="&#xac;" d="M213 727l33 158h911l-117 -547h-159l82 389h-750z" />
<glyph unicode="&#xad;" horiz-adv-x="798" d="M131 510l39 178h602l-39 -178h-602z" />
<glyph unicode="&#xae;" horiz-adv-x="989" d="M213 1057q0 102 33 184t91 139.5t135 88t167 30.5q96 0 175 -30.5t134.5 -88t86 -139.5t30.5 -184t-33 -184t-91 -139.5t-136 -88.5t-166 -31q-94 0 -173 31t-135.5 88.5t-87 139t-30.5 184.5zM315 1057q0 -170 88.5 -262.5t233.5 -92.5t235.5 92.5t90.5 262.5t-90.5 262 t-235.5 92t-233.5 -92t-88.5 -262zM473 854v422h160q57 0 92 -11.5t54.5 -28.5t26.5 -41t7 -48q0 -45 -15.5 -72.5t-54.5 -44.5l91 -176h-103l-78 156h-86v-156h-94zM567 1087h74q51 0 64.5 17.5t13.5 44.5q0 23 -17.5 37t-72.5 14h-62v-113z" />
<glyph unicode="&#xaf;" horiz-adv-x="800" d="M293 1274l31 145h534l-31 -145h-534z" />
<glyph unicode="&#xb0;" horiz-adv-x="673" d="M168 1176q0 61 21.5 112t60.5 90t92 60.5t115 21.5q61 0 114.5 -21.5t91 -60.5t59 -90t21.5 -112t-21.5 -113.5t-59 -91.5t-91 -60.5t-114.5 -21.5t-114.5 21.5t-92.5 60.5t-60.5 91.5t-21.5 113.5zM305 1176q0 -74 42 -116t110 -42q66 0 107.5 42t41.5 116 q0 70 -42 113.5t-107 43.5q-68 0 -110 -44t-42 -113z" />
<glyph unicode="&#xb1;" d="M121 0l35 162h901l-35 -162h-901zM188 618l33 158h393l88 422h164l-88 -422h393l-34 -158h-394l-88 -421h-163l88 421h-392z" />
<glyph unicode="&#xb2;" horiz-adv-x="843" d="M178 600l23 113q57 43 125.5 91t156.5 111q51 39 95.5 71t75 65.5t48 72.5t17.5 88q0 43 -32 77t-89 34q-74 0 -118 -29.5t-74 -115.5l-136 22q33 113 112 180.5t230 67.5q117 0 187.5 -64.5t70.5 -162.5q0 -63 -20.5 -113.5t-56 -93.5t-83.5 -82t-106 -80 q-41 -29 -88 -56.5t-92 -62.5h364l-47 -133h-563z" />
<glyph unicode="&#xb3;" horiz-adv-x="843" d="M197 844h139q4 -74 47 -113t115 -39q78 0 125 37t47 113q0 61 -38 88.5t-91 27.5h-99l27 127h98q156 0 156 140q0 45 -30.5 72.5t-94.5 27.5q-80 0 -123 -25.5t-72 -107.5l-135 22q31 109 108 171.5t228 62.5q129 0 194.5 -63.5t65.5 -149.5q0 -82 -35.5 -132t-107.5 -83 q51 -31 73.5 -77t22.5 -101q0 -129 -79 -202t-244 -73q-66 0 -120.5 19.5t-93 55.5t-61 87t-22.5 115z" />
<glyph unicode="&#xb4;" horiz-adv-x="800" d="M326 1210l286 291h228l-328 -291h-186z" />
<glyph unicode="&#xb5;" horiz-adv-x="1148" d="M-33 -397l312 1456h178l-140 -658q-10 -51 -10 -94q0 -78 36 -132t128 -54q115 0 221 88q51 41 95 96t61 131l133 623h178l-225 -1059h-174l35 162q-162 -193 -353 -193q-76 0 -123 21.5t-75 68.5l-97 -456h-180z" />
<glyph unicode="&#xb6;" horiz-adv-x="1247" d="M176 963q0 104 35 195t113.5 158.5t205.5 106.5t312 39h493l-370 -1747h-179l340 1596h-243l-338 -1596h-178l188 891q-104 2 -177 35t-118 83t-64.5 112.5t-19.5 126.5z" />
<glyph unicode="&#xb7;" horiz-adv-x="442" d="M182 645l49 240h205l-51 -240h-203z" />
<glyph unicode="&#xb8;" horiz-adv-x="800" d="M137 -412l21 109q35 -8 60.5 -10t53.5 -2q61 0 92 15t31 56q0 29 -30.5 46.5t-104.5 17.5h-41l103 190h116l-61 -114q92 -14 126 -55.5t34 -84.5q0 -104 -76 -143t-195 -39q-29 0 -61.5 4t-67.5 10z" />
<glyph unicode="&#xb9;" horiz-adv-x="843" d="M317 1286l271 131h176l-174 -817h-164l139 657l-194 -92z" />
<glyph unicode="&#xba;" horiz-adv-x="876" d="M199 1001q0 117 34.5 209.5t96 157t143.5 98t176 33.5q70 0 129.5 -24.5t102.5 -67.5t66.5 -103.5t23.5 -129.5q0 -117 -34 -210.5t-94.5 -158t-142.5 -98t-178 -33.5q-72 0 -131 24.5t-102 68.5t-66.5 103.5t-23.5 130.5zM350 1012q0 -94 47 -152.5t138 -58.5 q129 0 206.5 99t77.5 263q0 94 -47 152.5t-137 58.5q-127 0 -206 -99t-79 -263z" />
<glyph unicode="&#xbb;" horiz-adv-x="1017" d="M-4 68l364 462l-157 451h172l180 -459l-373 -454h-186zM406 68l364 462l-157 451h172l180 -459l-373 -454h-186z" />
<glyph unicode="&#xbc;" horiz-adv-x="1865" d="M229 1286l271 131h176l-174 -817h-164l139 657l-194 -92zM360 0l1016 1415h184l-1015 -1415h-185zM1087 193l21 96l520 530h139l-108 -506h104l-45 -120h-86l-39 -191h-133l39 191h-412zM1267 313h258l70 330z" />
<glyph unicode="&#xbd;" horiz-adv-x="1865" d="M229 1286l271 131h176l-174 -817h-164l139 657l-194 -92zM297 0l1016 1415h184l-1015 -1415h-185zM1112 2l23 113q57 43 125.5 91t156.5 111q51 39 95.5 71t75 65.5t48 72.5t17.5 88q0 43 -32 77t-89 34q-74 0 -118 -29.5t-74 -115.5l-136 22q33 113 112 180.5t230 67.5 q117 0 187.5 -64.5t70.5 -162.5q0 -63 -20.5 -113.5t-56 -93.5t-83.5 -82t-106 -80q-41 -29 -88 -56.5t-92 -62.5h364l-47 -133h-563z" />
<glyph unicode="&#xbe;" horiz-adv-x="1865" d="M193 844h139q4 -74 47 -113t115 -39q78 0 125 37t47 113q0 61 -38 88.5t-91 27.5h-99l27 127h98q156 0 156 140q0 45 -30.5 72.5t-94.5 27.5q-80 0 -123 -25.5t-72 -107.5l-135 22q31 109 108 171.5t228 62.5q129 0 194.5 -63.5t65.5 -149.5q0 -82 -35.5 -132t-107.5 -83 q51 -31 73.5 -77t22.5 -101q0 -129 -79 -202t-244 -73q-66 0 -120.5 19.5t-93 55.5t-61 87t-22.5 115zM456 0l1016 1415h184l-1015 -1415h-185zM1087 193l21 96l520 530h139l-108 -506h104l-45 -120h-86l-39 -191h-133l39 191h-412zM1267 313h258l70 330z" />
<glyph unicode="&#xbf;" horiz-adv-x="1013" d="M8 -96q0 70 18.5 127t50.5 105t75 90t94 83q45 37 87 69t77.5 66.5t61.5 75.5t36 94l6 27h176l-4 -31q-14 -68 -42 -118t-64.5 -91t-82.5 -77.5t-98 -79.5q-43 -35 -80.5 -68t-65.5 -70.5t-44 -83t-16 -102.5q0 -86 57 -137t168 -51q59 0 109.5 11t90 40t71.5 77t56 122 l160 -27q-25 -86 -64.5 -155.5t-100 -119t-143.5 -76t-196 -26.5q-94 0 -167.5 24.5t-124 68.5t-76 103.5t-25.5 129.5zM535 821l49 238h198l-49 -238h-198z" />
<glyph unicode="&#xc0;" horiz-adv-x="1380" d="M-51 0l878 1462h197l258 -1462h-195l-69 408h-625l-239 -408h-205zM483 571h512l-114 678zM682 1860h213l187 -277h-170z" />
<glyph unicode="&#xc1;" horiz-adv-x="1380" d="M-51 0l878 1462h197l258 -1462h-195l-69 408h-625l-239 -408h-205zM483 571h512l-114 678zM793 1583l289 277h231l-336 -277h-184z" />
<glyph unicode="&#xc2;" horiz-adv-x="1380" d="M-51 0l878 1462h197l258 -1462h-195l-69 408h-625l-239 -408h-205zM483 571h512l-114 678zM625 1583l291 277h178l180 -277h-166l-117 162l-198 -162h-168z" />
<glyph unicode="&#xc3;" horiz-adv-x="1380" d="M-51 0l878 1462h197l258 -1462h-195l-69 408h-625l-239 -408h-205zM483 571h512l-114 678zM577 1595q14 125 69.5 183.5t159.5 58.5q47 0 84 -16.5t70 -37t61.5 -36.5t59.5 -16q51 0 73.5 21.5t32.5 80.5h140q-16 -125 -71.5 -183.5t-158.5 -58.5q-47 0 -85 17.5 t-69.5 37t-60 37t-59.5 17.5q-49 0 -73.5 -23.5t-35.5 -81.5h-137z" />
<glyph unicode="&#xc4;" horiz-adv-x="1380" d="M-51 0l878 1462h197l258 -1462h-195l-69 408h-625l-239 -408h-205zM483 571h512l-114 678zM662 1618l45 209h186l-45 -209h-186zM1030 1618l45 209h189l-45 -209h-189z" />
<glyph unicode="&#xc5;" horiz-adv-x="1380" d="M-51 0l852 1419q-39 27 -61.5 70t-22.5 104q0 106 63.5 159.5t149.5 53.5q43 0 82 -13t68.5 -40t47 -66.5t17.5 -93.5q0 -72 -32 -119t-79 -69l248 -1405h-195l-69 408h-625l-239 -408h-205zM483 571h512l-114 678zM829 1593q0 -53 27 -78.5t74 -25.5q100 0 100 104 q0 59 -26.5 85t-73.5 26t-74 -26t-27 -85z" />
<glyph unicode="&#xc6;" horiz-adv-x="2101" d="M-74 0l1161 1462h1141l-33 -166h-712l-99 -458h672l-35 -168h-671l-107 -504h754l-62 -166h-909l102 485h-602l-383 -485h-217zM651 647h512l140 649h-142z" />
<glyph unicode="&#xc7;" horiz-adv-x="1454" d="M170 584q0 182 52 348t151.5 292t243 200.5t323.5 74.5q250 0 381 -130t152 -355l-189 -31q-23 176 -102.5 264t-251.5 88q-129 0 -232.5 -58t-177.5 -158.5t-112.5 -234.5t-38.5 -284q0 -98 23.5 -184t72.5 -150.5t123 -101.5t174 -37q190 0 293.5 94t138.5 248h205 q-25 -104 -71 -193.5t-118.5 -156t-173 -106.5t-231.5 -48l-39 -78q96 -16 132 -61t36 -88q0 -109 -80 -149t-205 -40q-31 0 -65.5 4.5t-69.5 10.5l23 108q37 -6 62.5 -9t55.5 -3q63 0 96 18.5t33 61.5q0 29 -31.5 47t-109.5 18h-43l86 162q-121 10 -217 58.5t-162.5 128 t-101.5 189.5t-35 241z" />
<glyph unicode="&#xc8;" horiz-adv-x="1216" d="M88 0l309 1462h946l-34 -166h-758l-98 -458h716l-34 -168h-717l-107 -504h799l-61 -166h-961zM657 1860h213l187 -277h-170z" />
<glyph unicode="&#xc9;" horiz-adv-x="1216" d="M88 0l309 1462h946l-34 -166h-758l-98 -458h716l-34 -168h-717l-107 -504h799l-61 -166h-961zM717 1583l289 277h231l-336 -277h-184z" />
<glyph unicode="&#xca;" horiz-adv-x="1216" d="M88 0l309 1462h946l-34 -166h-758l-98 -458h716l-34 -168h-717l-107 -504h799l-61 -166h-961zM565 1583l291 277h178l180 -277h-166l-117 162l-198 -162h-168z" />
<glyph unicode="&#xcb;" horiz-adv-x="1216" d="M88 0l309 1462h946l-34 -166h-758l-98 -458h716l-34 -168h-717l-107 -504h799l-61 -166h-961zM613 1618l45 209h186l-45 -209h-186zM981 1618l45 209h189l-45 -209h-189z" />
<glyph unicode="&#xcc;" horiz-adv-x="512" d="M88 0l309 1462h189l-310 -1462h-188zM241 1860h213l187 -277h-170z" />
<glyph unicode="&#xcd;" horiz-adv-x="512" d="M88 0l309 1462h189l-310 -1462h-188zM369 1583l289 277h231l-336 -277h-184z" />
<glyph unicode="&#xce;" horiz-adv-x="512" d="M88 0l309 1462h189l-310 -1462h-188zM191 1583l291 277h178l180 -277h-166l-117 162l-198 -162h-168z" />
<glyph unicode="&#xcf;" horiz-adv-x="512" d="M88 0l309 1462h189l-310 -1462h-188zM228 1618l45 209h186l-45 -209h-186zM596 1618l45 209h189l-45 -209h-189z" />
<glyph unicode="&#xd0;" horiz-adv-x="1488" d="M90 676l35 160h164l133 626h475q133 0 240.5 -44t182.5 -122.5t116 -187.5t41 -236q0 -190 -54.5 -350t-165 -275.5t-277.5 -181t-392 -65.5h-475l143 676h-166zM336 164h278q166 0 291 50t208 143.5t125 224.5t42 290q0 88 -24.5 166t-75 136.5t-126 92t-175.5 33.5 h-301l-101 -464h375l-35 -160h-373z" />
<glyph unicode="&#xd1;" horiz-adv-x="1433" d="M88 0l309 1462h170l510 -1161l246 1161h182l-309 -1462h-166l-514 1161l-246 -1161h-182zM618 1595q14 125 69.5 183.5t159.5 58.5q47 0 84 -16.5t70 -37t61.5 -36.5t59.5 -16q51 0 73.5 21.5t32.5 80.5h140q-16 -125 -71.5 -183.5t-158.5 -58.5q-47 0 -85 17.5t-69.5 37 t-60 37t-59.5 17.5q-49 0 -73.5 -23.5t-35.5 -81.5h-137z" />
<glyph unicode="&#xd2;" horiz-adv-x="1566" d="M174 569q0 172 53.5 339t155.5 298t251 212t339 81q129 0 234.5 -43t182 -122t118.5 -190.5t42 -250.5q0 -172 -52 -339t-152.5 -298t-250 -212t-341.5 -81q-129 0 -235.5 42t-183.5 121t-119 191.5t-42 251.5zM371 580q0 -100 25.5 -183.5t74.5 -143.5t123 -93t170 -33 q143 0 252.5 66.5t184.5 174t114 242.5t39 275q0 100 -25.5 183t-75 142.5t-123 92t-169.5 32.5q-143 0 -253 -66.5t-184.5 -174t-113.5 -242.5t-39 -272zM766 1860h213l187 -277h-170z" />
<glyph unicode="&#xd3;" horiz-adv-x="1566" d="M174 569q0 172 53.5 339t155.5 298t251 212t339 81q129 0 234.5 -43t182 -122t118.5 -190.5t42 -250.5q0 -172 -52 -339t-152.5 -298t-250 -212t-341.5 -81q-129 0 -235.5 42t-183.5 121t-119 191.5t-42 251.5zM371 580q0 -100 25.5 -183.5t74.5 -143.5t123 -93t170 -33 q143 0 252.5 66.5t184.5 174t114 242.5t39 275q0 100 -25.5 183t-75 142.5t-123 92t-169.5 32.5q-143 0 -253 -66.5t-184.5 -174t-113.5 -242.5t-39 -272zM832 1583l289 277h231l-336 -277h-184z" />
<glyph unicode="&#xd4;" horiz-adv-x="1566" d="M174 569q0 172 53.5 339t155.5 298t251 212t339 81q129 0 234.5 -43t182 -122t118.5 -190.5t42 -250.5q0 -172 -52 -339t-152.5 -298t-250 -212t-341.5 -81q-129 0 -235.5 42t-183.5 121t-119 191.5t-42 251.5zM371 580q0 -100 25.5 -183.5t74.5 -143.5t123 -93t170 -33 q143 0 252.5 66.5t184.5 174t114 242.5t39 275q0 100 -25.5 183t-75 142.5t-123 92t-169.5 32.5q-143 0 -253 -66.5t-184.5 -174t-113.5 -242.5t-39 -272zM686 1583l291 277h178l180 -277h-166l-117 162l-198 -162h-168z" />
<glyph unicode="&#xd5;" horiz-adv-x="1566" d="M174 569q0 172 53.5 339t155.5 298t251 212t339 81q129 0 234.5 -43t182 -122t118.5 -190.5t42 -250.5q0 -172 -52 -339t-152.5 -298t-250 -212t-341.5 -81q-129 0 -235.5 42t-183.5 121t-119 191.5t-42 251.5zM371 580q0 -100 25.5 -183.5t74.5 -143.5t123 -93t170 -33 q143 0 252.5 66.5t184.5 174t114 242.5t39 275q0 100 -25.5 183t-75 142.5t-123 92t-169.5 32.5q-143 0 -253 -66.5t-184.5 -174t-113.5 -242.5t-39 -272zM643 1595q14 125 69.5 183.5t159.5 58.5q47 0 84 -16.5t70 -37t61.5 -36.5t59.5 -16q51 0 73.5 21.5t32.5 80.5h140 q-16 -125 -71.5 -183.5t-158.5 -58.5q-47 0 -85 17.5t-69.5 37t-60 37t-59.5 17.5q-49 0 -73.5 -23.5t-35.5 -81.5h-137z" />
<glyph unicode="&#xd6;" horiz-adv-x="1566" d="M174 569q0 172 53.5 339t155.5 298t251 212t339 81q129 0 234.5 -43t182 -122t118.5 -190.5t42 -250.5q0 -172 -52 -339t-152.5 -298t-250 -212t-341.5 -81q-129 0 -235.5 42t-183.5 121t-119 191.5t-42 251.5zM371 580q0 -100 25.5 -183.5t74.5 -143.5t123 -93t170 -33 q143 0 252.5 66.5t184.5 174t114 242.5t39 275q0 100 -25.5 183t-75 142.5t-123 92t-169.5 32.5q-143 0 -253 -66.5t-184.5 -174t-113.5 -242.5t-39 -272zM721 1618l45 209h186l-45 -209h-186zM1089 1618l45 209h189l-45 -209h-189z" />
<glyph unicode="&#xd7;" d="M188 377l387 321l-264 330l125 102l264 -327l390 330l98 -111l-395 -332l256 -323l-127 -103l-252 322l-383 -322z" />
<glyph unicode="&#xd8;" horiz-adv-x="1566" d="M143 6l150 170q-57 78 -88 175.5t-31 217.5q0 172 53.5 339t155.5 298t250.5 212t339.5 81q111 0 203 -30.5t163 -90.5l140 160l98 -80l-147 -170q57 -76 88.5 -175t31.5 -220q0 -172 -52 -339t-152.5 -298t-250 -212t-341.5 -81q-111 0 -206 31t-169 90l-137 -158z M371 580q0 -150 51 -254l799 917q-47 43 -112.5 67.5t-147.5 24.5q-143 0 -253 -66.5t-184.5 -174t-113.5 -242.5t-39 -272zM500 221q47 -45 113.5 -69.5t150.5 -24.5q143 0 252.5 66.5t184.5 174t114 243t39 274.5q0 150 -56 254z" />
<glyph unicode="&#xd9;" horiz-adv-x="1396" d="M170 401q0 78 23 187l184 874h188l-186 -882q-18 -92 -19 -166q0 -287 312 -287q98 0 169.5 28.5t123 85t85 141.5t58.5 198l188 882h189l-187 -882q-35 -164 -89 -280t-131 -191.5t-180 -110.5t-236 -35q-111 0 -201 26.5t-154.5 80t-100.5 136.5t-36 195zM690 1860h213 l187 -277h-170z" />
<glyph unicode="&#xda;" horiz-adv-x="1396" d="M170 401q0 78 23 187l184 874h188l-186 -882q-18 -92 -19 -166q0 -287 312 -287q98 0 169.5 28.5t123 85t85 141.5t58.5 198l188 882h189l-187 -882q-35 -164 -89 -280t-131 -191.5t-180 -110.5t-236 -35q-111 0 -201 26.5t-154.5 80t-100.5 136.5t-36 195zM791 1583 l289 277h231l-336 -277h-184z" />
<glyph unicode="&#xdb;" horiz-adv-x="1396" d="M170 401q0 78 23 187l184 874h188l-186 -882q-18 -92 -19 -166q0 -287 312 -287q98 0 169.5 28.5t123 85t85 141.5t58.5 198l188 882h189l-187 -882q-35 -164 -89 -280t-131 -191.5t-180 -110.5t-236 -35q-111 0 -201 26.5t-154.5 80t-100.5 136.5t-36 195zM621 1583 l291 277h178l180 -277h-166l-117 162l-198 -162h-168z" />
<glyph unicode="&#xdc;" horiz-adv-x="1396" d="M170 401q0 78 23 187l184 874h188l-186 -882q-18 -92 -19 -166q0 -287 312 -287q98 0 169.5 28.5t123 85t85 141.5t58.5 198l188 882h189l-187 -882q-35 -164 -89 -280t-131 -191.5t-180 -110.5t-236 -35q-111 0 -201 26.5t-154.5 80t-100.5 136.5t-36 195zM668 1618 l45 209h186l-45 -209h-186zM1036 1618l45 209h189l-45 -209h-189z" />
<glyph unicode="&#xdd;" horiz-adv-x="1255" d="M262 1462h203l250 -676l534 676h213l-680 -841l-131 -621h-188l129 621zM719 1583l289 277h231l-336 -277h-184z" />
<glyph unicode="&#xde;" horiz-adv-x="1282" d="M86 0l309 1462h187l-58 -272h293q131 0 220 -35t143.5 -88t78 -120t23.5 -130q0 -137 -45 -236.5t-128 -163t-200.5 -93t-265.5 -29.5h-309l-62 -295h-186zM369 455h297q94 0 173 16t136 57t88 109t31 172q0 47 -16.5 88t-52.5 70.5t-94.5 46t-144.5 16.5h-297z" />
<glyph unicode="&#xdf;" horiz-adv-x="1179" d="M66 0l227 1073q41 199 156.5 302.5t320.5 103.5q96 0 168 -26t119 -70t70.5 -103t23.5 -127q0 -139 -70.5 -229t-199.5 -133q109 -35 175 -123t66 -211q0 -102 -25.5 -189.5t-84 -152t-151.5 -101.5t-226 -37q-66 0 -132.5 12.5t-119.5 39.5l51 135q92 -41 205 -41 q164 0 234.5 88t70.5 242q0 117 -74.5 184.5t-218.5 67.5h-102l31 145h84q61 0 117.5 16.5t99.5 50t68.5 88t25.5 132.5q0 86 -50.5 143t-160.5 57q-129 0 -199.5 -67.5t-103.5 -222.5l-221 -1047h-174z" />
<glyph unicode="&#xe0;" horiz-adv-x="1101" d="M57 258q0 113 48.5 186.5t129 118.5t189 64.5t231.5 23.5l201 6l6 29q10 47 10 84q0 82 -48 132t-165 50q-129 0 -192.5 -34.5t-97.5 -126.5l-162 20q49 154 162.5 217.5t306.5 63.5q186 0 278.5 -84t92.5 -232q0 -63 -15 -123l-137 -653h-174l31 145q-74 -76 -162 -123 t-221 -47q-139 0 -225.5 75t-86.5 208zM242 268q0 -61 41 -104t133 -43q74 0 139.5 22.5t115.5 61.5t85 92t49 115l24 120l-176 -8q-119 -6 -197.5 -23.5t-126.5 -48t-67.5 -76.5t-19.5 -108zM483 1501h209l182 -291h-168z" />
<glyph unicode="&#xe1;" horiz-adv-x="1101" d="M57 258q0 113 48.5 186.5t129 118.5t189 64.5t231.5 23.5l201 6l6 29q10 47 10 84q0 82 -48 132t-165 50q-129 0 -192.5 -34.5t-97.5 -126.5l-162 20q49 154 162.5 217.5t306.5 63.5q186 0 278.5 -84t92.5 -232q0 -63 -15 -123l-137 -653h-174l31 145q-74 -76 -162 -123 t-221 -47q-139 0 -225.5 75t-86.5 208zM242 268q0 -61 41 -104t133 -43q74 0 139.5 22.5t115.5 61.5t85 92t49 115l24 120l-176 -8q-119 -6 -197.5 -23.5t-126.5 -48t-67.5 -76.5t-19.5 -108zM549 1210l286 291h228l-328 -291h-186z" />
<glyph unicode="&#xe2;" horiz-adv-x="1101" d="M57 258q0 113 48.5 186.5t129 118.5t189 64.5t231.5 23.5l201 6l6 29q10 47 10 84q0 82 -48 132t-165 50q-129 0 -192.5 -34.5t-97.5 -126.5l-162 20q49 154 162.5 217.5t306.5 63.5q186 0 278.5 -84t92.5 -232q0 -63 -15 -123l-137 -653h-174l31 145q-74 -76 -162 -123 t-221 -47q-139 0 -225.5 75t-86.5 208zM242 268q0 -61 41 -104t133 -43q74 0 139.5 22.5t115.5 61.5t85 92t49 115l24 120l-176 -8q-119 -6 -197.5 -23.5t-126.5 -48t-67.5 -76.5t-19.5 -108zM370 1210l293 291h178l179 -291h-164l-117 181l-201 -181h-168z" />
<glyph unicode="&#xe3;" horiz-adv-x="1101" d="M57 258q0 113 48.5 186.5t129 118.5t189 64.5t231.5 23.5l201 6l6 29q10 47 10 84q0 82 -48 132t-165 50q-129 0 -192.5 -34.5t-97.5 -126.5l-162 20q49 154 162.5 217.5t306.5 63.5q186 0 278.5 -84t92.5 -232q0 -63 -15 -123l-137 -653h-174l31 145q-74 -76 -162 -123 t-221 -47q-139 0 -225.5 75t-86.5 208zM242 268q0 -61 41 -104t133 -43q74 0 139.5 22.5t115.5 61.5t85 92t49 115l24 120l-176 -8q-119 -6 -197.5 -23.5t-126.5 -48t-67.5 -76.5t-19.5 -108zM346 1239q27 240 225 240q45 0 81 -16.5t67.5 -37t60 -37t59.5 -16.5 q49 0 73 22.5t34 78.5h131q-27 -240 -225 -240q-47 0 -83 17.5t-66.5 37t-58.5 36.5t-58 17q-49 0 -73 -23.5t-34 -78.5h-133z" />
<glyph unicode="&#xe4;" horiz-adv-x="1101" d="M57 258q0 113 48.5 186.5t129 118.5t189 64.5t231.5 23.5l201 6l6 29q10 47 10 84q0 82 -48 132t-165 50q-129 0 -192.5 -34.5t-97.5 -126.5l-162 20q49 154 162.5 217.5t306.5 63.5q186 0 278.5 -84t92.5 -232q0 -63 -15 -123l-137 -653h-174l31 145q-74 -76 -162 -123 t-221 -47q-139 0 -225.5 75t-86.5 208zM242 268q0 -61 41 -104t133 -43q74 0 139.5 22.5t115.5 61.5t85 92t49 115l24 120l-176 -8q-119 -6 -197.5 -23.5t-126.5 -48t-67.5 -76.5t-19.5 -108zM434 1260l41 202h182l-43 -202h-180zM792 1260l41 202h182l-43 -202h-180z" />
<glyph unicode="&#xe5;" horiz-adv-x="1101" d="M57 258q0 113 48.5 186.5t129 118.5t189 64.5t231.5 23.5l201 6l6 29q10 47 10 84q0 82 -48 132t-165 50q-129 0 -192.5 -34.5t-97.5 -126.5l-162 20q49 154 162.5 217.5t306.5 63.5q186 0 278.5 -84t92.5 -232q0 -63 -15 -123l-137 -653h-174l31 145q-74 -76 -162 -123 t-221 -47q-139 0 -225.5 75t-86.5 208zM242 268q0 -61 41 -104t133 -43q74 0 139.5 22.5t115.5 61.5t85 92t49 115l24 120l-176 -8q-119 -6 -197.5 -23.5t-126.5 -48t-67.5 -76.5t-19.5 -108zM503 1411q0 51 17.5 90t46.5 65.5t65.5 40t77.5 13.5t79 -13.5t67.5 -40 t47 -65.5t17.5 -90t-17.5 -90t-47 -64.5t-67.5 -38t-79 -12.5t-77.5 12.5t-65.5 38t-46.5 64.5t-17.5 90zM614 1411q0 -53 26.5 -78.5t69.5 -25.5q47 0 73 25.5t26 78.5q0 55 -26 81t-73 26q-43 0 -69.5 -26t-26.5 -81z" />
<glyph unicode="&#xe6;" horiz-adv-x="1826" d="M57 258q0 113 46.5 186.5t126 118.5t185 64.5t222.5 23.5l205 6l6 29q6 33 6 92q0 70 -48 122t-157 52q-59 0 -104 -8t-78 -26.5t-56.5 -49t-41.5 -77.5l-164 20q51 154 162.5 217.5t291.5 63.5q252 0 320 -187q72 90 167 138.5t230 48.5q98 0 173 -31t125 -85t76 -128 t26 -160q0 -35 -2 -78t-11 -84l-8 -41h-774q-2 -16 -2 -31.5v-33.5q0 -66 17.5 -122t51 -97t86 -65.5t123.5 -24.5q127 0 188.5 49t90.5 137h174q-23 -78 -59.5 -138.5t-93 -103.5t-133 -65.5t-181.5 -22.5q-84 0 -147.5 19.5t-110.5 53.5t-80 79t-53 94q-43 -59 -90 -104.5 t-102.5 -75t-123 -44t-149.5 -14.5q-154 0 -242 75t-88 208zM242 268q0 -61 41 -104t139 -43q88 0 151.5 22.5t107.5 62.5t70.5 93t39.5 113l24 120l-178 -8q-115 -6 -190.5 -23.5t-121.5 -48t-64.5 -76.5t-18.5 -108zM999 618h598q2 16 3.5 34t1.5 36q0 53 -14.5 101.5 t-44.5 85t-76 58t-107 21.5q-133 0 -228.5 -81.5t-132.5 -254.5z" />
<glyph unicode="&#xe7;" horiz-adv-x="1144" d="M125 412q0 164 47 290.5t128 212.5t188.5 131.5t228.5 45.5q100 0 174 -29t122 -78t73.5 -115.5t31.5 -140.5l-176 -27q-6 47 -18.5 91.5t-40 78t-70.5 53t-111 19.5q-86 0 -157.5 -37t-122.5 -105.5t-80 -165.5t-29 -216q0 -66 15.5 -121t47.5 -96t82 -64.5t122 -23.5 q133 0 204.5 66.5t100.5 170.5h182q-45 -170 -155.5 -271t-311.5 -112l-39 -73q92 -14 126 -55.5t34 -84.5q0 -104 -76 -143t-194 -39q-29 0 -62 4t-67 10l20 109q35 -8 60.5 -10t54.5 -2q61 0 92 15t31 56q0 29 -31 46.5t-105 17.5h-41l82 153q-88 12 -154.5 49 t-112.5 95.5t-69.5 133.5t-23.5 161z" />
<glyph unicode="&#xe8;" horiz-adv-x="1167" d="M125 420q0 162 45 286.5t123 211t185.5 130.5t230.5 44q100 0 176 -31t127 -85t77.5 -128t26.5 -160q0 -35 -2 -80t-12 -88l-8 -35h-791q-2 -18 -2 -37.5v-37.5q0 -59 18.5 -113.5t54.5 -95.5t90 -65.5t128 -24.5q127 0 190.5 48t94.5 138h174q-23 -76 -61 -137.5 t-94 -104.5t-135 -65.5t-186 -22.5q-109 0 -191.5 36t-141 97.5t-88 143.5t-29.5 176zM326 618h612q2 16 3 34t1 36q0 53 -15.5 101.5t-46 85t-78 58t-110.5 21.5q-135 0 -231 -81.5t-135 -254.5zM510 1501h209l182 -291h-168z" />
<glyph unicode="&#xe9;" horiz-adv-x="1167" d="M125 420q0 162 45 286.5t123 211t185.5 130.5t230.5 44q100 0 176 -31t127 -85t77.5 -128t26.5 -160q0 -35 -2 -80t-12 -88l-8 -35h-791q-2 -18 -2 -37.5v-37.5q0 -59 18.5 -113.5t54.5 -95.5t90 -65.5t128 -24.5q127 0 190.5 48t94.5 138h174q-23 -76 -61 -137.5 t-94 -104.5t-135 -65.5t-186 -22.5q-109 0 -191.5 36t-141 97.5t-88 143.5t-29.5 176zM326 618h612q2 16 3 34t1 36q0 53 -15.5 101.5t-46 85t-78 58t-110.5 21.5q-135 0 -231 -81.5t-135 -254.5zM574 1210l286 291h228l-328 -291h-186z" />
<glyph unicode="&#xea;" horiz-adv-x="1167" d="M125 420q0 162 45 286.5t123 211t185.5 130.5t230.5 44q100 0 176 -31t127 -85t77.5 -128t26.5 -160q0 -35 -2 -80t-12 -88l-8 -35h-791q-2 -18 -2 -37.5v-37.5q0 -59 18.5 -113.5t54.5 -95.5t90 -65.5t128 -24.5q127 0 190.5 48t94.5 138h174q-23 -76 -61 -137.5 t-94 -104.5t-135 -65.5t-186 -22.5q-109 0 -191.5 36t-141 97.5t-88 143.5t-29.5 176zM326 618h612q2 16 3 34t1 36q0 53 -15.5 101.5t-46 85t-78 58t-110.5 21.5q-135 0 -231 -81.5t-135 -254.5zM407 1210l293 291h178l179 -291h-164l-117 181l-201 -181h-168z" />
<glyph unicode="&#xeb;" horiz-adv-x="1167" d="M125 420q0 162 45 286.5t123 211t185.5 130.5t230.5 44q100 0 176 -31t127 -85t77.5 -128t26.5 -160q0 -35 -2 -80t-12 -88l-8 -35h-791q-2 -18 -2 -37.5v-37.5q0 -59 18.5 -113.5t54.5 -95.5t90 -65.5t128 -24.5q127 0 190.5 48t94.5 138h174q-23 -76 -61 -137.5 t-94 -104.5t-135 -65.5t-186 -22.5q-109 0 -191.5 36t-141 97.5t-88 143.5t-29.5 176zM326 618h612q2 16 3 34t1 36q0 53 -15.5 101.5t-46 85t-78 58t-110.5 21.5q-135 0 -231 -81.5t-135 -254.5zM463 1260l41 202h182l-43 -202h-180zM821 1260l41 202h182l-43 -202h-180z " />
<glyph unicode="&#xec;" horiz-adv-x="462" d="M68 0l225 1059h178l-225 -1059h-178zM113 1501h209l182 -291h-168z" />
<glyph unicode="&#xed;" horiz-adv-x="462" d="M68 0l225 1059h178l-225 -1059h-178zM275 1210l286 291h228l-328 -291h-186z" />
<glyph unicode="&#xee;" horiz-adv-x="462" d="M68 0l225 1059h178l-225 -1059h-178zM69 1210l293 291h178l179 -291h-164l-117 181l-201 -181h-168z" />
<glyph unicode="&#xef;" horiz-adv-x="462" d="M68 0l225 1059h178l-225 -1059h-178zM127 1260l41 202h182l-43 -202h-180zM485 1260l41 202h182l-43 -202h-180z" />
<glyph unicode="&#xf0;" horiz-adv-x="1230" d="M121 395q0 137 45 250t122 193t178 124t214 44q104 0 183 -36t132 -102q-10 131 -57 221.5t-125 149.5l-156 -135l-77 86l122 108q-100 43 -225 56l41 137q92 -10 165 -33.5t138 -56.5l166 145l80 -88l-143 -123q139 -111 198.5 -276.5t59.5 -364.5q0 -172 -43 -307 t-122 -228t-191.5 -142.5t-252.5 -49.5q-104 0 -187 35t-142.5 93.5t-91 136t-31.5 163.5zM307 410q0 -61 17.5 -114.5t53.5 -93.5t88 -63.5t122 -23.5q92 0 164.5 35.5t125 98t80 148.5t27.5 187q0 59 -18.5 109t-65.5 91q-80 74 -217 74q-92 0 -161.5 -37t-118 -99.5 t-73 -143t-24.5 -168.5z" />
<glyph unicode="&#xf1;" horiz-adv-x="1167" d="M63 0l224 1059h176l-35 -160q92 104 191.5 148.5t195.5 44.5q147 0 225 -80t78 -224q0 -55 -12 -116l-143 -672h-179l138 649q6 27 10 52.5t4 50.5q0 86 -41 136t-133 50q-119 0 -232 -86q-55 -43 -97 -95t-58 -130l-133 -627h-179zM424 1239q27 240 225 240 q45 0 81 -16.5t67.5 -37t60 -37t59.5 -16.5q49 0 73 22.5t34 78.5h131q-27 -240 -225 -240q-47 0 -83 17.5t-66.5 37t-58.5 36.5t-58 17q-49 0 -73 -23.5t-34 -78.5h-133z" />
<glyph unicode="&#xf2;" horiz-adv-x="1230" d="M125 410q0 160 48 285.5t132 213.5t195.5 135.5t240.5 47.5q98 0 179 -33t138.5 -91.5t89.5 -140.5t32 -178q0 -160 -46.5 -286.5t-129 -214t-195.5 -134.5t-244 -47q-98 0 -179 33t-139.5 92.5t-90 140t-31.5 177.5zM313 418q0 -137 68 -220t197 -83q92 0 167.5 39 t130 108.5t85 165.5t30.5 213q0 137 -66.5 220t-195.5 83q-92 0 -168 -39t-131 -108.5t-86 -165.5t-31 -213zM530 1501h209l182 -291h-168z" />
<glyph unicode="&#xf3;" horiz-adv-x="1230" d="M125 410q0 160 48 285.5t132 213.5t195.5 135.5t240.5 47.5q98 0 179 -33t138.5 -91.5t89.5 -140.5t32 -178q0 -160 -46.5 -286.5t-129 -214t-195.5 -134.5t-244 -47q-98 0 -179 33t-139.5 92.5t-90 140t-31.5 177.5zM313 418q0 -137 68 -220t197 -83q92 0 167.5 39 t130 108.5t85 165.5t30.5 213q0 137 -66.5 220t-195.5 83q-92 0 -168 -39t-131 -108.5t-86 -165.5t-31 -213zM611 1210l286 291h228l-328 -291h-186z" />
<glyph unicode="&#xf4;" horiz-adv-x="1230" d="M125 410q0 160 48 285.5t132 213.5t195.5 135.5t240.5 47.5q98 0 179 -33t138.5 -91.5t89.5 -140.5t32 -178q0 -160 -46.5 -286.5t-129 -214t-195.5 -134.5t-244 -47q-98 0 -179 33t-139.5 92.5t-90 140t-31.5 177.5zM313 418q0 -137 68 -220t197 -83q92 0 167.5 39 t130 108.5t85 165.5t30.5 213q0 137 -66.5 220t-195.5 83q-92 0 -168 -39t-131 -108.5t-86 -165.5t-31 -213zM436 1210l293 291h178l179 -291h-164l-117 181l-201 -181h-168z" />
<glyph unicode="&#xf5;" horiz-adv-x="1230" d="M125 410q0 160 48 285.5t132 213.5t195.5 135.5t240.5 47.5q98 0 179 -33t138.5 -91.5t89.5 -140.5t32 -178q0 -160 -46.5 -286.5t-129 -214t-195.5 -134.5t-244 -47q-98 0 -179 33t-139.5 92.5t-90 140t-31.5 177.5zM313 418q0 -137 68 -220t197 -83q92 0 167.5 39 t130 108.5t85 165.5t30.5 213q0 137 -66.5 220t-195.5 83q-92 0 -168 -39t-131 -108.5t-86 -165.5t-31 -213zM414 1239q27 240 225 240q45 0 81 -16.5t67.5 -37t60 -37t59.5 -16.5q49 0 73 22.5t34 78.5h131q-27 -240 -225 -240q-47 0 -83 17.5t-66.5 37t-58.5 36.5t-58 17 q-49 0 -73 -23.5t-34 -78.5h-133z" />
<glyph unicode="&#xf6;" horiz-adv-x="1230" d="M125 410q0 160 48 285.5t132 213.5t195.5 135.5t240.5 47.5q98 0 179 -33t138.5 -91.5t89.5 -140.5t32 -178q0 -160 -46.5 -286.5t-129 -214t-195.5 -134.5t-244 -47q-98 0 -179 33t-139.5 92.5t-90 140t-31.5 177.5zM313 418q0 -137 68 -220t197 -83q92 0 167.5 39 t130 108.5t85 165.5t30.5 213q0 137 -66.5 220t-195.5 83q-92 0 -168 -39t-131 -108.5t-86 -165.5t-31 -213zM496 1260l41 202h182l-43 -202h-180zM854 1260l41 202h182l-43 -202h-180z" />
<glyph unicode="&#xf7;" d="M219 616l35 162h885l-35 -162h-885zM487 219l48 219h190l-47 -219h-191zM643 956l47 220h191l-47 -220h-191z" />
<glyph unicode="&#xf8;" horiz-adv-x="1230" d="M94 -18l125 141q-94 117 -94 287q0 160 48 285.5t132 213.5t195.5 135.5t240.5 47.5q76 0 140.5 -20.5t117.5 -55.5l115 129l90 -76l-117 -133q92 -117 93 -287q0 -160 -46.5 -286.5t-129 -214t-195.5 -134.5t-244 -47q-76 0 -141.5 20.5t-118.5 55.5l-121 -139zM313 418 q0 -86 29 -154l549 627q-64 53 -162 53q-92 0 -168 -39t-131 -108.5t-86 -165.5t-31 -213zM414 166q63 -51 164 -51q92 0 167.5 39t130 108.5t85 165.5t30.5 213q0 84 -28 154z" />
<glyph unicode="&#xf9;" horiz-adv-x="1148" d="M121 266q0 29 4 59.5t10 63.5l144 670h178l-140 -658q-10 -51 -10 -102q0 -76 36 -127t128 -51q115 0 221 88q53 43 96 95t60 132l133 623h178l-225 -1059h-174l35 162q-92 -104 -186.5 -149.5t-190.5 -45.5q-150 0 -223.5 83t-73.5 216zM475 1501h209l182 -291h-168z " />
<glyph unicode="&#xfa;" horiz-adv-x="1148" d="M121 266q0 29 4 59.5t10 63.5l144 670h178l-140 -658q-10 -51 -10 -102q0 -76 36 -127t128 -51q115 0 221 88q53 43 96 95t60 132l133 623h178l-225 -1059h-174l35 162q-92 -104 -186.5 -149.5t-190.5 -45.5q-150 0 -223.5 83t-73.5 216zM578 1210l286 291h228l-328 -291 h-186z" />
<glyph unicode="&#xfb;" horiz-adv-x="1148" d="M121 266q0 29 4 59.5t10 63.5l144 670h178l-140 -658q-10 -51 -10 -102q0 -76 36 -127t128 -51q115 0 221 88q53 43 96 95t60 132l133 623h178l-225 -1059h-174l35 162q-92 -104 -186.5 -149.5t-190.5 -45.5q-150 0 -223.5 83t-73.5 216zM409 1210l293 291h178l179 -291 h-164l-117 181l-201 -181h-168z" />
<glyph unicode="&#xfc;" horiz-adv-x="1148" d="M121 266q0 29 4 59.5t10 63.5l144 670h178l-140 -658q-10 -51 -10 -102q0 -76 36 -127t128 -51q115 0 221 88q53 43 96 95t60 132l133 623h178l-225 -1059h-174l35 162q-92 -104 -186.5 -149.5t-190.5 -45.5q-150 0 -223.5 83t-73.5 216zM463 1260l41 202h182l-43 -202 h-180zM821 1260l41 202h182l-43 -202h-180z" />
<glyph unicode="&#xfd;" horiz-adv-x="1071" d="M-35 -365l51 138q23 -8 48.5 -14.5t58.5 -6.5t57.5 8.5t46 27.5t42 50t48.5 76l70 115l-231 1030h196l162 -832l477 832h207l-709 -1159q-45 -72 -81.5 -127.5t-76.5 -93t-88 -57t-112 -19.5q-49 0 -90 8t-76 24zM523 1210l286 291h228l-328 -291h-186z" />
<glyph unicode="&#xfe;" horiz-adv-x="1222" d="M-23 -397l396 1859h178l-117 -551q72 86 163 133.5t204 47.5q100 0 170.5 -38t116 -100.5t66 -143.5t20.5 -167q0 -129 -38 -251t-110 -216t-174 -151.5t-231 -57.5q-113 0 -201 46t-146 145l-118 -555h-179zM326 375q0 -121 75.5 -190.5t198.5 -69.5q88 0 159.5 43 t122 115.5t77 168t26.5 197.5q0 150 -61.5 227.5t-169.5 77.5q-66 0 -129.5 -27.5t-116.5 -74.5t-92 -113.5t-56 -142.5l-18 -84q-16 -76 -16 -127z" />
<glyph unicode="&#xff;" horiz-adv-x="1071" d="M-35 -365l51 138q23 -8 48.5 -14.5t58.5 -6.5t57.5 8.5t46 27.5t42 50t48.5 76l70 115l-231 1030h196l162 -832l477 832h207l-709 -1159q-45 -72 -81.5 -127.5t-76.5 -93t-88 -57t-112 -19.5q-49 0 -90 8t-76 24zM414 1260l41 202h182l-43 -202h-180zM772 1260l41 202 h182l-43 -202h-180z" />
<glyph unicode="&#x100;" horiz-adv-x="1380" d="M-51 0l878 1462h197l258 -1462h-195l-69 408h-625l-239 -408h-205zM483 571h512l-114 678zM643 1628l33 152h598l-33 -152h-598z" />
<glyph unicode="&#x101;" horiz-adv-x="1101" d="M57 258q0 113 48.5 186.5t129 118.5t189 64.5t231.5 23.5l201 6l6 29q10 47 10 84q0 82 -48 132t-165 50q-129 0 -192.5 -34.5t-97.5 -126.5l-162 20q49 154 162.5 217.5t306.5 63.5q186 0 278.5 -84t92.5 -232q0 -63 -15 -123l-137 -653h-174l31 145q-74 -76 -162 -123 t-221 -47q-139 0 -225.5 75t-86.5 208zM242 268q0 -61 41 -104t133 -43q74 0 139.5 22.5t115.5 61.5t85 92t49 115l24 120l-176 -8q-119 -6 -197.5 -23.5t-126.5 -48t-67.5 -76.5t-19.5 -108zM428 1274l31 145h534l-31 -145h-534z" />
<glyph unicode="&#x102;" horiz-adv-x="1380" d="M-51 0l878 1462h197l258 -1462h-195l-69 408h-625l-239 -408h-205zM483 571h512l-114 678zM694 1798q0 29 6 70h138q-6 -25 -6 -49q0 -57 32.5 -86t85.5 -29q66 0 113 36t61 128h140q-27 -147 -105 -216t-219 -69q-113 0 -179.5 55.5t-66.5 159.5z" />
<glyph unicode="&#x103;" horiz-adv-x="1101" d="M57 258q0 113 48.5 186.5t129 118.5t189 64.5t231.5 23.5l201 6l6 29q10 47 10 84q0 82 -48 132t-165 50q-129 0 -192.5 -34.5t-97.5 -126.5l-162 20q49 154 162.5 217.5t306.5 63.5q186 0 278.5 -84t92.5 -232q0 -63 -15 -123l-137 -653h-174l31 145q-74 -76 -162 -123 t-221 -47q-139 0 -225.5 75t-86.5 208zM242 268q0 -61 41 -104t133 -43q74 0 139.5 22.5t115.5 61.5t85 92t49 115l24 120l-176 -8q-119 -6 -197.5 -23.5t-126.5 -48t-67.5 -76.5t-19.5 -108zM467 1423q0 33 6 70h135q-6 -29 -6 -47q0 -59 32.5 -89t86.5 -30q66 0 111.5 37 t62.5 129h137q-27 -150 -107 -217.5t-215 -67.5q-113 0 -178 57.5t-65 157.5z" />
<glyph unicode="&#x104;" horiz-adv-x="1380" d="M-51 0l878 1462h197l258 -1462q-78 -49 -125 -95t-47 -93q0 -33 22.5 -49.5t57.5 -16.5q14 0 27.5 1t27.5 3l-26 -125q-35 -6 -76 -6q-80 0 -138.5 38t-58.5 110q0 70 40 125t130 108h-29l-69 408h-625l-239 -408h-205zM483 571h512l-114 678z" />
<glyph unicode="&#x105;" horiz-adv-x="1101" d="M57 258q0 113 48.5 186.5t129 118.5t189 64.5t231.5 23.5l201 6l6 29q10 47 10 84q0 82 -48 132t-165 50q-129 0 -192.5 -34.5t-97.5 -126.5l-162 20q49 154 162.5 217.5t306.5 63.5q186 0 278.5 -84t92.5 -232q0 -63 -15 -123l-137 -653q-78 -49 -123 -92t-45 -90 q0 -33 22.5 -48.5t57.5 -15.5q12 0 25.5 1t27.5 3l-26 -123q-16 -2 -34 -3t-40 -1q-78 0 -133.5 35t-55.5 107q0 66 41 120t127 107h-18l31 145q-74 -76 -162 -123t-221 -47q-139 0 -225.5 75t-86.5 208zM242 268q0 -61 41 -104t133 -43q74 0 139.5 22.5t115.5 61.5t85 92 t49 115l24 120l-176 -8q-119 -6 -197.5 -23.5t-126.5 -48t-67.5 -76.5t-19.5 -108z" />
<glyph unicode="&#x106;" horiz-adv-x="1454" d="M170 584q0 182 52 348t151.5 292t243 200.5t323.5 74.5q250 0 381 -130t152 -355l-189 -31q-23 176 -102.5 264t-251.5 88q-129 0 -232.5 -58t-177.5 -158.5t-112.5 -234.5t-38.5 -284q0 -98 23.5 -184t72.5 -150.5t123 -101.5t174 -37q190 0 293.5 94t138.5 248h205 q-25 -111 -75 -204t-129 -159.5t-189.5 -104.5t-255.5 -38q-135 0 -243 45t-182.5 126t-114.5 195.5t-40 254.5zM826 1583l289 277h231l-336 -277h-184z" />
<glyph unicode="&#x107;" horiz-adv-x="1144" d="M125 412q0 164 47 290.5t128 212.5t188.5 131.5t228.5 45.5q100 0 174 -29t122 -78t73.5 -115.5t31.5 -140.5l-176 -27q-6 47 -18.5 91.5t-40 78t-70.5 53t-111 19.5q-86 0 -157.5 -37t-122.5 -105.5t-80 -165.5t-29 -216q0 -66 15.5 -121t47.5 -96t82 -64.5t122 -23.5 q133 0 204.5 66.5t100.5 170.5h182q-23 -88 -63.5 -159.5t-103 -122t-146.5 -77t-193 -26.5q-104 0 -186 34t-137.5 94.5t-84 141t-28.5 175.5zM584 1210l286 291h228l-328 -291h-186z" />
<glyph unicode="&#x108;" horiz-adv-x="1454" d="M170 584q0 182 52 348t151.5 292t243 200.5t323.5 74.5q250 0 381 -130t152 -355l-189 -31q-23 176 -102.5 264t-251.5 88q-129 0 -232.5 -58t-177.5 -158.5t-112.5 -234.5t-38.5 -284q0 -98 23.5 -184t72.5 -150.5t123 -101.5t174 -37q190 0 293.5 94t138.5 248h205 q-25 -111 -75 -204t-129 -159.5t-189.5 -104.5t-255.5 -38q-135 0 -243 45t-182.5 126t-114.5 195.5t-40 254.5zM643 1583l291 277h178l180 -277h-166l-117 162l-198 -162h-168z" />
<glyph unicode="&#x109;" horiz-adv-x="1144" d="M125 412q0 164 47 290.5t128 212.5t188.5 131.5t228.5 45.5q100 0 174 -29t122 -78t73.5 -115.5t31.5 -140.5l-176 -27q-6 47 -18.5 91.5t-40 78t-70.5 53t-111 19.5q-86 0 -157.5 -37t-122.5 -105.5t-80 -165.5t-29 -216q0 -66 15.5 -121t47.5 -96t82 -64.5t122 -23.5 q133 0 204.5 66.5t100.5 170.5h182q-23 -88 -63.5 -159.5t-103 -122t-146.5 -77t-193 -26.5q-104 0 -186 34t-137.5 94.5t-84 141t-28.5 175.5zM419 1210l293 291h178l179 -291h-164l-117 181l-201 -181h-168z" />
<glyph unicode="&#x10a;" horiz-adv-x="1454" d="M170 584q0 182 52 348t151.5 292t243 200.5t323.5 74.5q250 0 381 -130t152 -355l-189 -31q-23 176 -102.5 264t-251.5 88q-129 0 -232.5 -58t-177.5 -158.5t-112.5 -234.5t-38.5 -284q0 -98 23.5 -184t72.5 -150.5t123 -101.5t174 -37q190 0 293.5 94t138.5 248h205 q-25 -111 -75 -204t-129 -159.5t-189.5 -104.5t-255.5 -38q-135 0 -243 45t-182.5 126t-114.5 195.5t-40 254.5zM874 1616l47 215h191l-45 -215h-193z" />
<glyph unicode="&#x10b;" horiz-adv-x="1144" d="M125 412q0 164 47 290.5t128 212.5t188.5 131.5t228.5 45.5q100 0 174 -29t122 -78t73.5 -115.5t31.5 -140.5l-176 -27q-6 47 -18.5 91.5t-40 78t-70.5 53t-111 19.5q-86 0 -157.5 -37t-122.5 -105.5t-80 -165.5t-29 -216q0 -66 15.5 -121t47.5 -96t82 -64.5t122 -23.5 q133 0 204.5 66.5t100.5 170.5h182q-23 -88 -63.5 -159.5t-103 -122t-146.5 -77t-193 -26.5q-104 0 -186 34t-137.5 94.5t-84 141t-28.5 175.5zM645 1257l45 207h182l-43 -207h-184z" />
<glyph unicode="&#x10c;" horiz-adv-x="1454" d="M170 584q0 182 52 348t151.5 292t243 200.5t323.5 74.5q250 0 381 -130t152 -355l-189 -31q-23 176 -102.5 264t-251.5 88q-129 0 -232.5 -58t-177.5 -158.5t-112.5 -234.5t-38.5 -284q0 -98 23.5 -184t72.5 -150.5t123 -101.5t174 -37q190 0 293.5 94t138.5 248h205 q-25 -111 -75 -204t-129 -159.5t-189.5 -104.5t-255.5 -38q-135 0 -243 45t-182.5 126t-114.5 195.5t-40 254.5zM705 1866h166l118 -162l197 162h168l-291 -275h-178z" />
<glyph unicode="&#x10d;" horiz-adv-x="1144" d="M125 412q0 164 47 290.5t128 212.5t188.5 131.5t228.5 45.5q100 0 174 -29t122 -78t73.5 -115.5t31.5 -140.5l-176 -27q-6 47 -18.5 91.5t-40 78t-70.5 53t-111 19.5q-86 0 -157.5 -37t-122.5 -105.5t-80 -165.5t-29 -216q0 -66 15.5 -121t47.5 -96t82 -64.5t122 -23.5 q133 0 204.5 66.5t100.5 170.5h182q-23 -88 -63.5 -159.5t-103 -122t-146.5 -77t-193 -26.5q-104 0 -186 34t-137.5 94.5t-84 141t-28.5 175.5zM473 1503h164l119 -178l201 178h168l-295 -289h-178z" />
<glyph unicode="&#x10e;" horiz-adv-x="1462" d="M86 0l309 1462h475q133 0 241 -44t182.5 -122.5t115.5 -187.5t41 -236q0 -190 -54.5 -350t-165 -275.5t-277.5 -181t-392 -65.5h-475zM309 164h279q166 0 291 50t207.5 143.5t124.5 224.5t42 290q0 88 -24.5 166t-74.5 136.5t-126 92t-176 33.5h-301zM576 1866h166 l118 -162l197 162h168l-291 -275h-178z" />
<glyph unicode="&#x10f;" horiz-adv-x="1220" d="M119 416q0 129 39 250.5t111.5 216t176 152t232.5 57.5q109 0 197 -46.5t145 -144.5l119 561h178l-311 -1462h-175l29 147q-72 -92 -158 -136t-196 -44q-102 0 -175 38t-120 100.5t-69.5 143.5t-22.5 167zM307 420q0 -141 63.5 -222t182.5 -81q72 0 135.5 29.5 t112.5 79.5t84 115t49 136l18 84q14 66 15 127q0 102 -72 178q-35 37 -85 57.5t-118 20.5q-88 0 -159.5 -42t-122 -113.5t-77 -167t-26.5 -201.5zM1364 1044l143 418h179l-181 -418h-141z" />
<glyph unicode="&#x110;" horiz-adv-x="1488" d="M90 676l35 160h164l133 626h475q133 0 240.5 -44t182.5 -122.5t116 -187.5t41 -236q0 -190 -54.5 -350t-165 -275.5t-277.5 -181t-392 -65.5h-475l143 676h-166zM336 164h278q166 0 291 50t208 143.5t125 224.5t42 290q0 88 -24.5 166t-75 136.5t-126 92t-175.5 33.5 h-301l-101 -464h375l-35 -160h-373z" />
<glyph unicode="&#x111;" horiz-adv-x="1239" d="M119 397q0 125 40 242t112.5 207t176 144t230.5 54q109 0 191.5 -45t140.5 -143l69 326h-346l29 129h344l33 151h178l-33 -151h143l-28 -129h-142l-251 -1182h-175l29 147q-78 -92 -160 -136t-194 -44q-100 0 -173 37t-121 98.5t-70.5 138t-22.5 156.5zM307 399 q0 -123 63.5 -202.5t182.5 -79.5q70 0 131 28.5t111.5 77.5t85 111.5t51.5 130.5l14 63q8 35 12.5 66t4.5 59q-2 98 -68 164q-35 37 -85 57.5t-118 20.5q-88 0 -159.5 -41t-122 -108.5t-77 -157.5t-26.5 -189z" />
<glyph unicode="&#x112;" horiz-adv-x="1216" d="M88 0l309 1462h946l-34 -166h-758l-98 -458h716l-34 -168h-717l-107 -504h799l-61 -166h-961zM590 1628l33 152h598l-33 -152h-598z" />
<glyph unicode="&#x113;" horiz-adv-x="1167" d="M125 420q0 162 45 286.5t123 211t185.5 130.5t230.5 44q100 0 176 -31t127 -85t77.5 -128t26.5 -160q0 -35 -2 -80t-12 -88l-8 -35h-791q-2 -18 -2 -37.5v-37.5q0 -59 18.5 -113.5t54.5 -95.5t90 -65.5t128 -24.5q127 0 190.5 48t94.5 138h174q-23 -76 -61 -137.5 t-94 -104.5t-135 -65.5t-186 -22.5q-109 0 -191.5 36t-141 97.5t-88 143.5t-29.5 176zM326 618h612q2 16 3 34t1 36q0 53 -15.5 101.5t-46 85t-78 58t-110.5 21.5q-135 0 -231 -81.5t-135 -254.5zM459 1274l31 145h534l-31 -145h-534z" />
<glyph unicode="&#x114;" horiz-adv-x="1216" d="M88 0l309 1462h946l-34 -166h-758l-98 -458h716l-34 -168h-717l-107 -504h799l-61 -166h-961zM637 1798q0 29 6 70h138q-6 -25 -6 -49q0 -57 32.5 -86t85.5 -29q66 0 113 36t61 128h140q-27 -147 -105 -216t-219 -69q-113 0 -179.5 55.5t-66.5 159.5z" />
<glyph unicode="&#x115;" horiz-adv-x="1167" d="M125 420q0 162 45 286.5t123 211t185.5 130.5t230.5 44q100 0 176 -31t127 -85t77.5 -128t26.5 -160q0 -35 -2 -80t-12 -88l-8 -35h-791q-2 -18 -2 -37.5v-37.5q0 -59 18.5 -113.5t54.5 -95.5t90 -65.5t128 -24.5q127 0 190.5 48t94.5 138h174q-23 -76 -61 -137.5 t-94 -104.5t-135 -65.5t-186 -22.5q-109 0 -191.5 36t-141 97.5t-88 143.5t-29.5 176zM326 618h612q2 16 3 34t1 36q0 53 -15.5 101.5t-46 85t-78 58t-110.5 21.5q-135 0 -231 -81.5t-135 -254.5zM492 1423q0 33 6 70h135q-6 -29 -6 -47q0 -59 32.5 -89t86.5 -30 q66 0 111.5 37t62.5 129h137q-27 -150 -107 -217.5t-215 -67.5q-113 0 -178 57.5t-65 157.5z" />
<glyph unicode="&#x116;" horiz-adv-x="1216" d="M88 0l309 1462h946l-34 -166h-758l-98 -458h716l-34 -168h-717l-107 -504h799l-61 -166h-961zM790 1616l47 215h191l-45 -215h-193z" />
<glyph unicode="&#x117;" horiz-adv-x="1167" d="M125 420q0 162 45 286.5t123 211t185.5 130.5t230.5 44q100 0 176 -31t127 -85t77.5 -128t26.5 -160q0 -35 -2 -80t-12 -88l-8 -35h-791q-2 -18 -2 -37.5v-37.5q0 -59 18.5 -113.5t54.5 -95.5t90 -65.5t128 -24.5q127 0 190.5 48t94.5 138h174q-23 -76 -61 -137.5 t-94 -104.5t-135 -65.5t-186 -22.5q-109 0 -191.5 36t-141 97.5t-88 143.5t-29.5 176zM326 618h612q2 16 3 34t1 36q0 53 -15.5 101.5t-46 85t-78 58t-110.5 21.5q-135 0 -231 -81.5t-135 -254.5zM639 1257l45 207h182l-43 -207h-184z" />
<glyph unicode="&#x118;" horiz-adv-x="1216" d="M88 0l309 1462h946l-34 -166h-758l-98 -458h716l-34 -168h-717l-107 -504h799l-61 -166q-78 -49 -125 -95t-47 -93q0 -33 22.5 -49.5t56.5 -16.5q14 0 27.5 1t28.5 3l-27 -125q-35 -6 -76 -6q-80 0 -138 38t-58 110q0 70 40 125t130 108h-795z" />
<glyph unicode="&#x119;" horiz-adv-x="1167" d="M125 420q0 162 45 286.5t123 211t185.5 130.5t230.5 44q100 0 176 -31t127 -85t77.5 -128t26.5 -160q0 -35 -2 -80t-12 -88l-8 -35h-791q-2 -18 -2 -37.5v-37.5q0 -59 18.5 -113.5t54.5 -95.5t90 -65.5t128 -24.5q127 0 190.5 48t94.5 138h174q-35 -111 -96.5 -186.5 t-170.5 -112.5q-78 -47 -120.5 -90t-42.5 -90q0 -33 22.5 -48.5t56.5 -15.5q12 0 25.5 1t28.5 3l-27 -123q-16 -2 -33.5 -3t-40.5 -1q-78 0 -133 35t-55 107q0 109 119 194h-9q-109 0 -191.5 36t-141 97.5t-88 143.5t-29.5 176zM326 618h612q4 23 5 48.5t-1 48.5 q-4 104 -66.5 171.5t-183.5 67.5q-135 0 -231 -81.5t-135 -254.5z" />
<glyph unicode="&#x11a;" horiz-adv-x="1216" d="M88 0l309 1462h946l-34 -166h-758l-98 -458h716l-34 -168h-717l-107 -504h799l-61 -166h-961zM617 1866h166l118 -162l197 162h168l-291 -275h-178z" />
<glyph unicode="&#x11b;" horiz-adv-x="1167" d="M125 420q0 162 45 286.5t123 211t185.5 130.5t230.5 44q100 0 176 -31t127 -85t77.5 -128t26.5 -160q0 -35 -2 -80t-12 -88l-8 -35h-791q-2 -18 -2 -37.5v-37.5q0 -59 18.5 -113.5t54.5 -95.5t90 -65.5t128 -24.5q127 0 190.5 48t94.5 138h174q-23 -76 -61 -137.5 t-94 -104.5t-135 -65.5t-186 -22.5q-109 0 -191.5 36t-141 97.5t-88 143.5t-29.5 176zM326 618h612q2 16 3 34t1 36q0 53 -15.5 101.5t-46 85t-78 58t-110.5 21.5q-135 0 -231 -81.5t-135 -254.5zM462 1503h164l119 -178l201 178h168l-295 -289h-178z" />
<glyph unicode="&#x11c;" horiz-adv-x="1466" d="M168 584q0 176 51 341t150.5 293t246 204.5t336.5 76.5q217 0 351.5 -107.5t164.5 -310.5l-184 -32q-27 147 -115 217.5t-233 70.5q-139 0 -244.5 -61.5t-178.5 -164.5t-109.5 -236.5t-36.5 -276.5q0 -96 24.5 -181t73.5 -149.5t123 -102.5t172 -38q147 0 237 34t150 75 l76 352h-371l37 164h547l-129 -602q-39 -35 -94.5 -69t-126 -59.5t-154.5 -42t-182 -16.5q-137 0 -245 46t-182.5 129t-114.5 197t-40 249zM645 1583l291 277h178l180 -277h-166l-117 162l-198 -162h-168z" />
<glyph unicode="&#x11d;" horiz-adv-x="1218" d="M45 -98h176q14 -96 72.5 -137t191.5 -41q166 0 246 93t117 269l20 102q-135 -168 -360 -168q-100 0 -172 36t-118 95.5t-67.5 136.5t-21.5 161q0 115 38 228.5t108.5 204.5t173 148t231.5 57q106 0 195.5 -44t148.5 -142l35 158h174l-189 -887q-29 -135 -64.5 -244.5 t-97 -186.5t-158.5 -119t-247 -42q-205 0 -315.5 78t-116.5 244zM317 449q0 -135 62.5 -208t173.5 -73q139 0 246.5 93t142.5 253q14 66 19.5 100.5t5.5 75.5q0 121 -76 187.5t-197 66.5q-90 0 -159.5 -42t-117.5 -111.5t-74 -158.5t-26 -183zM454 1210l293 291h178 l179 -291h-164l-117 181l-201 -181h-168z" />
<glyph unicode="&#x11e;" horiz-adv-x="1466" d="M168 584q0 176 51 341t150.5 293t246 204.5t336.5 76.5q217 0 351.5 -107.5t164.5 -310.5l-184 -32q-27 147 -115 217.5t-233 70.5q-139 0 -244.5 -61.5t-178.5 -164.5t-109.5 -236.5t-36.5 -276.5q0 -96 24.5 -181t73.5 -149.5t123 -102.5t172 -38q147 0 237 34t150 75 l76 352h-371l37 164h547l-129 -602q-39 -35 -94.5 -69t-126 -59.5t-154.5 -42t-182 -16.5q-137 0 -245 46t-182.5 129t-114.5 197t-40 249zM719 1798q0 29 6 70h138q-6 -25 -6 -49q0 -57 32.5 -86t85.5 -29q66 0 113 36t61 128h140q-27 -147 -105 -216t-219 -69 q-113 0 -179.5 55.5t-66.5 159.5z" />
<glyph unicode="&#x11f;" horiz-adv-x="1218" d="M45 -98h176q14 -96 72.5 -137t191.5 -41q166 0 246 93t117 269l20 102q-135 -168 -360 -168q-100 0 -172 36t-118 95.5t-67.5 136.5t-21.5 161q0 115 38 228.5t108.5 204.5t173 148t231.5 57q106 0 195.5 -44t148.5 -142l35 158h174l-189 -887q-29 -135 -64.5 -244.5 t-97 -186.5t-158.5 -119t-247 -42q-205 0 -315.5 78t-116.5 244zM317 449q0 -135 62.5 -208t173.5 -73q139 0 246.5 93t142.5 253q14 66 19.5 100.5t5.5 75.5q0 121 -76 187.5t-197 66.5q-90 0 -159.5 -42t-117.5 -111.5t-74 -158.5t-26 -183zM533 1423q0 33 6 70h135 q-6 -29 -6 -47q0 -59 32.5 -89t86.5 -30q66 0 111.5 37t62.5 129h137q-27 -150 -107 -217.5t-215 -67.5q-113 0 -178 57.5t-65 157.5z" />
<glyph unicode="&#x120;" horiz-adv-x="1466" d="M168 584q0 176 51 341t150.5 293t246 204.5t336.5 76.5q217 0 351.5 -107.5t164.5 -310.5l-184 -32q-27 147 -115 217.5t-233 70.5q-139 0 -244.5 -61.5t-178.5 -164.5t-109.5 -236.5t-36.5 -276.5q0 -96 24.5 -181t73.5 -149.5t123 -102.5t172 -38q147 0 237 34t150 75 l76 352h-371l37 164h547l-129 -602q-39 -35 -94.5 -69t-126 -59.5t-154.5 -42t-182 -16.5q-137 0 -245 46t-182.5 129t-114.5 197t-40 249zM872 1616l47 215h191l-45 -215h-193z" />
<glyph unicode="&#x121;" horiz-adv-x="1218" d="M45 -98h176q14 -96 72.5 -137t191.5 -41q166 0 246 93t117 269l20 102q-135 -168 -360 -168q-100 0 -172 36t-118 95.5t-67.5 136.5t-21.5 161q0 115 38 228.5t108.5 204.5t173 148t231.5 57q106 0 195.5 -44t148.5 -142l35 158h174l-189 -887q-29 -135 -64.5 -244.5 t-97 -186.5t-158.5 -119t-247 -42q-205 0 -315.5 78t-116.5 244zM317 449q0 -135 62.5 -208t173.5 -73q139 0 246.5 93t142.5 253q14 66 19.5 100.5t5.5 75.5q0 121 -76 187.5t-197 66.5q-90 0 -159.5 -42t-117.5 -111.5t-74 -158.5t-26 -183zM668 1257l45 207h182l-43 -207 h-184z" />
<glyph unicode="&#x122;" horiz-adv-x="1466" d="M168 584q0 176 51 341t150.5 293t246 204.5t336.5 76.5q217 0 351.5 -107.5t164.5 -310.5l-184 -32q-27 147 -115 217.5t-233 70.5q-139 0 -244.5 -61.5t-178.5 -164.5t-109.5 -236.5t-36.5 -276.5q0 -96 24.5 -181t73.5 -149.5t123 -102.5t172 -38q147 0 237 34t150 75 l76 352h-371l37 164h547l-129 -602q-39 -35 -94.5 -69t-126 -59.5t-154.5 -42t-182 -16.5q-137 0 -245 46t-182.5 129t-114.5 197t-40 249zM403 -444l219 307h215l-264 -307h-170z" />
<glyph unicode="&#x123;" horiz-adv-x="1218" d="M45 -98h176q14 -96 72.5 -137t191.5 -41q166 0 246 93t117 269l20 102q-135 -168 -360 -168q-100 0 -172 36t-118 95.5t-67.5 136.5t-21.5 161q0 115 38 228.5t108.5 204.5t173 148t231.5 57q106 0 195.5 -44t148.5 -142l35 158h174l-189 -887q-29 -135 -64.5 -244.5 t-97 -186.5t-158.5 -119t-247 -42q-205 0 -315.5 78t-116.5 244zM317 449q0 -135 62.5 -208t173.5 -73q139 0 246.5 93t142.5 253q14 66 19.5 100.5t5.5 75.5q0 121 -76 187.5t-197 66.5q-90 0 -159.5 -42t-117.5 -111.5t-74 -158.5t-26 -183zM663 1204l256 297h162 l-211 -297h-207z" />
<glyph unicode="&#x124;" horiz-adv-x="1439" d="M88 0l309 1462h189l-131 -618h737l131 618h188l-309 -1462h-188l141 668h-737l-142 -668h-188zM645 1583l291 277h178l180 -277h-166l-117 162l-198 -162h-168z" />
<glyph unicode="&#x125;" horiz-adv-x="1167" d="M63 0l310 1462h178l-119 -559q92 104 190.5 146.5t192.5 42.5q147 0 225 -80t78 -224q0 -55 -12 -116l-143 -672h-179l138 649q6 27 10 52.5t4 50.5q0 86 -41 136t-133 50q-119 0 -232 -86q-55 -45 -97 -96t-58 -129l-133 -627h-179zM406 1583l291 277h178l180 -277h-166 l-117 162l-198 -162h-168z" />
<glyph unicode="&#x126;" horiz-adv-x="1490" d="M113 0l225 1067h-164l33 158h164l51 237h188l-51 -237h737l52 237h188l-51 -237h168l-33 -158h-168l-225 -1067h-189l138 651h-738l-137 -651h-188zM475 827h737l52 240h-738z" />
<glyph unicode="&#x127;" horiz-adv-x="1185" d="M80 0l250 1182h-142l29 129h139l33 151h178l-32 -151h350l-29 -129h-348l-70 -326q92 104 190.5 146t192.5 42q147 0 225 -79.5t78 -223.5q0 -55 -12 -116l-133 -625h-178l127 602q6 27 10 52.5t4 50.5q0 86 -41 136t-133 50q-119 0 -231 -86q-55 -45 -97.5 -96.5 t-58.5 -128.5l-123 -580h-178z" />
<glyph unicode="&#x128;" horiz-adv-x="512" d="M88 0l309 1462h189l-310 -1462h-188zM147 1595q14 125 69.5 183.5t159.5 58.5q47 0 84 -16.5t70 -37t61.5 -36.5t59.5 -16q51 0 73.5 21.5t32.5 80.5h140q-16 -125 -71.5 -183.5t-158.5 -58.5q-47 0 -85 17.5t-69.5 37t-60 37t-59.5 17.5q-49 0 -73.5 -23.5t-35.5 -81.5 h-137z" />
<glyph unicode="&#x129;" horiz-adv-x="462" d="M41 1239q27 240 225 240q45 0 81 -16.5t67.5 -37t60 -37t59.5 -16.5q49 0 73 22.5t34 78.5h131q-27 -240 -225 -240q-47 0 -83 17.5t-66.5 37t-58.5 36.5t-58 17q-49 0 -73 -23.5t-34 -78.5h-133zM68 0l225 1059h178l-225 -1059h-178z" />
<glyph unicode="&#x12a;" horiz-adv-x="512" d="M88 0l309 1462h189l-310 -1462h-188zM209 1628l33 152h598l-33 -152h-598z" />
<glyph unicode="&#x12b;" horiz-adv-x="462" d="M68 0l225 1059h178l-225 -1059h-178zM131 1274l31 145h534l-31 -145h-534z" />
<glyph unicode="&#x12c;" horiz-adv-x="512" d="M88 0l309 1462h189l-310 -1462h-188zM262 1798q0 29 6 70h138q-6 -25 -6 -49q0 -57 32.5 -86t85.5 -29q66 0 113 36t61 128h140q-27 -147 -105 -216t-219 -69q-113 0 -179.5 55.5t-66.5 159.5z" />
<glyph unicode="&#x12d;" horiz-adv-x="462" d="M68 0l225 1059h178l-225 -1059h-178zM164 1423q0 33 6 70h135q-6 -29 -6 -47q0 -59 32.5 -89t86.5 -30q66 0 111.5 37t62.5 129h137q-27 -150 -107 -217.5t-215 -67.5q-113 0 -178 57.5t-65 157.5z" />
<glyph unicode="&#x12e;" horiz-adv-x="512" d="M-59 -233q0 70 39.5 125t130.5 108h-23l309 1462h189l-310 -1462q-78 -49 -125 -95t-47 -93q0 -33 23 -49.5t57 -16.5q14 0 27.5 1t28.5 3l-27 -125q-35 -6 -76 -6q-80 0 -138 38t-58 110z" />
<glyph unicode="&#x12f;" horiz-adv-x="462" d="M-78 -227q0 66 41 120t127 107h-22l225 1059h178l-225 -1059q-78 -49 -123 -92t-45 -90q0 -33 22.5 -48.5t57.5 -15.5q12 0 25.5 1t27.5 3l-27 -123q-16 -2 -33.5 -3t-39.5 -1q-78 0 -133.5 35t-55.5 107zM319 1255l43 207h193l-43 -207h-193z" />
<glyph unicode="&#x130;" horiz-adv-x="512" d="M88 0l309 1462h189l-310 -1462h-188zM424 1616l47 215h191l-45 -215h-193z" />
<glyph unicode="&#x131;" horiz-adv-x="462" d="M68 0l225 1059h178l-225 -1059h-178z" />
<glyph unicode="&#x132;" horiz-adv-x="1736" d="M88 0l309 1462h189l-310 -1462h-188zM588 369q0 16 1 33.5t3 35.5h184v-39q0 -57 12.5 -107t44 -87t86 -57.5t136.5 -20.5q86 0 148.5 25.5t106.5 73.5t72.5 118t46.5 158l205 960h189l-211 -997q-53 -262 -191.5 -382t-378.5 -120q-100 0 -183 25.5t-143.5 76t-94 126 t-33.5 178.5z" />
<glyph unicode="&#x133;" horiz-adv-x="925" d="M68 0l225 1059h178l-225 -1059h-178zM160 -340l57 137q25 -10 56.5 -18t76.5 -8q74 0 112 43t56 129l238 1116h178l-233 -1100q-18 -78 -43 -141.5t-63 -107.5t-94 -67.5t-138 -23.5q-68 0 -117 12.5t-86 28.5zM319 1255l43 207h193l-43 -207h-193zM782 1255l43 207h193 l-43 -207h-193z" />
<glyph unicode="&#x134;" horiz-adv-x="1222" d="M74 369q0 16 1 33.5t3 35.5h184v-39q0 -57 12.5 -107t44 -87t86 -57.5t136.5 -20.5q86 0 148.5 25.5t106.5 73.5t72.5 118t46.5 158l205 960h189l-211 -997q-53 -262 -191.5 -382t-378.5 -120q-100 0 -183 25.5t-143.5 76t-94 126t-33.5 178.5zM903 1583l291 277h178 l180 -277h-166l-117 162l-198 -162h-168z" />
<glyph unicode="&#x135;" horiz-adv-x="462" d="M-303 -340l57 137q25 -10 56.5 -18t76.5 -8q74 0 112 43t56 129l238 1116h178l-233 -1100q-18 -78 -43 -141.5t-63 -107.5t-94 -67.5t-138 -23.5q-68 0 -117 12.5t-86 28.5zM63 1210l293 291h178l179 -291h-164l-117 181l-201 -181h-168z" />
<glyph unicode="&#x136;" horiz-adv-x="1331" d="M88 0l309 1462h189l-146 -690l826 690h221l-639 -557l383 -905h-209l-326 793l-305 -248l-115 -545h-188zM299 -444l219 307h215l-264 -307h-170z" />
<glyph unicode="&#x137;" horiz-adv-x="1071" d="M63 0l310 1462h176l-176 -844l577 441h224l-457 -363l270 -696h-190l-224 602l-245 -184l-88 -418h-177zM164 -436l211 299h207l-254 -299h-164z" />
<glyph unicode="&#x138;" horiz-adv-x="1071" d="M63 0l224 1059h176l-105 -492l594 492h219l-460 -395l278 -664h-194l-226 565l-254 -203l-75 -362h-177z" />
<glyph unicode="&#x139;" horiz-adv-x="1150" d="M88 0l309 1462h189l-275 -1294h758l-63 -168h-918zM389 1583l289 277h231l-336 -277h-184z" />
<glyph unicode="&#x13a;" horiz-adv-x="462" d="M68 0l309 1462h178l-309 -1462h-178zM367 1583l289 277h231l-336 -277h-184z" />
<glyph unicode="&#x13b;" horiz-adv-x="1150" d="M88 0l309 1462h189l-275 -1294h758l-63 -168h-918zM211 -444l219 307h215l-264 -307h-170z" />
<glyph unicode="&#x13c;" horiz-adv-x="462" d="M-187 -436l211 299h207l-254 -299h-164zM68 0l309 1462h178l-309 -1462h-178z" />
<glyph unicode="&#x13d;" horiz-adv-x="1150" d="M88 0l309 1462h189l-275 -1294h758l-63 -168h-918zM827 1031l147 431h185l-187 -431h-145z" />
<glyph unicode="&#x13e;" horiz-adv-x="462" d="M68 0l309 1462h178l-309 -1462h-178zM598 1044l143 418h179l-181 -418h-141z" />
<glyph unicode="&#x13f;" horiz-adv-x="1150" d="M88 0l309 1462h189l-275 -1294h758l-63 -168h-918zM780 694l49 240h205l-51 -240h-203z" />
<glyph unicode="&#x140;" horiz-adv-x="702" d="M68 0l309 1462h178l-309 -1462h-178zM542 645l49 240h205l-51 -240h-203z" />
<glyph unicode="&#x141;" horiz-adv-x="1177" d="M27 387l36 182l197 117l164 776h188l-137 -651l467 287l-39 -183l-467 -286l-98 -461h758l-64 -168h-917l106 504z" />
<glyph unicode="&#x142;" horiz-adv-x="563" d="M43 532l35 166l215 129l135 635h178l-112 -530l213 131l-33 -166l-215 -131l-162 -766h-178l141 664z" />
<glyph unicode="&#x143;" horiz-adv-x="1433" d="M88 0l309 1462h170l510 -1161l246 1161h182l-309 -1462h-166l-514 1161l-246 -1161h-182zM811 1583l289 277h231l-336 -277h-184z" />
<glyph unicode="&#x144;" horiz-adv-x="1167" d="M63 0l224 1059h176l-35 -160q92 104 191.5 148.5t195.5 44.5q147 0 225 -80t78 -224q0 -55 -12 -116l-143 -672h-179l138 649q6 27 10 52.5t4 50.5q0 86 -41 136t-133 50q-119 0 -232 -86q-55 -43 -97 -95t-58 -130l-133 -627h-179zM586 1210l286 291h228l-328 -291h-186 z" />
<glyph unicode="&#x145;" horiz-adv-x="1433" d="M88 0l309 1462h170l510 -1161l246 1161h182l-309 -1462h-166l-514 1161l-246 -1161h-182zM313 -444l219 307h215l-264 -307h-170z" />
<glyph unicode="&#x146;" horiz-adv-x="1167" d="M63 0l224 1059h176l-35 -160q92 104 191.5 148.5t195.5 44.5q147 0 225 -80t78 -224q0 -55 -12 -116l-143 -672h-179l138 649q6 27 10 52.5t4 50.5q0 86 -41 136t-133 50q-119 0 -232 -86q-55 -43 -97 -95t-58 -130l-133 -627h-179zM200 -436l211 299h207l-254 -299h-164 z" />
<glyph unicode="&#x147;" horiz-adv-x="1433" d="M88 0l309 1462h170l510 -1161l246 1161h182l-309 -1462h-166l-514 1161l-246 -1161h-182zM688 1866h166l118 -162l197 162h168l-291 -275h-178z" />
<glyph unicode="&#x148;" horiz-adv-x="1167" d="M63 0l224 1059h176l-35 -160q92 104 191.5 148.5t195.5 44.5q147 0 225 -80t78 -224q0 -55 -12 -116l-143 -672h-179l138 649q6 27 10 52.5t4 50.5q0 86 -41 136t-133 50q-119 0 -232 -86q-55 -43 -97 -95t-58 -130l-133 -627h-179zM497 1503h164l119 -178l201 178h168 l-295 -289h-178z" />
<glyph unicode="&#x149;" horiz-adv-x="1294" d="M140 1032l147 430h188l-198 -430h-137zM190 0l224 1059h176l-35 -160q92 104 191.5 148.5t195.5 44.5q147 0 225 -80t78 -224q0 -55 -12 -116l-143 -672h-179l138 649q6 27 10 52.5t4 50.5q0 86 -41 136t-133 50q-119 0 -232 -86q-55 -43 -97 -95t-58 -130l-133 -627 h-179z" />
<glyph unicode="&#x14a;" horiz-adv-x="1433" d="M88 0l309 1462h170l510 -1161l246 1161h182l-305 -1442q-27 -123 -67.5 -206.5t-103 -136t-148.5 -75t-201 -22.5q-88 0 -163 17.5t-136 46.5l65 153q47 -20 100.5 -35.5t139.5 -15.5q82 0 138.5 16.5t94 50t60 88t39.5 128.5l-502 1132l-246 -1161h-182z" />
<glyph unicode="&#x14b;" horiz-adv-x="1167" d="M63 0l224 1059h176l-35 -160q92 104 191.5 148.5t195.5 44.5q147 0 225 -80t78 -224q0 -55 -12 -116l-152 -713q-16 -78 -40.5 -141.5t-62.5 -107.5t-94.5 -67.5t-138.5 -23.5q-68 0 -116.5 12.5t-83.5 28.5l55 137q25 -10 56.5 -18t76.5 -8q74 0 112 43t54 129l150 706 q6 27 10 52.5t4 50.5q0 86 -41 136t-133 50q-117 0 -234 -88q-55 -45 -96 -95t-57 -128l-133 -627h-179z" />
<glyph unicode="&#x14c;" horiz-adv-x="1566" d="M174 569q0 172 53.5 339t155.5 298t251 212t339 81q129 0 234.5 -43t182 -122t118.5 -190.5t42 -250.5q0 -172 -52 -339t-152.5 -298t-250 -212t-341.5 -81q-129 0 -235.5 42t-183.5 121t-119 191.5t-42 251.5zM371 580q0 -100 25.5 -183.5t74.5 -143.5t123 -93t170 -33 q143 0 252.5 66.5t184.5 174t114 242.5t39 275q0 100 -25.5 183t-75 142.5t-123 92t-169.5 32.5q-143 0 -253 -66.5t-184.5 -174t-113.5 -242.5t-39 -272zM716 1628l33 152h598l-33 -152h-598z" />
<glyph unicode="&#x14d;" horiz-adv-x="1230" d="M125 410q0 160 48 285.5t132 213.5t195.5 135.5t240.5 47.5q98 0 179 -33t138.5 -91.5t89.5 -140.5t32 -178q0 -160 -46.5 -286.5t-129 -214t-195.5 -134.5t-244 -47q-98 0 -179 33t-139.5 92.5t-90 140t-31.5 177.5zM313 418q0 -137 68 -220t197 -83q92 0 167.5 39 t130 108.5t85 165.5t30.5 213q0 137 -66.5 220t-195.5 83q-92 0 -168 -39t-131 -108.5t-86 -165.5t-31 -213zM492 1274l31 145h534l-31 -145h-534z" />
<glyph unicode="&#x14e;" horiz-adv-x="1566" d="M174 569q0 172 53.5 339t155.5 298t251 212t339 81q129 0 234.5 -43t182 -122t118.5 -190.5t42 -250.5q0 -172 -52 -339t-152.5 -298t-250 -212t-341.5 -81q-129 0 -235.5 42t-183.5 121t-119 191.5t-42 251.5zM371 580q0 -100 25.5 -183.5t74.5 -143.5t123 -93t170 -33 q143 0 252.5 66.5t184.5 174t114 242.5t39 275q0 100 -25.5 183t-75 142.5t-123 92t-169.5 32.5q-143 0 -253 -66.5t-184.5 -174t-113.5 -242.5t-39 -272zM751 1798q0 29 6 70h138q-6 -25 -6 -49q0 -57 32.5 -86t85.5 -29q66 0 113 36t61 128h140q-27 -147 -105 -216 t-219 -69q-113 0 -179.5 55.5t-66.5 159.5z" />
<glyph unicode="&#x14f;" horiz-adv-x="1230" d="M125 410q0 160 48 285.5t132 213.5t195.5 135.5t240.5 47.5q98 0 179 -33t138.5 -91.5t89.5 -140.5t32 -178q0 -160 -46.5 -286.5t-129 -214t-195.5 -134.5t-244 -47q-98 0 -179 33t-139.5 92.5t-90 140t-31.5 177.5zM313 418q0 -137 68 -220t197 -83q92 0 167.5 39 t130 108.5t85 165.5t30.5 213q0 137 -66.5 220t-195.5 83q-92 0 -168 -39t-131 -108.5t-86 -165.5t-31 -213zM529 1423q0 33 6 70h135q-6 -29 -6 -47q0 -59 32.5 -89t86.5 -30q66 0 111.5 37t62.5 129h137q-27 -150 -107 -217.5t-215 -67.5q-113 0 -178 57.5t-65 157.5z" />
<glyph unicode="&#x150;" horiz-adv-x="1566" d="M174 569q0 172 53.5 339t155.5 298t251 212t339 81q129 0 234.5 -43t182 -122t118.5 -190.5t42 -250.5q0 -172 -52 -339t-152.5 -298t-250 -212t-341.5 -81q-129 0 -235.5 42t-183.5 121t-119 191.5t-42 251.5zM371 580q0 -100 25.5 -183.5t74.5 -143.5t123 -93t170 -33 q143 0 252.5 66.5t184.5 174t114 242.5t39 275q0 100 -25.5 183t-75 142.5t-123 92t-169.5 32.5q-143 0 -253 -66.5t-184.5 -174t-113.5 -242.5t-39 -272zM710 1583l271 277h215l-314 -277h-172zM1085 1583l268 277h215l-313 -277h-170z" />
<glyph unicode="&#x151;" horiz-adv-x="1230" d="M125 410q0 160 48 285.5t132 213.5t195.5 135.5t240.5 47.5q98 0 179 -33t138.5 -91.5t89.5 -140.5t32 -178q0 -160 -46.5 -286.5t-129 -214t-195.5 -134.5t-244 -47q-98 0 -179 33t-139.5 92.5t-90 140t-31.5 177.5zM313 418q0 -137 68 -220t197 -83q92 0 167.5 39 t130 108.5t85 165.5t30.5 213q0 137 -66.5 220t-195.5 83q-92 0 -168 -39t-131 -108.5t-86 -165.5t-31 -213zM491 1210l277 291h209l-320 -291h-166zM854 1210l274 291h209l-317 -291h-166z" />
<glyph unicode="&#x152;" horiz-adv-x="2203" d="M174 569q0 172 53.5 339t151.5 298t239.5 212t317.5 81q178 0 287.5 -84t158.5 -221l56 268h893l-35 -166h-711l-98 -458h670l-35 -168h-670l-106 -504h751l-61 -166h-908l39 180q-78 -94 -186.5 -155.5t-263.5 -61.5q-115 0 -214.5 42t-172 121t-114.5 191.5t-42 251.5z M371 580q0 -100 24.5 -183.5t70.5 -143.5t114.5 -93t156.5 -33q145 0 250 69.5t172.5 178t100 244t32.5 266.5q0 100 -21.5 183t-65.5 142.5t-111.5 92t-159.5 32.5q-135 0 -240.5 -66.5t-177.5 -174t-108.5 -242.5t-36.5 -272z" />
<glyph unicode="&#x153;" horiz-adv-x="1982" d="M125 410q0 160 48 285.5t130 213.5t191.5 135.5t232.5 47.5q143 0 232.5 -65.5t132.5 -178.5q74 117 180 180.5t258 63.5q98 0 173 -31t126 -85t76.5 -128t25.5 -160q0 -35 -2 -78t-10 -84l-8 -41h-772q-2 -16 -2 -31.5v-33.5q0 -66 16 -122t50 -97t86 -65.5t122 -24.5 q125 0 187.5 49t93.5 137h174q-23 -78 -61 -138.5t-93 -103.5t-132 -65.5t-177 -22.5q-86 0 -150.5 21.5t-110.5 56.5t-78 81t-54 93q-82 -119 -188.5 -185.5t-266.5 -66.5q-96 0 -175 33t-136.5 92.5t-88 140t-30.5 177.5zM313 418q0 -137 65.5 -220t192.5 -83q92 0 166 39 t127.5 108.5t82 165.5t28.5 213q0 137 -61.5 220t-190.5 83q-90 0 -166 -39t-130 -108.5t-84 -165.5t-30 -213zM1157 618h596q2 16 3 34t1 36q0 113 -57.5 189.5t-186.5 76.5q-133 0 -225 -81.5t-131 -254.5z" />
<glyph unicode="&#x154;" horiz-adv-x="1300" d="M86 0l309 1462h469q135 0 226.5 -33.5t144.5 -87t75.5 -121t22.5 -137.5q0 -180 -92 -285.5t-252 -150.5l174 -647h-205l-149 610q-29 -4 -60.5 -4h-60.5h-287l-129 -606h-186zM436 768h314q88 0 160.5 15.5t124.5 52t80 96t28 149.5q0 45 -15.5 85t-51.5 71t-96 48.5 t-151 17.5h-280zM701 1583l289 277h231l-336 -277h-184z" />
<glyph unicode="&#x155;" horiz-adv-x="749" d="M63 0l224 1059h176l-35 -164q90 102 168 142t168 40q29 0 52.5 -4t39.5 -8l-47 -162q-20 4 -40.5 7t-49.5 3q-39 0 -89 -14t-104 -55q-57 -47 -97 -98.5t-56 -129.5l-131 -616h-179zM449 1210l286 291h228l-328 -291h-186z" />
<glyph unicode="&#x156;" horiz-adv-x="1300" d="M86 0l309 1462h469q135 0 226.5 -33.5t144.5 -87t75.5 -121t22.5 -137.5q0 -180 -92 -285.5t-252 -150.5l174 -647h-205l-149 610q-29 -4 -60.5 -4h-60.5h-287l-129 -606h-186zM262 -444l219 307h215l-264 -307h-170zM436 768h314q88 0 160.5 15.5t124.5 52t80 96 t28 149.5q0 45 -15.5 85t-51.5 71t-96 48.5t-151 17.5h-280z" />
<glyph unicode="&#x157;" horiz-adv-x="749" d="M-181 -436l211 299h207l-254 -299h-164zM63 0l224 1059h176l-35 -164q90 102 168 142t168 40q29 0 52.5 -4t39.5 -8l-47 -162q-20 4 -40.5 7t-49.5 3q-39 0 -89 -14t-104 -55q-57 -47 -97 -98.5t-56 -129.5l-131 -616h-179z" />
<glyph unicode="&#x158;" horiz-adv-x="1300" d="M86 0l309 1462h469q135 0 226.5 -33.5t144.5 -87t75.5 -121t22.5 -137.5q0 -180 -92 -285.5t-252 -150.5l174 -647h-205l-149 610q-29 -4 -60.5 -4h-60.5h-287l-129 -606h-186zM436 768h314q88 0 160.5 15.5t124.5 52t80 96t28 149.5q0 45 -15.5 85t-51.5 71t-96 48.5 t-151 17.5h-280zM559 1866h166l118 -162l197 162h168l-291 -275h-178z" />
<glyph unicode="&#x159;" horiz-adv-x="749" d="M63 0l224 1059h176l-35 -164q90 102 168 142t168 40q29 0 52.5 -4t39.5 -8l-47 -162q-20 4 -40.5 7t-49.5 3q-39 0 -89 -14t-104 -55q-57 -47 -97 -98.5t-56 -129.5l-131 -616h-179zM299 1503h164l119 -178l201 178h168l-295 -289h-178z" />
<glyph unicode="&#x15a;" horiz-adv-x="1316" d="M84 416h188q16 -152 105.5 -221.5t284.5 -69.5q94 0 160.5 22.5t107.5 62.5t60.5 95t19.5 119q0 35 -8.5 67.5t-31 62.5t-61.5 52.5t-100 34.5l-193 41q-174 37 -267 128t-93 241q0 113 40 197.5t112.5 140t175 83t229.5 27.5q121 0 213 -29.5t155.5 -82t99.5 -127 t46 -162.5l-180 -31q-20 137 -98 204.5t-248 67.5q-102 0 -170 -21.5t-108 -57t-56 -81.5t-16 -96q0 -92 47 -146t172 -83l188 -41q98 -20 167 -57t110 -85t59 -107.5t18 -125.5q0 -119 -41 -208t-115.5 -148t-178 -89t-228.5 -30q-102 0 -202.5 21.5t-179.5 74t-129 139.5 t-54 218zM699 1583l289 277h231l-336 -277h-184z" />
<glyph unicode="&#x15b;" horiz-adv-x="1069" d="M66 307h170q2 -57 24.5 -95t59 -60.5t86 -31.5t106.5 -9q133 0 193.5 51t60.5 131q0 68 -34 102.5t-124 55.5l-119 26q-160 35 -227 102.5t-67 178.5q0 86 34.5 148.5t94 103.5t138.5 61.5t167 20.5q188 0 287.5 -79t115.5 -225l-164 -24q-16 92 -69.5 139t-180.5 47 q-72 0 -119.5 -14t-77.5 -39t-42 -55.5t-12 -61.5q0 -61 36.5 -97t139.5 -58l125 -27q145 -29 212.5 -99.5t67.5 -197.5q0 -90 -38 -153.5t-99 -103.5t-143 -58.5t-170 -18.5q-80 0 -158 16.5t-138.5 56.5t-98 104.5t-37.5 162.5zM535 1210l286 291h228l-328 -291h-186z" />
<glyph unicode="&#x15c;" horiz-adv-x="1316" d="M84 416h188q16 -152 105.5 -221.5t284.5 -69.5q94 0 160.5 22.5t107.5 62.5t60.5 95t19.5 119q0 35 -8.5 67.5t-31 62.5t-61.5 52.5t-100 34.5l-193 41q-174 37 -267 128t-93 241q0 113 40 197.5t112.5 140t175 83t229.5 27.5q121 0 213 -29.5t155.5 -82t99.5 -127 t46 -162.5l-180 -31q-20 137 -98 204.5t-248 67.5q-102 0 -170 -21.5t-108 -57t-56 -81.5t-16 -96q0 -92 47 -146t172 -83l188 -41q98 -20 167 -57t110 -85t59 -107.5t18 -125.5q0 -119 -41 -208t-115.5 -148t-178 -89t-228.5 -30q-102 0 -202.5 21.5t-179.5 74t-129 139.5 t-54 218zM518 1583l291 277h178l180 -277h-166l-117 162l-198 -162h-168z" />
<glyph unicode="&#x15d;" horiz-adv-x="1069" d="M66 307h170q2 -57 24.5 -95t59 -60.5t86 -31.5t106.5 -9q133 0 193.5 51t60.5 131q0 68 -34 102.5t-124 55.5l-119 26q-160 35 -227 102.5t-67 178.5q0 86 34.5 148.5t94 103.5t138.5 61.5t167 20.5q188 0 287.5 -79t115.5 -225l-164 -24q-16 92 -69.5 139t-180.5 47 q-72 0 -119.5 -14t-77.5 -39t-42 -55.5t-12 -61.5q0 -61 36.5 -97t139.5 -58l125 -27q145 -29 212.5 -99.5t67.5 -197.5q0 -90 -38 -153.5t-99 -103.5t-143 -58.5t-170 -18.5q-80 0 -158 16.5t-138.5 56.5t-98 104.5t-37.5 162.5zM333 1210l293 291h178l179 -291h-164 l-117 181l-201 -181h-168z" />
<glyph unicode="&#x15e;" horiz-adv-x="1316" d="M84 416h188q16 -152 105.5 -221.5t284.5 -69.5q94 0 160.5 22.5t107.5 62.5t60.5 95t19.5 119q0 35 -8.5 67.5t-31 62.5t-61.5 52.5t-100 34.5l-193 41q-174 37 -267 128t-93 241q0 113 40 197.5t112.5 140t175 83t229.5 27.5q121 0 213 -29.5t155.5 -82t99.5 -127 t46 -162.5l-180 -31q-20 137 -98 204.5t-248 67.5q-102 0 -170 -21.5t-108 -57t-56 -81.5t-16 -96q0 -92 47 -146t172 -83l188 -41q98 -20 167 -57t110 -85t59 -107.5t18 -125.5q0 -117 -39.5 -206t-112.5 -148t-174.5 -89t-223.5 -32l-39 -76q96 -16 132 -61t36 -88 q0 -109 -80 -149t-205 -40q-31 0 -65.5 4.5t-69.5 10.5l22 108q37 -6 62.5 -9t56.5 -3q63 0 96 18.5t33 61.5q0 29 -31.5 47t-109.5 18h-43l88 164q-90 8 -172 37t-144.5 81t-102.5 133t-42 196z" />
<glyph unicode="&#x15f;" horiz-adv-x="1069" d="M66 307h170q2 -57 24.5 -95t59 -60.5t86 -31.5t106.5 -9q133 0 193.5 51t60.5 131q0 68 -34 102.5t-124 55.5l-119 26q-160 35 -227 102.5t-67 178.5q0 86 34.5 148.5t94 103.5t138.5 61.5t167 20.5q188 0 287.5 -79t115.5 -225l-164 -24q-16 92 -69.5 139t-180.5 47 q-72 0 -119.5 -14t-77.5 -39t-42 -55.5t-12 -61.5q0 -61 36.5 -97t139.5 -58l125 -27q145 -29 212.5 -99.5t67.5 -197.5q0 -86 -34.5 -148.5t-92 -102.5t-134.5 -59.5t-161 -21.5l-39 -73q92 -14 126 -55.5t34 -84.5q0 -104 -75.5 -143t-194.5 -39q-29 0 -61.5 4t-67.5 10 l20 109q35 -8 60.5 -10t54.5 -2q61 0 92 15t31 56q0 29 -31 46.5t-104 17.5h-41l82 153q-70 8 -132.5 30t-109.5 60.5t-75.5 99t-28.5 144.5z" />
<glyph unicode="&#x160;" horiz-adv-x="1316" d="M84 416h188q16 -152 105.5 -221.5t284.5 -69.5q94 0 160.5 22.5t107.5 62.5t60.5 95t19.5 119q0 35 -8.5 67.5t-31 62.5t-61.5 52.5t-100 34.5l-193 41q-174 37 -267 128t-93 241q0 113 40 197.5t112.5 140t175 83t229.5 27.5q121 0 213 -29.5t155.5 -82t99.5 -127 t46 -162.5l-180 -31q-20 137 -98 204.5t-248 67.5q-102 0 -170 -21.5t-108 -57t-56 -81.5t-16 -96q0 -92 47 -146t172 -83l188 -41q98 -20 167 -57t110 -85t59 -107.5t18 -125.5q0 -119 -41 -208t-115.5 -148t-178 -89t-228.5 -30q-102 0 -202.5 21.5t-179.5 74t-129 139.5 t-54 218zM582 1866h166l118 -162l197 162h168l-291 -275h-178z" />
<glyph unicode="&#x161;" horiz-adv-x="1069" d="M66 307h170q2 -57 24.5 -95t59 -60.5t86 -31.5t106.5 -9q133 0 193.5 51t60.5 131q0 68 -34 102.5t-124 55.5l-119 26q-160 35 -227 102.5t-67 178.5q0 86 34.5 148.5t94 103.5t138.5 61.5t167 20.5q188 0 287.5 -79t115.5 -225l-164 -24q-16 92 -69.5 139t-180.5 47 q-72 0 -119.5 -14t-77.5 -39t-42 -55.5t-12 -61.5q0 -61 36.5 -97t139.5 -58l125 -27q145 -29 212.5 -99.5t67.5 -197.5q0 -90 -38 -153.5t-99 -103.5t-143 -58.5t-170 -18.5q-80 0 -158 16.5t-138.5 56.5t-98 104.5t-37.5 162.5zM395 1503h164l119 -178l201 178h168 l-295 -289h-178z" />
<glyph unicode="&#x162;" horiz-adv-x="1230" d="M236 1294l36 168h1155l-34 -168h-484l-272 -1294h-37l-55 -104q92 -14 126 -55.5t34 -84.5q0 -104 -76 -143t-195 -39q-29 0 -61.5 4t-67.5 10l21 109q35 -8 60.5 -10t53.5 -2q61 0 92 15t31 56q0 29 -30.5 46.5t-104.5 17.5h-41l96 180h-37l275 1294h-485z" />
<glyph unicode="&#x163;" horiz-adv-x="710" d="M154 918l28 141h166l62 289h178l-62 -289h281l-31 -141h-278l-127 -603l-7.5 -37.5t-3.5 -33.5q0 -119 119 -119q45 0 76 7t59 18l29 -138q-45 -16 -91 -25.5t-106 -9.5l-43 -81q92 -14 126 -55.5t34 -84.5q0 -104 -75.5 -143t-194.5 -39q-29 0 -61.5 4t-67.5 10l20 109 q35 -8 60.5 -10t54.5 -2q61 0 92 15t31 56q0 29 -31 46.5t-104 17.5h-41l92 172q-158 45 -158 225q0 25 2 50.5t11 54.5l126 596h-165z" />
<glyph unicode="&#x164;" horiz-adv-x="1230" d="M236 1294l36 168h1155l-34 -168h-484l-272 -1294h-191l275 1294h-485zM588 1866h166l118 -162l197 162h168l-291 -275h-178z" />
<glyph unicode="&#x165;" horiz-adv-x="710" d="M154 918l28 141h166l62 289h178l-62 -289h281l-31 -141h-278l-127 -603l-7.5 -37.5t-3.5 -33.5q0 -119 119 -119q45 0 76 6t59 16l29 -137q-45 -16 -92 -24.5t-107 -8.5q-127 0 -195.5 60.5t-68.5 179.5q0 25 2 50.5t11 54.5l126 596h-165zM666 1176l122 325h164 l-155 -325h-131z" />
<glyph unicode="&#x166;" horiz-adv-x="1230" d="M236 1294l36 168h1155l-34 -168h-484l-104 -499h311l-35 -160h-311l-133 -635h-191l136 635h-312l33 160h311l107 499h-485z" />
<glyph unicode="&#x167;" horiz-adv-x="710" d="M61 489l31 142h166l61 287h-165l28 141h166l62 289h178l-62 -289h281l-31 -141h-278l-62 -287h281l-31 -142h-278l-37 -174l-7.5 -37.5t-3.5 -33.5q0 -119 119 -119q45 0 76 6t59 16l29 -137q-45 -16 -92 -24.5t-107 -8.5q-127 0 -195.5 60.5t-68.5 179.5q0 25 2 50.5 t11 54.5l34 167h-166z" />
<glyph unicode="&#x168;" horiz-adv-x="1396" d="M170 401q0 78 23 187l184 874h188l-186 -882q-18 -92 -19 -166q0 -287 312 -287q98 0 169.5 28.5t123 85t85 141.5t58.5 198l188 882h189l-187 -882q-35 -164 -89 -280t-131 -191.5t-180 -110.5t-236 -35q-111 0 -201 26.5t-154.5 80t-100.5 136.5t-36 195zM598 1595 q14 125 69.5 183.5t159.5 58.5q47 0 84 -16.5t70 -37t61.5 -36.5t59.5 -16q51 0 73.5 21.5t32.5 80.5h140q-16 -125 -71.5 -183.5t-158.5 -58.5q-47 0 -85 17.5t-69.5 37t-60 37t-59.5 17.5q-49 0 -73.5 -23.5t-35.5 -81.5h-137z" />
<glyph unicode="&#x169;" horiz-adv-x="1148" d="M121 266q0 29 4 59.5t10 63.5l144 670h178l-140 -658q-10 -51 -10 -102q0 -76 36 -127t128 -51q115 0 221 88q53 43 96 95t60 132l133 623h178l-225 -1059h-174l35 162q-92 -104 -186.5 -149.5t-190.5 -45.5q-150 0 -223.5 83t-73.5 216zM385 1239q27 240 225 240 q45 0 81 -16.5t67.5 -37t60 -37t59.5 -16.5q49 0 73 22.5t34 78.5h131q-27 -240 -225 -240q-47 0 -83 17.5t-66.5 37t-58.5 36.5t-58 17q-49 0 -73 -23.5t-34 -78.5h-133z" />
<glyph unicode="&#x16a;" horiz-adv-x="1396" d="M170 401q0 78 23 187l184 874h188l-186 -882q-18 -92 -19 -166q0 -287 312 -287q98 0 169.5 28.5t123 85t85 141.5t58.5 198l188 882h189l-187 -882q-35 -164 -89 -280t-131 -191.5t-180 -110.5t-236 -35q-111 0 -201 26.5t-154.5 80t-100.5 136.5t-36 195zM649 1628 l33 152h598l-33 -152h-598z" />
<glyph unicode="&#x16b;" horiz-adv-x="1148" d="M121 266q0 29 4 59.5t10 63.5l144 670h178l-140 -658q-10 -51 -10 -102q0 -76 36 -127t128 -51q115 0 221 88q53 43 96 95t60 132l133 623h178l-225 -1059h-174l35 162q-92 -104 -186.5 -149.5t-190.5 -45.5q-150 0 -223.5 83t-73.5 216zM467 1274l31 145h534l-31 -145 h-534z" />
<glyph unicode="&#x16c;" horiz-adv-x="1396" d="M170 401q0 78 23 187l184 874h188l-186 -882q-18 -92 -19 -166q0 -287 312 -287q98 0 169.5 28.5t123 85t85 141.5t58.5 198l188 882h189l-187 -882q-35 -164 -89 -280t-131 -191.5t-180 -110.5t-236 -35q-111 0 -201 26.5t-154.5 80t-100.5 136.5t-36 195zM704 1798 q0 29 6 70h138q-6 -25 -6 -49q0 -57 32.5 -86t85.5 -29q66 0 113 36t61 128h140q-27 -147 -105 -216t-219 -69q-113 0 -179.5 55.5t-66.5 159.5z" />
<glyph unicode="&#x16d;" horiz-adv-x="1148" d="M121 266q0 29 4 59.5t10 63.5l144 670h178l-140 -658q-10 -51 -10 -102q0 -76 36 -127t128 -51q115 0 221 88q53 43 96 95t60 132l133 623h178l-225 -1059h-174l35 162q-92 -104 -186.5 -149.5t-190.5 -45.5q-150 0 -223.5 83t-73.5 216zM496 1423q0 33 6 70h135 q-6 -29 -6 -47q0 -59 32.5 -89t86.5 -30q66 0 111.5 37t62.5 129h137q-27 -150 -107 -217.5t-215 -67.5q-113 0 -178 57.5t-65 157.5z" />
<glyph unicode="&#x16e;" horiz-adv-x="1396" d="M170 401q0 78 23 187l184 874h188l-186 -882q-18 -92 -19 -166q0 -287 312 -287q98 0 169.5 28.5t123 85t85 141.5t58.5 198l188 882h189l-187 -882q-35 -164 -89 -280t-131 -191.5t-180 -110.5t-236 -35q-111 0 -201 26.5t-154.5 80t-100.5 136.5t-36 195zM723 1718 q0 106 63.5 159.5t149.5 53.5q43 0 82 -13t68.5 -40t47 -66.5t17.5 -93.5q0 -53 -17.5 -92t-47 -65.5t-68.5 -40t-82 -13.5q-86 0 -149.5 53.5t-63.5 157.5zM836 1718q0 -53 26.5 -78.5t73.5 -25.5q100 0 100 104q0 59 -26.5 85t-73.5 26t-73.5 -26t-26.5 -85z" />
<glyph unicode="&#x16f;" horiz-adv-x="1148" d="M121 266q0 29 4 59.5t10 63.5l144 670h178l-140 -658q-10 -51 -10 -102q0 -76 36 -127t128 -51q115 0 221 88q53 43 96 95t60 132l133 623h178l-225 -1059h-174l35 162q-92 -104 -186.5 -149.5t-190.5 -45.5q-150 0 -223.5 83t-73.5 216zM530 1411q0 51 17.5 90 t46.5 65.5t65.5 40t77.5 13.5t79 -13.5t67.5 -40t47 -65.5t17.5 -90t-17.5 -90t-47 -64.5t-67.5 -38t-79 -12.5t-77.5 12.5t-65.5 38t-46.5 64.5t-17.5 90zM641 1411q0 -53 26.5 -78.5t69.5 -25.5q47 0 73 25.5t26 78.5q0 55 -26 81t-73 26q-43 0 -69.5 -26t-26.5 -81z" />
<glyph unicode="&#x170;" horiz-adv-x="1396" d="M170 401q0 78 23 187l184 874h188l-186 -882q-18 -92 -19 -166q0 -287 312 -287q98 0 169.5 28.5t123 85t85 141.5t58.5 198l188 882h189l-187 -882q-35 -164 -89 -280t-131 -191.5t-180 -110.5t-236 -35q-111 0 -201 26.5t-154.5 80t-100.5 136.5t-36 195zM633 1583 l271 277h215l-314 -277h-172zM1008 1583l268 277h215l-313 -277h-170z" />
<glyph unicode="&#x171;" horiz-adv-x="1148" d="M121 266q0 29 4 59.5t10 63.5l144 670h178l-140 -658q-10 -51 -10 -102q0 -76 36 -127t128 -51q115 0 221 88q53 43 96 95t60 132l133 623h178l-225 -1059h-174l35 162q-92 -104 -186.5 -149.5t-190.5 -45.5q-150 0 -223.5 83t-73.5 216zM446 1210l277 291h209l-320 -291 h-166zM809 1210l274 291h209l-317 -291h-166z" />
<glyph unicode="&#x172;" horiz-adv-x="1396" d="M170 401q0 78 23 187l184 874h188l-186 -882q-18 -92 -19 -166q0 -287 312 -287q98 0 169.5 28.5t123 85t85 141.5t58.5 198l188 882h189l-187 -882q-53 -246 -149 -387.5t-252 -194.5q-78 -47 -123 -93t-45 -93q0 -33 22.5 -49.5t57.5 -16.5q14 0 27.5 1t27.5 3 l-26 -125q-35 -6 -76 -6q-80 0 -138.5 38t-58.5 110q0 59 28 105t87 91h-18q-111 0 -201 26.5t-154.5 80t-100.5 136.5t-36 195z" />
<glyph unicode="&#x173;" horiz-adv-x="1148" d="M121 266q0 29 4 59.5t10 63.5l144 670h178l-140 -658q-10 -51 -10 -102q0 -76 36 -127t128 -51q115 0 221 88q53 43 96 95t60 132l133 623h178l-225 -1059q-78 -49 -123 -92t-45 -90q0 -33 22.5 -48.5t57.5 -15.5q12 0 25.5 1t27.5 3l-27 -123q-16 -2 -33.5 -3t-39.5 -1 q-78 0 -133.5 35t-55.5 107q0 66 41 120t127 107h-18l35 162q-92 -104 -186.5 -149.5t-190.5 -45.5q-150 0 -223.5 83t-73.5 216z" />
<glyph unicode="&#x174;" horiz-adv-x="1906" d="M258 1462h209l51 -1202l569 1196h201l66 -1196l557 1202h207l-717 -1462h-197l-67 1223l-580 -1223h-190zM891 1583l291 277h178l180 -277h-166l-117 162l-198 -162h-168z" />
<glyph unicode="&#x175;" horiz-adv-x="1501" d="M158 1059h192l31 -844l422 838h178l61 -838l394 844h190l-532 -1059h-189l-59 844l-418 -844h-186zM573 1210l293 291h178l179 -291h-164l-117 181l-201 -181h-168z" />
<glyph unicode="&#x176;" horiz-adv-x="1255" d="M262 1462h203l250 -676l534 676h213l-680 -841l-131 -621h-188l129 621zM545 1583l291 277h178l180 -277h-166l-117 162l-198 -162h-168z" />
<glyph unicode="&#x177;" horiz-adv-x="1071" d="M-35 -365l51 138q23 -8 48.5 -14.5t58.5 -6.5t57.5 8.5t46 27.5t42 50t48.5 76l70 115l-231 1030h196l162 -832l477 832h207l-709 -1159q-45 -72 -81.5 -127.5t-76.5 -93t-88 -57t-112 -19.5q-49 0 -90 8t-76 24zM352 1210l293 291h178l179 -291h-164l-117 181l-201 -181 h-168z" />
<glyph unicode="&#x178;" horiz-adv-x="1255" d="M262 1462h203l250 -676l534 676h213l-680 -841l-131 -621h-188l129 621zM592 1618l45 209h186l-45 -209h-186zM960 1618l45 209h189l-45 -209h-189z" />
<glyph unicode="&#x179;" horiz-adv-x="1200" d="M-8 0l31 145l1062 1151h-811l35 166h1049l-31 -147l-1061 -1147h854l-61 -168h-1067zM678 1583l289 277h231l-336 -277h-184z" />
<glyph unicode="&#x17a;" horiz-adv-x="956" d="M-14 0l28 133l768 782h-596l29 144h825l-28 -133l-766 -783h641l-49 -143h-852zM502 1210l286 291h228l-328 -291h-186z" />
<glyph unicode="&#x17b;" horiz-adv-x="1200" d="M-8 0l31 145l1062 1151h-811l35 166h1049l-31 -147l-1061 -1147h854l-61 -168h-1067zM729 1616l47 215h191l-45 -215h-193z" />
<glyph unicode="&#x17c;" horiz-adv-x="956" d="M-14 0l28 133l768 782h-596l29 144h825l-28 -133l-766 -783h641l-49 -143h-852zM543 1257l45 207h182l-43 -207h-184z" />
<glyph unicode="&#x17d;" horiz-adv-x="1200" d="M-8 0l31 145l1062 1151h-811l35 166h1049l-31 -147l-1061 -1147h854l-61 -168h-1067zM580 1866h166l118 -162l197 162h168l-291 -275h-178z" />
<glyph unicode="&#x17e;" horiz-adv-x="956" d="M-14 0l28 133l768 782h-596l29 144h825l-28 -133l-766 -783h641l-49 -143h-852zM364 1503h164l119 -178l201 178h168l-295 -289h-178z" />
<glyph unicode="&#x17f;" horiz-adv-x="464" d="M68 0l245 1155q37 176 125 250t232 74q53 0 100 -10.5t84 -26.5l-51 -133q-29 12 -57.5 18t-67.5 6q-82 0 -124 -43t-60 -131l-246 -1159h-180z" />
<glyph unicode="&#x192;" d="M-117 -315l56 135q33 -14 60.5 -22.5t72.5 -8.5q78 0 115.5 36t66.5 122l332 934h-162l41 149h172l49 137q57 156 144.5 221.5t228.5 65.5q61 0 105 -12t83 -31l-55 -135q-33 14 -59.5 21.5t-73.5 7.5q-80 0 -123 -35t-74 -123l-41 -117h264l-41 -149h-276l-340 -955 q-29 -78 -60.5 -132t-73.5 -88t-95.5 -49t-122.5 -15q-66 0 -110 12t-83 31z" />
<glyph unicode="&#x218;" horiz-adv-x="1316" d="M84 416h188q16 -152 105.5 -221.5t284.5 -69.5q94 0 160.5 22.5t107.5 62.5t60.5 95t19.5 119q0 35 -8.5 67.5t-31 62.5t-61.5 52.5t-100 34.5l-193 41q-174 37 -267 128t-93 241q0 113 40 197.5t112.5 140t175 83t229.5 27.5q121 0 213 -29.5t155.5 -82t99.5 -127 t46 -162.5l-180 -31q-20 137 -98 204.5t-248 67.5q-102 0 -170 -21.5t-108 -57t-56 -81.5t-16 -96q0 -92 47 -146t172 -83l188 -41q98 -20 167 -57t110 -85t59 -107.5t18 -125.5q0 -119 -41 -208t-115.5 -148t-178 -89t-228.5 -30q-102 0 -202.5 21.5t-179.5 74t-129 139.5 t-54 218zM287 -444l219 307h215l-264 -307h-170z" />
<glyph unicode="&#x219;" horiz-adv-x="1069" d="M66 307h170q2 -57 24.5 -95t59 -60.5t86 -31.5t106.5 -9q133 0 193.5 51t60.5 131q0 68 -34 102.5t-124 55.5l-119 26q-160 35 -227 102.5t-67 178.5q0 86 34.5 148.5t94 103.5t138.5 61.5t167 20.5q188 0 287.5 -79t115.5 -225l-164 -24q-16 92 -69.5 139t-180.5 47 q-72 0 -119.5 -14t-77.5 -39t-42 -55.5t-12 -61.5q0 -61 36.5 -97t139.5 -58l125 -27q145 -29 212.5 -99.5t67.5 -197.5q0 -90 -38 -153.5t-99 -103.5t-143 -58.5t-170 -18.5q-80 0 -158 16.5t-138.5 56.5t-98 104.5t-37.5 162.5zM172 -436l211 299h207l-254 -299h-164z" />
<glyph unicode="&#x21a;" horiz-adv-x="1230" d="M190 -444l219 307h215l-264 -307h-170zM236 1294l36 168h1155l-34 -168h-484l-272 -1294h-191l275 1294h-485z" />
<glyph unicode="&#x21b;" horiz-adv-x="710" d="M32 -436l211 299h207l-254 -299h-164zM154 918l28 141h166l62 289h178l-62 -289h281l-31 -141h-278l-127 -603l-7.5 -37.5t-3.5 -33.5q0 -119 119 -119q45 0 76 6t59 16l29 -137q-45 -16 -92 -24.5t-107 -8.5q-127 0 -195.5 60.5t-68.5 179.5q0 25 2 50.5t11 54.5 l126 596h-165z" />
<glyph unicode="&#x2c6;" horiz-adv-x="800" d="M231 1210l293 291h178l179 -291h-164l-117 181l-201 -181h-168z" />
<glyph unicode="&#x2c7;" horiz-adv-x="800" d="M272 1503h164l119 -178l201 178h168l-295 -289h-178z" />
<glyph unicode="&#x2d8;" horiz-adv-x="800" d="M330 1423q0 33 6 70h135q-6 -29 -6 -47q0 -59 32.5 -89t86.5 -30q66 0 111.5 37t62.5 129h137q-27 -150 -107 -217.5t-215 -67.5q-113 0 -178 57.5t-65 157.5z" />
<glyph unicode="&#x2d9;" horiz-adv-x="800" d="M455 1257l45 207h182l-43 -207h-184z" />
<glyph unicode="&#x2da;" horiz-adv-x="800" d="M356 1411q0 51 17.5 90t46.5 65.5t65.5 40t77.5 13.5t79 -13.5t67.5 -40t47 -65.5t17.5 -90t-17.5 -90t-47 -64.5t-67.5 -38t-79 -12.5t-77.5 12.5t-65.5 38t-46.5 64.5t-17.5 90zM467 1411q0 -53 26.5 -78.5t69.5 -25.5q47 0 73 25.5t26 78.5q0 55 -26 81t-73 26 q-43 0 -69.5 -26t-26.5 -81z" />
<glyph unicode="&#x2db;" horiz-adv-x="800" d="M293 -227q0 66 41 120t127 107h155q-78 -49 -122.5 -92t-44.5 -90q0 -33 22.5 -48.5t56.5 -15.5q12 0 25.5 1t28.5 3l-27 -123q-16 -2 -33.5 -3t-40.5 -1q-78 0 -133 35t-55 107z" />
<glyph unicode="&#x2dc;" horiz-adv-x="800" d="M209 1239q27 240 225 240q45 0 81 -16.5t67.5 -37t60 -37t59.5 -16.5q49 0 73 22.5t34 78.5h131q-27 -240 -225 -240q-47 0 -83 17.5t-66.5 37t-58.5 36.5t-58 17q-49 0 -73 -23.5t-34 -78.5h-133z" />
<glyph unicode="&#x2dd;" horiz-adv-x="800" d="M184 1210l277 291h209l-320 -291h-166zM547 1210l274 291h209l-317 -291h-166z" />
<glyph unicode="&#x3a9;" horiz-adv-x="1521" d="M33 0l33 160h317q-72 74 -126 191.5t-54 258.5q0 172 51 332t150.5 284t245 198.5t333.5 74.5q117 0 212 -38t163.5 -108.5t106.5 -171t38 -227.5q0 -152 -32.5 -272.5t-89 -216.5t-130 -171t-155.5 -134h329l-59 -160h-524l30 154q215 129 326 334.5t111 455.5 q0 186 -87 291.5t-255 105.5q-152 0 -261.5 -64.5t-179 -170t-102.5 -237.5t-33 -267q0 -131 53.5 -252t143.5 -196l-31 -154h-524z" />
<glyph unicode="&#x3c0;" horiz-adv-x="1232" d="M129 911l31 148h1138l-30 -148h-199l-129 -606q-6 -29 -10 -57.5t-4 -42.5q0 -33 13 -58.5t58 -25.5q41 0 82 10l23 -133q-29 -10 -70 -17.5t-92 -7.5q-104 0 -149.5 50.5t-45.5 136.5q0 12 1.5 27.5t5.5 40t10 61.5t18 90l113 532h-377l-192 -911h-179l193 911h-209z " />
<glyph unicode="&#x400;" horiz-adv-x="1216" d="M88 0l309 1462h946l-34 -166h-758l-98 -458h716l-34 -168h-717l-107 -504h799l-61 -166h-961zM657 1860h213l187 -277h-170z" />
<glyph unicode="&#x401;" horiz-adv-x="1216" d="M88 0l309 1462h946l-34 -166h-758l-98 -458h716l-34 -168h-717l-107 -504h799l-61 -166h-961zM613 1618l45 209h186l-45 -209h-186zM981 1618l45 209h189l-45 -209h-189z" />
<glyph unicode="&#x402;" horiz-adv-x="1601" d="M227 1296l33 166h1116l-35 -166h-514l-102 -450q80 27 175 42t185 15q96 0 181.5 -22.5t148 -69.5t99 -120t36.5 -175q0 -262 -161.5 -389t-499.5 -127h-115l35 162h88q96 0 181 11t147.5 48t99.5 105.5t37 181.5q0 61 -25.5 106t-70.5 74t-105.5 42t-130.5 13 q-92 0 -180 -15t-158 -42l-153 -686h-189l287 1296h-410z" />
<glyph unicode="&#x403;" horiz-adv-x="1077" d="M86 0l309 1462h889l-37 -166h-698l-275 -1296h-188zM660 1583l289 277h231l-336 -277h-184z" />
<glyph unicode="&#x404;" horiz-adv-x="1472" d="M172 584q0 180 52 345t151.5 292t244 202.5t328.5 75.5q225 0 358.5 -109.5t161.5 -318.5l-186 -31q-25 150 -107.5 222.5t-236.5 72.5q-100 0 -188 -34.5t-158 -99t-121 -158t-78 -209.5h688l-34 -164h-678q-2 -23 -3 -44.5t-1 -43.5q0 -94 25.5 -177t76.5 -144.5 t126 -97.5t173 -36q94 0 163.5 20.5t119 59.5t83 96t56.5 131h192q-29 -113 -80 -201t-127.5 -147t-181 -91t-241.5 -32q-129 0 -235.5 43t-182.5 124t-118 195.5t-42 258.5z" />
<glyph unicode="&#x405;" horiz-adv-x="1316" d="M84 416h188q16 -152 105.5 -221.5t284.5 -69.5q94 0 160.5 22.5t107.5 62.5t60.5 95t19.5 119q0 35 -8.5 67.5t-31 62.5t-61.5 52.5t-100 34.5l-193 41q-174 37 -267 128t-93 241q0 113 40 197.5t112.5 140t175 83t229.5 27.5q121 0 213 -29.5t155.5 -82t99.5 -127 t46 -162.5l-180 -31q-20 137 -98 204.5t-248 67.5q-102 0 -170 -21.5t-108 -57t-56 -81.5t-16 -96q0 -92 47 -146t172 -83l188 -41q98 -20 167 -57t110 -85t59 -107.5t18 -125.5q0 -119 -41 -208t-115.5 -148t-178 -89t-228.5 -30q-102 0 -202.5 21.5t-179.5 74t-129 139.5 t-54 218z" />
<glyph unicode="&#x406;" horiz-adv-x="512" d="M88 0l309 1462h189l-310 -1462h-188z" />
<glyph unicode="&#x407;" horiz-adv-x="512" d="M88 0l309 1462h189l-310 -1462h-188zM234 1618l45 209h186l-45 -209h-186zM602 1618l45 209h189l-45 -209h-189z" />
<glyph unicode="&#x408;" horiz-adv-x="1222" d="M74 369q0 16 1 33.5t3 35.5h184v-39q0 -57 12.5 -107t44 -87t86 -57.5t136.5 -20.5q86 0 148.5 25.5t106.5 73.5t72.5 118t46.5 158l205 960h189l-211 -997q-53 -262 -191.5 -382t-378.5 -120q-100 0 -183 25.5t-143.5 76t-94 126t-33.5 178.5z" />
<glyph unicode="&#x409;" horiz-adv-x="2205" d="M-31 -12l33 166h29q72 0 135 27.5t124.5 100t121 200.5t123.5 331l202 649h776l-114 -547h217q236 0 372 -97t136 -304q0 -248 -152.5 -381t-474.5 -133h-481l274 1300h-413l-183 -585q-66 -211 -136.5 -351.5t-152 -223.5t-177 -117.5t-212.5 -34.5h-47zM1237 160h283 q213 0 314 79.5t101 270.5q0 125 -78.5 185.5t-232.5 60.5h-262z" />
<glyph unicode="&#x40a;" horiz-adv-x="2136" d="M98 0l308 1462h190l-127 -596h661l127 596h189l-125 -596h223q236 0 374 -94t138 -280q0 -238 -151.5 -365t-470.5 -127h-486l146 700h-662l-145 -700h-189zM1171 160h287q213 0 312.5 73.5t99.5 253.5q0 98 -77 156.5t-230 58.5h-277z" />
<glyph unicode="&#x40b;" horiz-adv-x="1572" d="M227 1298l33 164h1098l-35 -164h-522l-103 -491q84 31 169 47t177 16q178 0 287 -85t113 -246q2 -33 -1 -73t-11 -77l-82 -389h-187l72 348q8 41 15 85t5 79q-4 113 -68.5 160t-211.5 47q-76 0 -157 -16.5t-152 -45.5l-140 -657h-188l274 1298h-385z" />
<glyph unicode="&#x40c;" horiz-adv-x="1310" d="M86 0l309 1462h189l-131 -626h75q113 0 193 62.5t158 170.5l94 131q51 70 95 120t89 82t95.5 46t113.5 14q39 0 74 -6t41 -10l-47 -156q-6 2 -27 6t-47 4q-33 0 -59.5 -7t-51 -25.5t-50 -47t-56.5 -71.5l-105 -143q-59 -82 -119.5 -143.5t-150.5 -98.5q33 -12 57.5 -31.5 t46 -50.5t43 -73t46.5 -97l235 -512h-201l-221 492q-43 96 -95 138t-149 42h-110l-146 -672h-188zM776 1583l289 277h231l-336 -277h-184z" />
<glyph unicode="&#x40d;" horiz-adv-x="1411" d="M86 0l311 1462h185l-246 -1140l969 1140h180l-311 -1462h-185l246 1141l-971 -1141h-178zM676 1860h213l187 -277h-170z" />
<glyph unicode="&#x40e;" horiz-adv-x="1193" d="M31 8l55 146q37 -16 76 -25.5t86 -9.5q72 0 124 35.5t109 124.5l84 127l-307 1056h199l229 -880l541 880h200l-714 -1134q-63 -100 -115.5 -170t-106 -113t-111.5 -62.5t-132 -19.5q-63 0 -119.5 12.5t-97.5 32.5zM574 1831q0 16 2 30.5t4 28.5h135q-4 -16 -4 -23v-18 q0 -49 33.5 -88t130.5 -39q86 0 140 39t81 129h137q-31 -137 -122 -211.5t-247 -74.5q-135 0 -212.5 57t-77.5 170z" />
<glyph unicode="&#x40f;" horiz-adv-x="1404" d="M86 0l311 1462h189l-275 -1296h703l274 1296h189l-310 -1462h-444l-72 -354h-172l74 354h-467z" />
<glyph unicode="&#x410;" horiz-adv-x="1380" d="M-51 0l878 1462h197l258 -1462h-195l-69 408h-625l-239 -408h-205zM483 571h512l-114 678z" />
<glyph unicode="&#x411;" horiz-adv-x="1284" d="M86 0l309 1462h869l-35 -166h-680l-84 -401h254q117 0 212 -21.5t160.5 -68.5t101.5 -120t36 -175q0 -244 -152.5 -377t-472.5 -133h-518zM309 160h316q211 0 313 79.5t102 266.5q0 106 -75.5 167.5t-229.5 61.5h-305z" />
<glyph unicode="&#x412;" horiz-adv-x="1294" d="M86 0l309 1462h482q131 0 218 -29.5t138 -75.5t71.5 -104.5t20.5 -115.5q0 -147 -75.5 -237.5t-223.5 -137.5q102 -45 154.5 -124t52.5 -177q0 -104 -36 -190.5t-110.5 -145.5t-192.5 -92t-280 -33h-528zM303 156h330q223 0 315 75.5t92 229.5q0 96 -69.5 159.5 t-220.5 63.5h-334zM449 844h323q70 0 135.5 12t115.5 43t81 84t31 133q0 43 -14.5 78t-47.5 59.5t-87 39t-134 14.5h-305z" />
<glyph unicode="&#x413;" horiz-adv-x="1077" d="M86 0l309 1462h889l-37 -166h-698l-275 -1296h-188z" />
<glyph unicode="&#x414;" horiz-adv-x="1466" d="M-133 -354l115 520h120q80 61 146.5 149t128 210t120 277.5t117.5 352.5l97 307h811l-277 -1296h141l-112 -520h-170l76 354h-1063l-80 -354h-170zM330 166h727l241 1134h-454l-70 -223q-53 -172 -104.5 -312t-103.5 -252t-110.5 -198t-125.5 -149z" />
<glyph unicode="&#x415;" horiz-adv-x="1216" d="M88 0l309 1462h946l-34 -166h-758l-98 -458h716l-34 -168h-717l-107 -504h799l-61 -166h-961z" />
<glyph unicode="&#x416;" horiz-adv-x="2054" d="M-31 0l502 594q68 82 121 122t119 56q-57 27 -91 80t-57 131l-49 184q-20 76 -53 108t-99 32q-51 0 -88 -7l23 148q16 4 48 9t67 5q106 0 161.5 -45t88.5 -157l49 -179q35 -121 90 -184t164 -63h75l131 628h189l-135 -628h61q98 0 180 58t170 189l111 170q41 61 82 102.5 t84 65t90 33.5t102 10q41 0 73 -5t44 -9l-47 -156q-10 2 -21 4q-10 2 -22 3t-29 1q-37 0 -65.5 -6t-55 -26.5t-56.5 -56t-68 -97.5l-91 -137q-51 -82 -107 -132t-134 -81q49 -20 86 -66.5t71 -124.5l254 -573h-211l-213 500q-20 47 -40.5 79.5t-45 53t-58.5 30t-81 9.5h-94 l-143 -672h-189l144 672h-107q-43 0 -78 -9.5t-67.5 -32t-68.5 -59t-81 -92.5l-401 -479h-234z" />
<glyph unicode="&#x417;" horiz-adv-x="1263" d="M102 391h181q8 -78 31.5 -130t64.5 -83t101.5 -44t140.5 -13q78 0 143 17.5t113.5 55t75 100t26.5 155.5q0 117 -76 174t-213 57h-178l35 160h176q82 0 150.5 16t117.5 51t77 90.5t28 135.5q0 98 -72 153t-197 55q-86 0 -148.5 -12t-108.5 -39.5t-78.5 -74t-57.5 -111.5 l-172 26q29 84 74 152t113.5 116t163 74.5t223.5 26.5q100 0 181 -26.5t138 -72.5t88 -111.5t31 -141.5q0 -84 -22.5 -147.5t-62.5 -110.5t-93.5 -79t-114.5 -52q98 -51 140 -131t42 -168q0 -121 -39 -214t-111.5 -156.5t-174 -95.5t-226.5 -32q-244 0 -372.5 107.5 t-137.5 322.5z" />
<glyph unicode="&#x418;" horiz-adv-x="1411" d="M86 0l311 1462h185l-246 -1140l969 1140h180l-311 -1462h-185l246 1141l-971 -1141h-178z" />
<glyph unicode="&#x419;" horiz-adv-x="1411" d="M86 0l311 1462h185l-246 -1140l969 1140h180l-311 -1462h-185l246 1141l-971 -1141h-178zM691 1831q0 16 2 30.5t4 28.5h135q-4 -16 -4 -23v-18q0 -49 33.5 -88t130.5 -39q86 0 140 39t81 129h137q-31 -137 -122 -211.5t-247 -74.5q-135 0 -212.5 57t-77.5 170z" />
<glyph unicode="&#x41a;" horiz-adv-x="1310" d="M86 0l309 1462h189l-131 -626h75q113 0 193 62.5t158 170.5l94 131q51 70 95 120t89 82t95.5 46t113.5 14q39 0 74 -6t41 -10l-47 -156q-6 2 -27 6t-47 4q-33 0 -59.5 -7t-51 -25.5t-50 -47t-56.5 -71.5l-105 -143q-59 -82 -119.5 -143.5t-150.5 -98.5q33 -12 57.5 -31.5 t46 -50.5t43 -73t46.5 -97l235 -512h-201l-221 492q-43 96 -95 138t-149 42h-110l-146 -672h-188z" />
<glyph unicode="&#x41b;" horiz-adv-x="1488" d="M-31 -12l33 166h29q72 0 135 27.5t124.5 100t121 200.5t123.5 331l202 649h826l-310 -1462h-190l276 1300h-462l-183 -585q-66 -211 -136.5 -351.5t-152 -223.5t-177 -117.5t-212.5 -34.5h-47z" />
<glyph unicode="&#x41c;" horiz-adv-x="1732" d="M88 0l309 1462h228l211 -1237l737 1237h233l-309 -1462h-174l244 1153l-703 -1153h-153l-207 1149l-244 -1149h-172z" />
<glyph unicode="&#x41d;" horiz-adv-x="1439" d="M88 0l309 1462h189l-131 -618h737l131 618h188l-309 -1462h-188l141 668h-737l-142 -668h-188z" />
<glyph unicode="&#x41e;" horiz-adv-x="1566" d="M174 569q0 172 53.5 339t155.5 298t251 212t339 81q129 0 234.5 -43t182 -122t118.5 -190.5t42 -250.5q0 -172 -52 -339t-152.5 -298t-250 -212t-341.5 -81q-129 0 -235.5 42t-183.5 121t-119 191.5t-42 251.5zM371 580q0 -100 25.5 -183.5t74.5 -143.5t123 -93t170 -33 q143 0 252.5 66.5t184.5 174t114 242.5t39 275q0 100 -25.5 183t-75 142.5t-123 92t-169.5 32.5q-143 0 -253 -66.5t-184.5 -174t-113.5 -242.5t-39 -272z" />
<glyph unicode="&#x41f;" horiz-adv-x="1411" d="M98 0l310 1462h1087l-309 -1462h-189l275 1296h-713l-272 -1296h-189z" />
<glyph unicode="&#x420;" horiz-adv-x="1282" d="M86 0l309 1462h479q131 0 221.5 -34.5t144.5 -88t77.5 -120t23.5 -129.5q0 -137 -45 -236.5t-128 -163t-201.5 -93.5t-264.5 -30h-309l-121 -567h-186zM426 727h297q96 0 175 16.5t136.5 57.5t88 109.5t30.5 172.5q0 94 -69.5 157t-239.5 63h-295z" />
<glyph unicode="&#x421;" horiz-adv-x="1454" d="M170 584q0 182 52 348t151.5 292t243 200.5t323.5 74.5q250 0 381 -130t152 -355l-189 -31q-23 176 -102.5 264t-251.5 88q-129 0 -232.5 -58t-177.5 -158.5t-112.5 -234.5t-38.5 -284q0 -98 23.5 -184t72.5 -150.5t123 -101.5t174 -37q190 0 293.5 94t138.5 248h205 q-25 -111 -75 -204t-129 -159.5t-189.5 -104.5t-255.5 -38q-135 0 -243 45t-182.5 126t-114.5 195.5t-40 254.5z" />
<glyph unicode="&#x422;" horiz-adv-x="1230" d="M236 1294l36 168h1155l-34 -168h-484l-272 -1294h-191l275 1294h-485z" />
<glyph unicode="&#x423;" horiz-adv-x="1193" d="M31 8l55 146q37 -16 76 -25.5t86 -9.5q72 0 124 35.5t109 124.5l84 127l-307 1056h199l229 -880l541 880h200l-714 -1134q-63 -100 -115.5 -170t-106 -113t-111.5 -62.5t-132 -19.5q-63 0 -119.5 12.5t-97.5 32.5z" />
<glyph unicode="&#x424;" horiz-adv-x="1693" d="M182 684q0 168 61.5 295t169 214t251 134t307.5 55l33 162h186l-37 -168q115 -12 212 -48t169 -97.5t113 -149.5t41 -202q0 -166 -62.5 -293t-169 -214t-251 -134.5t-306.5 -55.5l-39 -182h-184l39 188q-115 12 -212 49t-168 97.5t-112 147.5t-41 202zM375 684 q0 -164 100 -247t273 -101l188 893q-129 -8 -232.5 -46t-177 -105.5t-112.5 -166t-39 -227.5zM932 334q129 8 233.5 46t178 106.5t112.5 167t39 229.5q0 160 -99.5 244.5t-273.5 101.5z" />
<glyph unicode="&#x425;" horiz-adv-x="1306" d="M-51 0l678 776l-332 686h209l256 -557l489 557h213l-618 -702l368 -760h-211l-294 625l-543 -625h-215z" />
<glyph unicode="&#x426;" horiz-adv-x="1402" d="M86 0l309 1462h191l-275 -1296h676l273 1296h190l-274 -1296h143l-113 -520h-170l76 354h-1026z" />
<glyph unicode="&#x427;" horiz-adv-x="1308" d="M233 926q0 35 2.5 70.5t12.5 76.5l82 389h190l-74 -344q-6 -33 -13 -70.5t-7 -82.5q0 -115 65.5 -171.5t225.5 -56.5q84 0 169 15.5t158 44.5l148 665h190l-323 -1462h-191l142 645q-78 -29 -170 -47t-181 -18q-94 0 -170.5 21.5t-133 65.5t-88 108.5t-34.5 150.5z" />
<glyph unicode="&#x428;" horiz-adv-x="1974" d="M86 0l309 1462h189l-273 -1296h541l274 1296h189l-275 -1296h543l275 1296h188l-309 -1462h-1651z" />
<glyph unicode="&#x429;" horiz-adv-x="2000" d="M86 0l309 1462h189l-273 -1296h541l274 1296h189l-275 -1296h543l275 1296h188l-272 -1296h143l-113 -520h-170l76 354h-1624z" />
<glyph unicode="&#x42a;" horiz-adv-x="1452" d="M180 1296l37 166h498l-115 -547h277q119 0 213 -24.5t159.5 -73.5t101 -125t35.5 -180q0 -248 -152.5 -380t-473.5 -132h-543l272 1296h-309zM440 160h342q213 0 314.5 79.5t101.5 270.5q0 119 -80 182.5t-233 63.5h-320z" />
<glyph unicode="&#x42b;" horiz-adv-x="1763" d="M86 0l309 1462h189l-115 -547h240q236 0 372 -98t136 -305q0 -248 -152 -380t-473 -132h-506zM309 160h303q213 0 315.5 79.5t102.5 270.5q0 119 -80 182.5t-233 63.5h-283zM1339 0l310 1462h188l-309 -1462h-189z" />
<glyph unicode="&#x42c;" horiz-adv-x="1302" d="M86 0l309 1462h189l-115 -547h262q236 0 372 -98t136 -305q0 -248 -156.5 -380t-478.5 -132h-518zM309 162h326q211 0 313.5 80t102.5 268q0 119 -79 182.5t-233 63.5h-305z" />
<glyph unicode="&#x42d;" horiz-adv-x="1454" d="M139 434h187q23 -154 118 -230.5t246 -76.5q121 0 212 43t157.5 116.5t108.5 172t63 211.5h-692l34 164h676q2 14 2 27v28q0 104 -27.5 186t-77.5 140.5t-122 89t-158 30.5q-319 0 -448 -305l-178 43q84 211 243.5 318.5t386.5 107.5q133 0 238.5 -43t179.5 -125 t113 -197.5t39 -259.5q0 -172 -45 -336.5t-138.5 -291.5t-238 -205t-340.5 -78q-109 0 -203 31t-165.5 90t-117 147t-53.5 203z" />
<glyph unicode="&#x42e;" horiz-adv-x="2076" d="M86 0l309 1462h189l-133 -626h311q33 133 97.5 253.5t158.5 212t217 144.5t270 53q123 0 225.5 -43t176 -122t114.5 -190.5t41 -250.5q0 -172 -51 -339t-149.5 -298t-243.5 -212t-332 -81q-123 0 -225.5 42t-176 121t-114.5 191.5t-41 251.5q0 49 6 103h-319l-142 -672 h-188zM922 580q0 -100 24.5 -183.5t71.5 -143.5t117.5 -93t160.5 -33q137 0 243 66.5t178.5 174t110.5 242.5t38 275q0 100 -23.5 183t-71 142.5t-117 92t-161.5 32.5q-137 0 -243.5 -66.5t-179.5 -174t-110.5 -242.5t-37.5 -272z" />
<glyph unicode="&#x42f;" horiz-adv-x="1353" d="M-2 0l291 438q51 76 104 132.5t144 91.5q-111 41 -173.5 125.5t-62.5 213.5q0 227 146.5 344t463.5 117h514l-307 -1462h-190l129 606h-230q-63 0 -112 -13t-90 -40t-76 -67t-68 -91l-262 -395h-221zM494 995q0 -98 66.5 -163.5t207.5 -65.5h324l112 537h-315 q-213 0 -304 -70t-91 -238z" />
<glyph unicode="&#x430;" horiz-adv-x="1101" d="M57 258q0 113 48.5 188.5t130 121.5t190.5 66.5t231 24.5l201 7l6 28q10 51 10 88q0 82 -48 132.5t-164 50.5q-129 0 -192.5 -35t-98.5 -127l-162 20q49 154 162.5 217.5t306.5 63.5q186 0 278.5 -84t92.5 -232q0 -33 -4.5 -65.5t-10.5 -60.5l-139 -662h-174l31 145 q-74 -76 -162 -123t-221 -47q-141 0 -226.5 74t-85.5 209zM242 268q0 -61 41 -104t133 -43q74 0 139.5 22.5t116.5 61.5t86 92t47 115l26 129l-176 -9q-119 -6 -198.5 -24.5t-126.5 -51t-67.5 -79.5t-20.5 -109z" />
<glyph unicode="&#x431;" horiz-adv-x="1226" d="M143 455q0 100 16.5 204.5t51.5 203t89 188.5t130 166q96 92 234.5 150t355.5 97l188 33l-10 -156l-174 -30q-90 -16 -159.5 -35t-126 -41.5t-100.5 -50t-81 -62.5q-53 -49 -98 -120.5t-78 -167.5q68 74 165 124t222 50q98 0 171 -35t121 -92.5t72.5 -131t24.5 -153.5 q0 -145 -40 -261t-114.5 -199t-180 -127t-236.5 -44q-111 0 -194 36t-138 101.5t-83 154.5t-28 198zM330 465q0 -74 13 -138.5t45 -112.5t84 -74.5t132 -26.5q86 0 153.5 36.5t115 99t72 143.5t24.5 171q0 131 -59.5 214t-188.5 83q-72 0 -140.5 -25.5t-123.5 -78.5 q-61 -51 -94 -128t-33 -163z" />
<glyph unicode="&#x432;" horiz-adv-x="1116" d="M63 0l226 1071h471q94 0 158.5 -21.5t103.5 -55t55.5 -75.5t16.5 -81q0 -104 -51.5 -178t-161.5 -109q76 -29 112.5 -92.5t36.5 -132.5q0 -150 -103.5 -238t-338.5 -88h-525zM268 143h307q152 0 213.5 46.5t61.5 142.5q0 66 -44 108.5t-149 42.5h-317zM367 614h305 q47 0 91 9.5t79 31t56.5 57.5t21.5 89q0 55 -40 92t-147 37h-299z" />
<glyph unicode="&#x433;" horiz-adv-x="870" d="M63 0l226 1071h708l-32 -153h-529l-194 -918h-179z" />
<glyph unicode="&#x434;" horiz-adv-x="1175" d="M-117 -287l94 439h103q72 57 143.5 191t143.5 357l118 371h686l-192 -919h125l-92 -439h-158l59 287h-815l-59 -287h-156zM283 152h520l160 774h-353l-108 -336q-53 -162 -106.5 -267.5t-112.5 -170.5z" />
<glyph unicode="&#x435;" horiz-adv-x="1167" d="M125 420q0 162 45 289t123 215t185.5 134t230.5 46q100 0 176 -32t127 -87t77.5 -130t26.5 -161q0 -35 -2 -79t-12 -87l-8 -34h-791q-2 -18 -2 -41v-41q0 -59 18.5 -113.5t54.5 -96.5t90 -66.5t128 -24.5q127 0 190.5 48t94.5 138h174q-23 -78 -61 -138.5t-94 -103.5 t-135 -65.5t-186 -22.5q-109 0 -191.5 36t-141 97.5t-88 143.5t-29.5 176zM326 627h612q2 16 3 32.5t1 34.5q0 121 -60.5 197t-189.5 76q-135 0 -231 -83t-135 -257z" />
<glyph unicode="&#x436;" horiz-adv-x="1579" d="M-57 0l327 385q63 72 113.5 113t108.5 59q-39 23 -67 58.5t-44 95.5l-33 123q-12 47 -33.5 73.5t-72.5 26.5q-12 0 -23.5 -1t-21.5 -3t-21 -4l12 133q12 2 29 6q12 2 29.5 4t38.5 2q45 0 77.5 -11t55 -32.5t39 -54.5t30.5 -76l43 -141q23 -78 65 -114t112 -36h53l98 465 h170l-98 -465h39q76 0 129 37t102 111l94 141q59 92 125 134t168 42q33 0 61.5 -5t34.5 -9l-43 -135l-20 4t-21.5 3t-23.5 1q-59 0 -92 -38t-74 -97l-68 -103q-35 -53 -74.5 -86t-88.5 -53q45 -18 71.5 -53t46.5 -82q47 -104 92.5 -209t92.5 -209h-187l-137 326 q-16 39 -32.5 67.5t-38 47t-51 27.5t-72.5 9h-62l-102 -477h-168l100 477h-63q-61 0 -108.5 -25.5t-94.5 -82.5q-78 -94 -158 -185.5t-157 -183.5h-207z" />
<glyph unicode="&#x437;" horiz-adv-x="1075" d="M53 313h168q14 -111 88 -154.5t185 -43.5q135 0 209.5 44t74.5 163q0 74 -50 119.5t-150 45.5h-216l29 131h219q45 0 90 9.5t80 31t56.5 56.5t21.5 86q0 72 -54 114.5t-165 42.5q-141 0 -213 -42t-107 -134l-161 31q45 141 162.5 216t328.5 75q76 0 145.5 -16.5t124 -49 t86 -84t31.5 -118.5q0 -115 -64.5 -182.5t-162.5 -96.5q78 -35 116 -96.5t38 -136.5q0 -182 -125 -268.5t-342 -86.5q-92 0 -170 19.5t-136.5 60.5t-94.5 106.5t-42 157.5z" />
<glyph unicode="&#x438;" horiz-adv-x="1153" d="M63 0l228 1071h168l-172 -805l700 805h172l-229 -1071h-168l170 795l-696 -795h-173z" />
<glyph unicode="&#x439;" horiz-adv-x="1153" d="M63 0l228 1071h168l-172 -805l700 805h172l-229 -1071h-168l170 795l-696 -795h-173zM467 1430q0 16 2 30.5t4 28.5h135q-4 -16 -4 -23v-18q0 -49 33.5 -88t130.5 -39q86 0 140 39t81 129h137q-31 -137 -122 -211.5t-247 -74.5q-135 0 -212.5 57t-77.5 170z" />
<glyph unicode="&#x43a;" horiz-adv-x="1040" d="M63 0l228 1071h176l-100 -465h86q66 0 113.5 33t101.5 115l98 149q31 47 61.5 80t63.5 52.5t70.5 27.5t85.5 8q27 0 57.5 -5t46.5 -9l-43 -135q-10 2 -21 4q-10 2 -22 3t-23 1q-55 0 -81.5 -25.5t-59.5 -77.5l-84 -129q-37 -55 -73.5 -87.5t-90.5 -57.5q49 -18 76 -55 t47 -84l174 -414h-186l-150 369q-23 55 -57.5 81.5t-112.5 26.5h-104l-102 -477h-175z" />
<glyph unicode="&#x43b;" horiz-adv-x="1169" d="M-70 -10l29 153h18q55 0 101.5 20.5t87.5 75t82 145.5t88 232l147 455h697l-226 -1071h-180l195 926h-357l-120 -369q-49 -154 -99.5 -261.5t-111 -176t-134 -99t-170.5 -30.5h-47z" />
<glyph unicode="&#x43c;" horiz-adv-x="1437" d="M63 0l236 1071h207l174 -885l553 885h215l-234 -1071h-165l178 807l-516 -807h-140l-161 819l-181 -819h-166z" />
<glyph unicode="&#x43d;" horiz-adv-x="1189" d="M63 0l228 1071h178l-92 -436h553l92 436h178l-227 -1071h-178l100 483h-553l-100 -483h-179z" />
<glyph unicode="&#x43e;" horiz-adv-x="1230" d="M123 416q0 160 48 286.5t132 216t195.5 137.5t240.5 48q96 0 177 -33t138.5 -93t89.5 -142t32 -181q0 -162 -46.5 -288.5t-129 -216t-195.5 -136.5t-244 -47q-98 0 -178 33t-138.5 93.5t-90 142t-31.5 180.5zM309 424q0 -141 67.5 -225t196.5 -84q92 0 168 39 t130.5 109.5t85 168.5t30.5 215q0 141 -66.5 225t-195.5 84q-92 0 -168 -38.5t-131 -109.5t-86 -169t-31 -215z" />
<glyph unicode="&#x43f;" horiz-adv-x="1163" d="M63 0l228 1071h883l-228 -1071h-180l195 918h-525l-194 -918h-179z" />
<glyph unicode="&#x440;" horiz-adv-x="1224" d="M-23 -397l312 1468h176l-31 -147q72 86 162 133t205 47q100 0 171.5 -37t117 -100.5t66 -145.5t20.5 -170q0 -131 -38 -254t-111 -218t-175 -153.5t-231 -58.5q-113 0 -201 46t-146 145l-118 -555h-179zM326 383q0 -129 75.5 -198.5t198.5 -69.5q88 0 159.5 43t122 116.5 t78 170t27.5 202.5q0 154 -61.5 231.5t-171.5 77.5q-115 0 -215 -73q-59 -45 -104.5 -110.5t-63.5 -145.5l-23 -99q-14 -61 -18 -90.5t-4 -54.5z" />
<glyph unicode="&#x441;" horiz-adv-x="1144" d="M121 418q0 168 47 296t128 215t188.5 131t228.5 44q100 0 174 -28.5t122 -78t73.5 -116t31.5 -140.5l-176 -26q-6 49 -18.5 92t-39 77t-70.5 53t-112 19q-86 0 -157.5 -37.5t-122.5 -106.5t-80 -167t-29 -219q0 -68 14.5 -125t47 -98t83 -64.5t121.5 -23.5 q133 0 205 66.5t101 170.5h182q-23 -88 -64 -159.5t-102 -122t-146 -77t-194 -26.5q-104 0 -186 35t-137.5 95.5t-84 142.5t-28.5 178z" />
<glyph unicode="&#x442;" horiz-adv-x="972" d="M143 920l33 151h918l-33 -151h-367l-194 -920h-181l195 920h-371z" />
<glyph unicode="&#x443;" horiz-adv-x="1073" d="M-35 -365l51 138q23 -8 48.5 -14.5t58.5 -6.5t57.5 8.5t46 27.5t42 50t48.5 76l72 119l-233 1038h196l162 -846l481 846h209q-170 -276 -337 -551.5t-337 -552.5q-51 -86 -94 -154.5t-87 -114.5t-96 -70.5t-122 -24.5q-49 0 -90 8t-76 24z" />
<glyph unicode="&#x444;" horiz-adv-x="1519" d="M113 453q0 143 54 253.5t148.5 186.5t223.5 117t280 49l84 389h172l-84 -395q106 -10 194.5 -48t152 -98.5t97 -140.5t33.5 -174q0 -139 -52 -246.5t-145 -182.5t-222 -117t-281 -48l-80 -377h-172l80 381q-111 10 -200 48t-152.5 96.5t-97 136t-33.5 170.5zM297 465 q0 -133 87 -220t243 -95l161 759q-236 -10 -363.5 -124.5t-127.5 -319.5zM801 147q229 14 356 123t127 318q0 137 -85 223t-238 96z" />
<glyph unicode="&#x445;" horiz-adv-x="1032" d="M-51 0l510 573l-250 498h197l178 -383l338 383h202l-458 -516l270 -555h-195l-204 438l-379 -438h-209z" />
<glyph unicode="&#x446;" horiz-adv-x="1153" d="M63 0l226 1071h180l-195 -919h502l195 919h178l-193 -919h125l-94 -439h-158l62 287h-828z" />
<glyph unicode="&#x447;" horiz-adv-x="1069" d="M160 686q0 23 2 47.5t8 52.5l61 285h179l-56 -258q-12 -59 -12 -102q0 -88 51 -129t176 -41q72 0 124 12t104 29l104 489h178l-227 -1071h-178l90 434q-53 -16 -113.5 -29.5t-134.5 -13.5q-162 0 -259 74t-97 221z" />
<glyph unicode="&#x448;" horiz-adv-x="1644" d="M63 0l228 1071h178l-195 -919h420l197 919h178l-195 -919h424l195 919h178l-227 -1071h-1381z" />
<glyph unicode="&#x449;" horiz-adv-x="1665" d="M63 0l226 1071h180l-195 -919h416l195 919h178l-195 -919h418l195 919h178l-193 -919h125l-94 -439h-158l62 287h-1338z" />
<glyph unicode="&#x44a;" horiz-adv-x="1181" d="M119 922l33 149h419l-84 -393h250q184 0 281.5 -78t97.5 -225q0 -180 -116.5 -277.5t-358.5 -97.5h-475l194 922h-241zM375 147h287q141 0 205.5 52.5t64.5 171.5q0 74 -46 117.5t-147 43.5h-282z" />
<glyph unicode="&#x44b;" horiz-adv-x="1470" d="M63 0l228 1071h178l-82 -393h240q184 0 281.5 -78t97.5 -225q0 -180 -117 -277.5t-357 -97.5h-469zM272 147h279q141 0 205.5 52.5t64.5 171.5q0 74 -46 117.5t-144 43.5h-277zM1081 0l228 1071h180l-227 -1071h-181z" />
<glyph unicode="&#x44c;" horiz-adv-x="1097" d="M63 0l228 1071h178l-82 -393h266q184 0 281.5 -78t97.5 -225q0 -180 -115.5 -277.5t-357.5 -97.5h-496zM272 147h306q141 0 204.5 52.5t63.5 171.5q0 74 -45 117.5t-144 43.5h-303z" />
<glyph unicode="&#x44d;" horiz-adv-x="1146" d="M88 322h170q16 -102 78.5 -155.5t179.5 -53.5q82 0 143.5 28.5t106.5 77.5t73.5 114.5t43.5 141.5h-463l26 137h457q4 31 3 57.5t-5 55.5q-10 109 -71.5 171t-163.5 62q-127 0 -200 -49t-112 -147l-161 31q57 147 175.5 230t315.5 81q96 0 172 -34t128 -92t80 -136 t28 -170q0 -127 -33 -252t-104.5 -226.5t-183.5 -164t-269 -62.5q-86 0 -160 23.5t-129 67.5t-88 111t-37 153z" />
<glyph unicode="&#x44e;" horiz-adv-x="1632" d="M63 0l228 1071h178l-98 -457h233q25 115 79 206t129 153.5t165 96.5t188 34q92 0 168 -33t130.5 -92t84 -141t29.5 -183q0 -162 -46 -288.5t-125 -216t-186.5 -136.5t-230.5 -47q-92 0 -166.5 32t-128 90t-82 141t-28.5 186v59h-242l-100 -475h-179zM766 424 q0 -143 61.5 -226t178.5 -83q82 0 152.5 39t121.5 109.5t80 168.5t29 215q0 143 -61.5 226t-178.5 83q-82 0 -152.5 -38.5t-122 -109.5t-80 -169t-28.5 -215z" />
<glyph unicode="&#x44f;" horiz-adv-x="1116" d="M-31 0l275 362q37 49 70.5 74t68.5 35q-86 29 -136 93.5t-50 156.5q0 182 118.5 266t348.5 84h462l-227 -1071h-180l90 428h-188q-70 0 -113 -24.5t-82 -75.5l-248 -328h-209zM381 725q0 -66 46 -108t138 -42h277l73 351h-278q-133 0 -194.5 -43t-61.5 -158z" />
<glyph unicode="&#x450;" horiz-adv-x="1167" d="M125 420q0 162 45 289t123 215t185.5 134t230.5 46q100 0 176 -32t127 -87t77.5 -130t26.5 -161q0 -35 -2 -79t-12 -87l-8 -34h-791q-2 -18 -2 -41v-41q0 -59 18.5 -113.5t54.5 -96.5t90 -66.5t128 -24.5q127 0 190.5 48t94.5 138h174q-23 -78 -61 -138.5t-94 -103.5 t-135 -65.5t-186 -22.5q-109 0 -191.5 36t-141 97.5t-88 143.5t-29.5 176zM326 627h612q2 16 3 32.5t1 34.5q0 121 -60.5 197t-189.5 76q-135 0 -231 -83t-135 -257zM504 1501h209l182 -291h-168z" />
<glyph unicode="&#x451;" horiz-adv-x="1167" d="M125 420q0 162 45 289t123 215t185.5 134t230.5 46q100 0 176 -32t127 -87t77.5 -130t26.5 -161q0 -35 -2 -79t-12 -87l-8 -34h-791q-2 -18 -2 -41v-41q0 -59 18.5 -113.5t54.5 -96.5t90 -66.5t128 -24.5q127 0 190.5 48t94.5 138h174q-23 -78 -61 -138.5t-94 -103.5 t-135 -65.5t-186 -22.5q-109 0 -191.5 36t-141 97.5t-88 143.5t-29.5 176zM326 627h612q2 16 3 32.5t1 34.5q0 121 -60.5 197t-189.5 76q-135 0 -231 -83t-135 -257zM457 1260l41 202h182l-43 -202h-180zM815 1260l41 202h182l-43 -202h-180z" />
<glyph unicode="&#x452;" horiz-adv-x="1220" d="M113 0l249 1178h-188l29 133h186l33 151h180l-33 -151h389l-30 -133h-387l-70 -334q90 98 187.5 144t193.5 46q152 0 228.5 -82t76.5 -225q0 -47 -10 -100.5t-27 -124.5l-112 -527q-14 -68 -35 -132t-56.5 -113t-94 -80t-150.5 -31q-61 0 -108.5 11.5t-84.5 25.5l58 139 q29 -10 59.5 -17t71.5 -7q76 0 106.5 45t46.5 125l140 647q6 25 10 55.5t4 50.5q0 86 -41 136.5t-135 50.5q-51 0 -111.5 -21.5t-117 -61.5t-99.5 -97.5t-57 -129.5l-123 -571h-178z" />
<glyph unicode="&#x453;" horiz-adv-x="870" d="M63 0l226 1071h708l-32 -153h-529l-194 -918h-179zM494 1210l286 291h228l-328 -291h-186z" />
<glyph unicode="&#x454;" horiz-adv-x="1146" d="M123 424q0 168 50 296t132 213t187.5 128t218.5 43q94 0 163.5 -23.5t117.5 -64.5t77 -99.5t41 -125.5l-170 -29q-8 43 -23.5 79t-42 61.5t-68.5 40.5t-106 15q-143 0 -242.5 -93t-133.5 -253h483l-27 -135h-477q-2 -27 1 -48t7 -44q8 -121 74 -196.5t197 -75.5 q68 0 117 15t85.5 43t61 65.5t41.5 82.5h170q-53 -170 -173 -261t-323 -91q-106 0 -188 36t-137.5 97.5t-84 144.5t-28.5 179z" />
<glyph unicode="&#x455;" horiz-adv-x="1069" d="M66 307h170q2 -57 24.5 -95t59 -60.5t86 -31.5t106.5 -9q133 0 193.5 52t60.5 132q0 72 -34 106.5t-124 55.5l-119 26q-160 35 -227 103.5t-67 181.5q0 86 34.5 148.5t94 104.5t138.5 62.5t167 20.5q188 0 287.5 -79t115.5 -224l-164 -25q-16 90 -69.5 138.5t-180.5 48.5 q-72 0 -119.5 -14.5t-77.5 -39t-42 -56.5t-12 -65q0 -61 36.5 -98t139.5 -59l125 -27q145 -29 212.5 -100.5t67.5 -200.5q0 -92 -37 -155.5t-99 -103.5t-144 -58.5t-170 -18.5q-80 0 -157 16.5t-138.5 56.5t-99 104.5t-37.5 162.5z" />
<glyph unicode="&#x456;" horiz-adv-x="462" d="M68 0l227 1071h178l-227 -1071h-178zM322 1262l43 206h192l-45 -206h-190z" />
<glyph unicode="&#x457;" horiz-adv-x="462" d="M68 0h178l227 1071h-178zM141 1260l41 202h183l-43 -202h-181zM500 1260l41 202h182l-43 -202h-180z" />
<glyph unicode="&#x458;" horiz-adv-x="462" d="M-303 -340l57 137q25 -10 56.5 -18t76.5 -8q74 0 112 43t56 129l240 1128h178l-235 -1112q-18 -78 -43 -141.5t-63 -107.5t-94 -67.5t-138 -23.5q-68 0 -117 12.5t-86 28.5zM322 1262l43 206h192l-45 -206h-190z" />
<glyph unicode="&#x459;" horiz-adv-x="1732" d="M-70 -10l29 153h18q55 0 101.5 20.5t87.5 75t82 145.5t88 232l147 455h650l-84 -393h239q186 0 282.5 -78t96.5 -225q0 -180 -115.5 -277.5t-357.5 -97.5h-467l195 926h-310l-120 -369q-49 -154 -99.5 -261.5t-111 -176t-134 -99t-170.5 -30.5h-47zM936 147h278 q141 0 205 52.5t64 171.5q0 74 -45 117.5t-146 43.5h-274z" />
<glyph unicode="&#x45a;" horiz-adv-x="1740" d="M63 0l228 1071h178l-88 -412h496l88 412h180l-90 -414h248q184 0 278 -77.5t94 -214.5q0 -92 -26.5 -160t-86 -114t-155.5 -68.5t-233 -22.5h-435l107 510h-496l-108 -510h-179zM948 147h277q141 0 203.5 48.5t62.5 158.5q0 72 -44 115t-144 43h-279z" />
<glyph unicode="&#x45b;" horiz-adv-x="1226" d="M115 0l247 1178h-196l31 133h194l33 151h176l-31 -151h416l-31 -133h-413l-70 -334q92 104 190.5 147t190.5 43q150 0 227.5 -80t77.5 -223q0 -53 -12 -117l-133 -614h-178l127 592q6 29 10 53.5t4 48.5q0 86 -41 136.5t-133 50.5q-59 0 -118.5 -21.5t-117.5 -64.5 q-55 -45 -95 -95.5t-56 -128.5l-121 -571h-178z" />
<glyph unicode="&#x45c;" horiz-adv-x="1040" d="M63 0l228 1071h176l-100 -465h86q66 0 113.5 33t101.5 115l98 149q31 47 61.5 80t63.5 52.5t70.5 27.5t85.5 8q27 0 57.5 -5t46.5 -9l-43 -135q-10 2 -21 4q-10 2 -22 3t-23 1q-55 0 -81.5 -25.5t-59.5 -77.5l-84 -129q-37 -55 -73.5 -87.5t-90.5 -57.5q49 -18 76 -55 t47 -84l174 -414h-186l-150 369q-23 55 -57.5 81.5t-112.5 26.5h-104l-102 -477h-175zM588 1210l286 291h228l-328 -291h-186z" />
<glyph unicode="&#x45d;" horiz-adv-x="1153" d="M63 0l228 1071h168l-172 -805l700 805h172l-229 -1071h-168l170 795l-696 -795h-173zM504 1501h209l182 -291h-168z" />
<glyph unicode="&#x45e;" horiz-adv-x="1073" d="M-35 -365l51 138q23 -8 48.5 -14.5t58.5 -6.5t57.5 8.5t46 27.5t42 50t48.5 76l72 119l-233 1038h196l162 -846l481 846h209q-170 -276 -337 -551.5t-337 -552.5q-51 -86 -94 -154.5t-87 -114.5t-96 -70.5t-122 -24.5q-49 0 -90 8t-76 24zM385 1438q0 16 2 30.5t4 28.5 h135q-4 -16 -4 -23v-18q0 -49 33.5 -88t130.5 -39q86 0 140 39t81 129h137q-31 -137 -122 -211.5t-247 -74.5q-135 0 -212.5 57t-77.5 170z" />
<glyph unicode="&#x45f;" horiz-adv-x="1163" d="M63 0l226 1071h180l-195 -917h527l194 917h179l-228 -1071h-362l-60 -287h-157l59 287h-363z" />
<glyph unicode="&#x462;" horiz-adv-x="1505" d="M168 1178l33 153h348l39 189h188l-41 -189h484l-35 -153h-482l-55 -263h266q236 0 372 -97t136 -304q0 -248 -152.5 -381t-473.5 -133h-529l250 1178h-348zM487 160h330q213 0 314.5 79.5t101.5 270.5q0 119 -79 182.5t-232 63.5h-310z" />
<glyph unicode="&#x463;" horiz-adv-x="1230" d="M141 926l31 139h250l90 434h180l-90 -434h436l-30 -139h-437l-51 -248h266q184 0 281.5 -78t97.5 -225q0 -180 -111.5 -277.5t-361.5 -97.5h-495l194 926h-250zM406 147h307q141 0 204.5 52.5t63.5 171.5q0 74 -45 117.5t-145 43.5h-304z" />
<glyph unicode="&#x472;" horiz-adv-x="1566" d="M172 569q0 172 53.5 339t156.5 298t252 212t339 81q129 0 235.5 -43t183 -122t118.5 -190.5t42 -250.5q0 -172 -52 -339t-153.5 -298t-251 -212t-341.5 -81q-129 0 -235.5 42t-183.5 121t-120 191.5t-43 251.5zM371 580q0 -100 25.5 -183.5t74.5 -143.5t123 -93t170 -33 q111 0 201 40t160.5 109.5t118.5 160.5t75 194q-70 -35 -125 -45.5t-104 -10.5q-80 0 -139.5 28t-115 61.5t-111.5 62.5t-130 29q-106 0 -217 -64q-4 -29 -5 -56.5t-1 -55.5zM408 846q55 31 115.5 45t117.5 14q78 0 137.5 -28.5t113.5 -62.5t112.5 -61.5t132.5 -27.5 q53 0 106 15.5t105 41.5q6 51 6 101q0 98 -25.5 182t-75 143.5t-123 93t-169.5 33.5q-109 0 -198 -39t-158.5 -106.5t-120 -156.5t-76.5 -187z" />
<glyph unicode="&#x473;" horiz-adv-x="1230" d="M123 416q0 160 48 287.5t132 217t195.5 136.5t240.5 47q96 0 177 -33t138.5 -92t89.5 -142t32 -182q0 -162 -46.5 -288.5t-129 -216t-195.5 -136.5t-244 -47q-98 0 -178 33t-138.5 93.5t-90 142t-31.5 180.5zM307 422q0 -141 67.5 -226t198.5 -85q141 0 245 90t147 245 q-41 -20 -82 -26t-82 -6q-53 0 -92 18.5t-76 42t-77 42t-93 18.5q-82 0 -154 -33q-2 -20 -2 -40v-40zM334 629q41 18 82 25.5t84 7.5q57 0 97 -18.5t77 -41t74.5 -41t89.5 -18.5q41 0 76.5 6t72.5 26q2 16 3 35t1 39q0 141 -67.5 227.5t-196.5 86.5q-143 0 -245.5 -90.5 t-147.5 -243.5z" />
<glyph unicode="&#x474;" horiz-adv-x="1552" d="M260 1462h201l194 -1218l551 987q33 59 68 106t78 81t97 52.5t124 18.5q66 0 122 -20.5t99 -51.5l-76 -145q-29 20 -61.5 34.5t-73.5 14.5t-69.5 -11.5t-53 -35t-47 -57t-47.5 -76.5l-659 -1141h-193z" />
<glyph unicode="&#x475;" d="M154 1071h198l135 -872l342 600q43 76 80 132t77 93t87 54.5t113 17.5q63 0 110 -22.5t80 -49.5l-78 -129q-20 16 -44.5 29.5t-63.5 13.5q-31 0 -53.5 -11.5t-45 -34t-46 -59t-54.5 -88.5l-446 -745h-193z" />
<glyph unicode="&#x48a;" horiz-adv-x="1441" d="M86 0l311 1462h185l-246 -1140l969 1140h180l-277 -1296h142q-12 -102 -45 -184t-80 -148.5t-104.5 -119t-121.5 -93.5l-104 123q72 49 136.5 116.5t94.5 139.5h-137l246 1141l-971 -1141h-178zM666 1812q0 16 2 31t4 29h135q-4 -16 -4 -23.5v-17.5q0 -49 33.5 -88 t130.5 -39q86 0 140 39t81 129h137q-31 -137 -122 -212t-247 -75q-135 0 -212.5 57.5t-77.5 169.5z" />
<glyph unicode="&#x48b;" horiz-adv-x="1165" d="M63 0l228 1071h168l-172 -805l700 805h172l-196 -919h116q-12 -80 -32.5 -145.5t-54.5 -120t-82 -99.5t-113 -88l-95 104q59 43 106.5 93.5t70.5 103.5h-117l170 795l-696 -795h-173zM467 1427q0 16 2 31t4 29h135q-4 -16 -4 -23.5v-17.5q0 -49 34 -88t130 -39 q86 0 140.5 39t80.5 129h137q-31 -137 -122 -212t-246 -75q-135 0 -213 57.5t-78 169.5z" />
<glyph unicode="&#x48c;" horiz-adv-x="1320" d="M94 0l238 1126h-187l33 154h187l38 182h189l-39 -182h358l-32 -154h-361l-45 -223h260q236 0 372 -96t136 -299q0 -248 -152.5 -378t-474.5 -130h-520zM315 160h322q211 0 313.5 78.5t102.5 263.5q0 117 -79 178t-233 61h-303z" />
<glyph unicode="&#x48d;" horiz-adv-x="1179" d="M115 825l28 140h205l27 131h180l-27 -131h381l-28 -140h-383l-31 -155h272q184 0 280.5 -77t96.5 -224q0 -180 -110.5 -274.5t-352.5 -94.5h-508l174 825h-204zM354 147h310q141 0 204.5 50.5t63.5 167.5q0 76 -45 117.5t-146 41.5h-307z" />
<glyph unicode="&#x48e;" horiz-adv-x="1304" d="M86 0l309 1462h502q131 0 221 -34.5t145.5 -88t80 -120t24.5 -129.5q0 -197 -90 -312.5t-250 -169.5l78 -182l-131 -61l-92 213q-39 -6 -78 -8.5t-80 -2.5h-332l-121 -567h-186zM426 727h264h64.5t66.5 2l-88 209l131 61l101 -243q98 33 153.5 109.5t55.5 217.5 q0 94 -69 157t-239 63h-317z" />
<glyph unicode="&#x48f;" horiz-adv-x="1224" d="M-23 -397l312 1468h176l-31 -147q72 86 162 133t205 47q100 0 171.5 -37t117 -100.5t66 -145.5t20.5 -170q0 -96 -21.5 -188t-61.5 -174t-97.5 -147.5t-131.5 -108.5l84 -193l-123 -57l-86 203q-55 -18 -118 -19q-113 0 -201 46t-146 145l-118 -555h-179zM326 383 q0 -123 70.5 -191.5t174.5 -74.5q29 -2 53.5 -1t51.5 9l-98 242l122 59l101 -238q88 72 137 195t49 264q0 154 -61.5 231.5t-171.5 77.5q-115 0 -215 -73q-61 -47 -104.5 -108.5t-63.5 -147.5l-23 -99q-14 -59 -18 -90.5t-4 -54.5z" />
<glyph unicode="&#x490;" horiz-adv-x="1073" d="M86 0l309 1462h715l45 203h172l-80 -369h-698l-275 -1296h-188z" />
<glyph unicode="&#x491;" horiz-adv-x="870" d="M63 0l228 1071h551l35 170h157l-67 -323h-531l-194 -918h-179z" />
<glyph unicode="&#x492;" horiz-adv-x="1122" d="M84 664l33 159h188l135 639h887l-35 -166h-698l-98 -473h424l-33 -159h-426l-139 -664h-189l139 664h-188z" />
<glyph unicode="&#x493;" horiz-adv-x="917" d="M61 457l29 141h148l98 473h708l-32 -153h-529l-69 -320h329l-30 -141h-328l-96 -457h-178l96 457h-146z" />
<glyph unicode="&#x494;" horiz-adv-x="1316" d="M86 0l311 1462h865l-37 -166h-674l-96 -446q72 23 148.5 37t168.5 14q231 0 350 -134t119 -364q0 -158 -46 -292t-140 -232t-234.5 -153.5t-328.5 -55.5h-91l35 164h70q123 0 222 36t170 105.5t110 174t39 243.5q0 168 -78 259t-248 91q-74 0 -148.5 -12t-150.5 -41 l-146 -690h-190z" />
<glyph unicode="&#x495;" horiz-adv-x="1091" d="M63 0l226 1071h743l-33 -151h-563l-69 -330q57 20 114.5 30.5t120.5 10.5q104 0 180 -33t125 -88t71.5 -129t22.5 -158q0 -152 -44 -269.5t-128 -199.5t-204.5 -125t-276.5 -43h-69l30 148h60q217 0 331.5 123t114.5 360q0 135 -62.5 200.5t-199.5 65.5q-59 0 -111.5 -11 t-105.5 -32l-94 -440h-179z" />
<glyph unicode="&#x496;" horiz-adv-x="2095" d="M-31 0l502 594q68 82 121 122t119 56q-57 27 -91 80t-57 131l-49 184q-20 76 -53 108t-99 32q-51 0 -88 -7l23 148q16 4 48 9t67 5q106 0 161.5 -45t88.5 -157l49 -179q35 -121 90 -184t164 -63h75l131 628h189l-135 -628h61q98 0 180 58t170 189l111 170q41 61 82 102.5 t84 65t90 33.5t102 10q41 0 73 -5t44 -9l-47 -156q-10 2 -21 4q-10 2 -22 3t-29 1q-37 0 -65.5 -6t-55 -26.5t-56.5 -56t-68 -97.5l-91 -137q-51 -82 -107 -132t-134 -81q49 -20 86 -66.5t71 -124.5l181 -407h127l-111 -520h-172l76 354h-58l-213 500q-20 47 -39.5 79.5 t-45 53t-59.5 30t-81 9.5h-94l-143 -672h-189l144 672h-107q-43 0 -78 -9.5t-67.5 -32t-68.5 -59t-81 -92.5l-401 -479h-234z" />
<glyph unicode="&#x497;" horiz-adv-x="1601" d="M-57 0l327 385q63 72 113.5 113t108.5 59q-39 23 -67 58.5t-44 95.5l-33 123q-12 47 -33.5 73.5t-72.5 26.5q-12 0 -23.5 -1t-21.5 -3t-21 -4l12 133q12 2 29 6q12 2 29.5 4t38.5 2q45 0 77.5 -11t55 -32.5t39 -54.5t30.5 -76l43 -141q23 -78 65 -114t112 -36h53l98 465 h170l-98 -465h39q76 0 129 37t102 111l94 141q59 92 125 134t168 42q33 0 61.5 -5t34.5 -9l-43 -135l-20 4t-21.5 3t-23.5 1q-59 0 -92 -38t-74 -97l-68 -103q-35 -53 -74.5 -86t-88.5 -53q45 -18 71.5 -53t46.5 -82l117 -266h113l-92 -439h-154l59 287h-45l-137 326 q-16 39 -32.5 67.5t-38 47t-51 27.5t-72.5 9h-62l-102 -477h-168l100 477h-63q-61 0 -108.5 -25.5t-94.5 -82.5q-78 -94 -158 -185.5t-157 -183.5h-207z" />
<glyph unicode="&#x498;" horiz-adv-x="1263" d="M102 391h181q8 -78 31.5 -130t64.5 -83t101.5 -44t140.5 -13q78 0 143 17.5t113.5 55t75 100t26.5 155.5q0 117 -76 174t-213 57h-178l35 160h176q82 0 150.5 16t117.5 51t77 90.5t28 135.5q0 98 -72 153t-197 55q-86 0 -148.5 -12t-108.5 -39.5t-78.5 -74t-57.5 -111.5 l-172 26q29 84 74 152t113.5 116t163 74.5t223.5 26.5q100 0 181 -26.5t138 -72.5t88 -111.5t31 -141.5q0 -84 -22.5 -147.5t-62.5 -110.5t-93.5 -79t-114.5 -52q98 -51 140 -131t42 -168q0 -117 -35.5 -206t-102.5 -152.5t-160 -97.5t-210 -40l-39 -76q96 -16 132 -61 t36 -88q0 -109 -79.5 -149t-204.5 -40q-31 0 -66 4.5t-69 10.5l22 108q37 -6 62.5 -9t56.5 -3q63 0 96 18.5t33 61.5q0 29 -32 47t-109 18h-43l86 160q-209 16 -318.5 122t-116.5 304z" />
<glyph unicode="&#x499;" horiz-adv-x="1075" d="M53 313h168q14 -111 88 -154.5t185 -43.5q135 0 209.5 44t74.5 163q0 74 -50 119.5t-150 45.5h-216l29 131h219q45 0 90 9.5t80 31t56.5 56.5t21.5 86q0 72 -54 114.5t-165 42.5q-141 0 -213 -42t-107 -134l-161 31q45 141 162.5 216t328.5 75q76 0 145.5 -16.5t124 -49 t86 -84t31.5 -118.5q0 -115 -64.5 -182.5t-162.5 -96.5q78 -35 116 -96.5t38 -136.5q0 -174 -111 -258t-307 -95l-39 -75q92 -14 126 -55.5t34 -84.5q0 -104 -76 -143t-195 -39q-29 0 -61.5 4t-67.5 10l21 109q35 -8 60.5 -10t53.5 -2q61 0 92 15t31 56q0 29 -30.5 46.5 t-104.5 17.5h-41l82 153q-80 6 -146.5 29t-115.5 63.5t-79 102t-36 145.5z" />
<glyph unicode="&#x49a;" horiz-adv-x="1359" d="M86 0l309 1462h189l-131 -626h75q113 0 193 62.5t158 170.5l94 131q51 70 95 120t89 82t95.5 46t113.5 14q39 0 74 -6t41 -10l-47 -156q-6 2 -27 6t-47 4q-33 0 -59.5 -7t-51 -25.5t-50 -47t-56.5 -71.5l-105 -143q-59 -82 -119.5 -143.5t-150.5 -98.5q33 -12 57.5 -31.5 t46 -50.5t43 -73t46.5 -97l157 -346h127l-110 -520h-170l73 354h-43l-221 492q-43 94 -95 137t-149 43h-110l-146 -672h-188z" />
<glyph unicode="&#x49b;" horiz-adv-x="1069" d="M63 0l228 1071h176l-100 -465h86q66 0 113.5 33t101.5 115l98 149q31 47 61.5 80t63.5 52.5t70.5 27.5t85.5 8q27 0 57.5 -5t46.5 -9l-43 -135q-10 2 -21 4q-10 2 -22 3t-23 1q-55 0 -81.5 -25.5t-59.5 -77.5l-84 -129q-37 -55 -73.5 -87.5t-90.5 -57.5q49 -18 76 -55 t47 -84l111 -262h110l-92 -439h-157l59 287h-43l-150 369q-23 55 -57.5 81.5t-112.5 26.5h-104l-102 -477h-175z" />
<glyph unicode="&#x49c;" horiz-adv-x="1366" d="M86 0l309 1462h189l-133 -628h129l61 278h137l-53 -246q59 29 108.5 81t98.5 122l94 131q51 70 95 120t89 82t95.5 46t113.5 14q39 0 74 -6t41 -10l-47 -156q-6 2 -26.5 6t-47.5 4q-33 0 -59.5 -7t-51 -25.5t-50 -47t-56.5 -71.5l-104 -143q-59 -82 -120 -143.5 t-151 -98.5q33 -12 57.5 -31.5t46 -50.5t43 -73t46.5 -97l235 -512h-200l-222 492q-31 68 -64.5 108.5t-82.5 58.5l-51 -245h-137l55 260h-127l-146 -674h-188z" />
<glyph unicode="&#x49d;" horiz-adv-x="1099" d="M63 0l228 1071h176l-100 -467h102l47 223h117l-45 -209q37 14 69.5 47t69.5 89l98 149q31 47 62 80t63.5 52.5t70.5 27.5t85 8q27 0 57.5 -5t46.5 -9l-43 -135l-20 4t-22.5 3t-22.5 1q-55 0 -82 -25.5t-59 -77.5l-84 -129q-37 -55 -74 -87.5t-90 -57.5q49 -18 75.5 -55 t47.5 -84l174 -414h-187l-149 369q-16 45 -42 70.5t-73 35.5l-45 -213h-117l43 217h-100l-102 -479h-175z" />
<glyph unicode="&#x49e;" horiz-adv-x="1355" d="M129 0l227 1081h-166l31 158h170l47 223h189l-47 -223h215l-31 -158h-217l-51 -245h75q113 0 193 62.5t158 170.5l94 131q51 70 95 120t89 82t95.5 46t113.5 14q39 0 74 -6t41 -10l-47 -156q-8 2 -29 6t-45 4q-33 0 -59.5 -7t-51 -25.5t-50 -47t-56.5 -71.5l-105 -143 q-59 -82 -119.5 -143.5t-150.5 -98.5q33 -12 57.5 -31.5t46 -50.5t43 -73t46.5 -97l235 -512h-201l-221 492q-43 96 -95 138t-149 42h-110l-146 -672h-188z" />
<glyph unicode="&#x49f;" horiz-adv-x="1099" d="M117 0l166 786h-150l29 136h149l33 149h176l-33 -149h183l-29 -136h-182l-39 -180h92q66 0 114 33t101 115l98 149q31 47 62 80t63.5 52.5t70.5 27.5t85 8q27 0 57.5 -5t46.5 -9l-43 -135l-20 4t-22.5 3t-22.5 1q-55 0 -82 -25.5t-59 -77.5l-84 -129q-37 -55 -74 -87.5 t-90 -57.5q49 -18 75.5 -55t47.5 -84l174 -414h-187l-149 369q-23 55 -57.5 81.5t-112.5 26.5h-111l-102 -477h-174z" />
<glyph unicode="&#x4a0;" horiz-adv-x="1478" d="M229 1296l35 166h488l-131 -626h75q113 0 193 62.5t158 170.5l94 131q51 70 95 120t89 82t95 46t114 14q39 0 73.5 -6t41.5 -10l-47 -156q-6 2 -27 6t-47 4q-33 0 -59.5 -7t-51 -25.5t-50.5 -47t-56 -71.5l-105 -143q-59 -82 -119.5 -143.5t-150.5 -98.5 q33 -12 57.5 -31.5t46 -50.5t43 -73t45.5 -97l236 -512h-201l-221 492q-43 96 -95 138t-149 42h-110l-146 -672h-188l274 1296h-299z" />
<glyph unicode="&#x4a1;" horiz-adv-x="1150" d="M150 922l32 149h398l-5 -4l-98 -461h86q66 0 114 33t101 115l99 149q31 47 61.5 80t63 52.5t70.5 27.5t85 8q27 0 57.5 -5t47.5 -9l-43 -135q-10 2 -21 4q-10 2 -22.5 3t-22.5 1q-55 0 -82 -25.5t-59 -77.5l-84 -129q-37 -55 -74 -87.5t-90 -57.5q49 -18 75.5 -55 t47.5 -84l174 -414h-187l-149 369q-23 55 -57.5 81.5t-112.5 26.5h-104l-103 -477h-174l195 922h-219z" />
<glyph unicode="&#x4a2;" horiz-adv-x="1464" d="M86 0l309 1462h191l-131 -618h737l131 618h188l-272 -1296h141l-110 -520h-172l76 354h-160l141 668h-737l-142 -668h-190z" />
<glyph unicode="&#x4a3;" horiz-adv-x="1210" d="M63 0l228 1071h178l-92 -436h553l92 436h178l-194 -919h122l-92 -439h-157l61 287h-145l100 483h-553l-100 -483h-179z" />
<glyph unicode="&#x4a4;" horiz-adv-x="1601" d="M86 0l309 1462h189l-131 -618h739l131 618h485l-36 -166h-295l-275 -1296h-188l141 668h-739l-142 -668h-188z" />
<glyph unicode="&#x4a5;" horiz-adv-x="1300" d="M63 0l228 1071h178l-92 -436h553l92 436h412l-33 -149h-234l-194 -922h-178l100 483h-553l-100 -483h-179z" />
<glyph unicode="&#x4a6;" horiz-adv-x="2187" d="M86 0l309 1462h1059l-129 -612q72 23 148.5 37t168.5 14q231 0 350 -134t119 -364q0 -158 -46 -292t-140 -232t-234.5 -153.5t-328.5 -55.5h-90l35 164h71q121 0 221.5 36t172 105.5t110.5 174t39 243.5q0 168 -79 259t-251 91q-74 0 -148.5 -12t-152.5 -41l-145 -690 h-189l273 1296h-682l-273 -1296h-188z" />
<glyph unicode="&#x4a7;" horiz-adv-x="1789" d="M63 0l228 1071h883l-105 -481q57 20 114.5 30.5t121.5 10.5q104 0 180 -33t125 -88t72.5 -129t23.5 -158q0 -303 -171 -470t-484 -167h-68l31 148h57q217 0 333 123t116 360q0 135 -62.5 200.5t-200.5 65.5q-61 0 -113 -11t-106 -32l-92 -440h-178l193 920h-525 l-194 -920h-179z" />
<glyph unicode="&#x4a8;" horiz-adv-x="1693" d="M170 557q0 182 53 352t157.5 301t260.5 210t360 79q78 0 147 -16.5t132 -46.5l-72 -148q-49 23 -103 36t-120 13q-158 0 -273.5 -67.5t-193.5 -175t-115.5 -243.5t-37.5 -273q0 -221 108.5 -340t298.5 -119q43 0 91 4t81 16q-66 80 -106.5 181.5t-40.5 222.5 q0 109 31.5 220t95 202.5t160 150t225.5 58.5q88 0 151.5 -31t104.5 -84t60.5 -126t19.5 -157q0 -199 -102.5 -364.5t-276.5 -284.5q29 -10 58.5 -12t66.5 -2q53 0 101 7t95 21l23 -143q-66 -23 -138.5 -30t-130.5 -7q-66 0 -135 18.5t-123 47.5q-59 -27 -145 -45.5 t-178 -18.5q-129 0 -236.5 40t-186.5 116t-123 186.5t-44 251.5zM973 553q0 -113 32.5 -212t104.5 -159q70 37 135.5 96.5t115.5 136.5t81 171t31 202q0 49 -9.5 91.5t-31 75t-57.5 51t-89 18.5q-76 0 -134 -43t-98 -110.5t-60.5 -151.5t-20.5 -166z" />
<glyph unicode="&#x4a9;" horiz-adv-x="1294" d="M123 424q0 133 38 256t112.5 217t186 150.5t257.5 56.5q59 0 113.5 -13.5t101.5 -35.5l-60 -129q-39 18 -77.5 26.5t-94.5 8.5q-96 0 -170.5 -42t-126 -113t-79 -166t-27.5 -202q0 -72 18.5 -133t54.5 -106t89 -71t125 -26q27 0 52.5 2t49.5 9q-51 53 -78.5 131 t-27.5 157q0 82 23.5 161t71.5 141.5t118.5 100.5t162.5 38q117 0 187.5 -74t70.5 -195q0 -141 -63.5 -264t-204.5 -209q43 -6 82 -6q78 0 152 27l26 -121q-27 -10 -75.5 -23.5t-124.5 -13.5q-51 0 -113 13.5t-100 37.5q-51 -23 -109.5 -35t-134.5 -12q-92 0 -170 32 t-134.5 92.5t-89 144t-32.5 188.5zM729 403q0 -61 19.5 -130.5t78.5 -120.5q115 59 175.5 167.5t60.5 249.5q0 66 -31 105t-94 39q-49 0 -87 -27t-65.5 -70t-42 -98t-14.5 -115z" />
<glyph unicode="&#x4aa;" horiz-adv-x="1454" d="M170 584q0 182 52 348t151.5 292t243 200.5t323.5 74.5q250 0 381 -130t152 -355l-189 -31q-23 176 -102.5 264t-251.5 88q-129 0 -232.5 -58t-177.5 -158.5t-112.5 -234.5t-38.5 -284q0 -98 23.5 -184t72.5 -150.5t123 -101.5t174 -37q190 0 293.5 94t138.5 248h205 q-25 -104 -71 -193.5t-118.5 -156t-173 -106.5t-231.5 -48l-39 -78q96 -16 132 -61t36 -88q0 -109 -80 -149t-205 -40q-31 0 -65.5 4.5t-69.5 10.5l23 108q37 -6 62.5 -9t55.5 -3q63 0 96 18.5t33 61.5q0 29 -31.5 47t-109.5 18h-43l86 162q-121 10 -217 58.5t-162.5 128 t-101.5 189.5t-35 241z" />
<glyph unicode="&#x4ab;" horiz-adv-x="1144" d="M121 418q0 168 47 296t128 215t188.5 131t228.5 44q100 0 174 -28.5t122 -78t73.5 -116t31.5 -140.5l-176 -26q-6 49 -18.5 92t-39 77t-70.5 53t-112 19q-86 0 -157.5 -37.5t-122.5 -106.5t-80 -167t-29 -219q0 -68 14.5 -125t47 -98t83 -64.5t121.5 -23.5 q133 0 205 66.5t101 170.5h182q-43 -170 -154.5 -271t-308.5 -112l-39 -73q92 -14 126 -55.5t34 -84.5q0 -104 -76 -143t-194 -39q-29 0 -62 4t-67 10l20 109q35 -8 60.5 -10t54.5 -2q61 0 92 15t31 56q0 29 -31 46.5t-105 17.5h-41l82 153q-88 10 -156.5 48t-114.5 97.5 t-69.5 135.5t-23.5 164z" />
<glyph unicode="&#x4ac;" horiz-adv-x="1230" d="M236 1294l36 168h1155l-34 -168h-484l-237 -1128h143l-113 -520h-176l76 354h-156l275 1294h-485z" />
<glyph unicode="&#x4ad;" horiz-adv-x="964" d="M127 920l33 151h917l-33 -151h-366l-162 -768h125l-92 -439h-158l60 287h-148l197 920h-373z" />
<glyph unicode="&#x4ae;" horiz-adv-x="1255" d="M262 1462h203l250 -676l534 676h213l-680 -841l-131 -621h-188l129 621z" />
<glyph unicode="&#x4af;" horiz-adv-x="1071" d="M145 1071h203l170 -844l490 844h204l-645 -1048l-88 -418h-178l88 418z" />
<glyph unicode="&#x4b0;" horiz-adv-x="1255" d="M254 487l35 158h295l-322 817h203l250 -676l536 676h211l-659 -817h295l-35 -158h-309l-103 -487h-188l102 487h-311z" />
<glyph unicode="&#x4b1;" horiz-adv-x="1071" d="M133 0l33 147h194l-213 924h201l170 -844l490 844h204l-569 -924h207l-31 -147h-256l-84 -395h-178l84 395h-252z" />
<glyph unicode="&#x4b2;" horiz-adv-x="1316" d="M-51 0l678 776l-332 686h209l256 -557l489 557h213l-618 -702l291 -598h116l-98 -473h-166l66 311h-52l-294 625l-543 -625h-215z" />
<glyph unicode="&#x4b3;" horiz-adv-x="1058" d="M-51 0l510 573l-250 498h197l178 -383l338 383h202l-458 -516l196 -403h117l-94 -439h-156l59 287h-47l-204 438l-379 -438h-209z" />
<glyph unicode="&#x4b4;" horiz-adv-x="1624" d="M223 1298l35 164h979l-37 -164h-430l-240 -1132h676l273 1296h190l-274 -1296h143l-111 -520h-172l76 354h-1024l273 1298h-357z" />
<glyph unicode="&#x4b5;" horiz-adv-x="1255" d="M145 920l31 151h676l-31 -151h-282l-162 -768h504l192 919h180l-194 -919h125l-92 -439h-158l59 287h-827l194 920h-215z" />
<glyph unicode="&#x4b6;" horiz-adv-x="1335" d="M233 926q0 35 2.5 70.5t12.5 76.5l82 389h190l-74 -344q-6 -33 -13 -70.5t-7 -82.5q0 -115 65.5 -171.5t225.5 -56.5q84 0 169 15.5t158 44.5l148 665h190l-286 -1296h143l-111 -520h-178l76 354h-158l142 645q-78 -29 -170 -47t-181 -18q-94 0 -170.5 21.5t-133 65.5 t-88 108.5t-34.5 150.5z" />
<glyph unicode="&#x4b7;" horiz-adv-x="1089" d="M160 686q0 23 2 47.5t8 52.5l61 285h179l-56 -258q-12 -59 -12 -102q0 -88 51 -129t176 -41q59 0 117.5 12t110.5 29l104 489h178l-194 -919h127l-92 -439h-160l61 287h-147l90 434q-53 -16 -121 -29.5t-127 -13.5q-162 0 -259 74t-97 221z" />
<glyph unicode="&#x4b8;" horiz-adv-x="1323" d="M233 936q0 33 3.5 67.5t11.5 69.5l82 389h190l-74 -348q-6 -33 -13 -67.5t-7 -81.5q2 -94 46 -149.5t155 -74.5l67 277h154l-68 -281q72 4 142.5 19.5t136.5 38.5l147 667h191l-324 -1462h-190l143 645q-63 -23 -136 -39t-145 -20l-61 -260h-156l64 258 q-162 16 -260.5 104t-98.5 248z" />
<glyph unicode="&#x4b9;" horiz-adv-x="1083" d="M160 686q0 23 2 47.5t8 52.5l61 285h179l-56 -262q-6 -29 -10 -57.5t-4 -51.5q0 -68 30.5 -106.5t104.5 -52.5l47 217h137l-47 -221q51 4 101.5 14t95.5 27l106 493h179l-228 -1071h-178l92 438q-43 -16 -94 -26.5t-102 -14.5l-45 -209h-138l43 211q-131 16 -207.5 87 t-76.5 200z" />
<glyph unicode="&#x4ba;" horiz-adv-x="1308" d="M86 0l309 1462h189l-129 -614q78 31 170 48t184 17q188 0 301 -88t117 -260q2 -35 0 -70.5t-13 -76.5l-88 -418h-188l78 373q16 76 16 119q6 68 -5 117.5t-45 82.5t-91 49.5t-143 16.5q-84 0 -167 -15.5t-157 -42.5l-150 -700h-188z" />
<glyph unicode="&#x4bb;" horiz-adv-x="1167" d="M63 0l310 1462h178l-117 -549q92 104 190.5 147.5t192.5 43.5q147 0 225 -80t78 -223q0 -55 -12 -117l-145 -684h-179l140 659q6 29 10 53.5t4 51.5q0 86 -41 136t-133 50q-59 0 -119.5 -21.5t-118.5 -66.5q-55 -43 -94 -94t-55 -129l-135 -639h-179z" />
<glyph unicode="&#x4bc;" horiz-adv-x="1824" d="M158 920q0 68 22.5 124t65.5 115l135 -45q-25 -37 -44.5 -77t-19.5 -91q0 -63 52.5 -95t144.5 -32q31 154 98.5 279t166 214t221 138t264.5 49q137 0 239.5 -42t171 -116.5t102 -180t33.5 -230.5q0 -49 -4 -105.5t-10 -103.5l-8 -55h-1102q-2 -27 -2 -48.5v-44.5 q0 -98 26.5 -180t79 -141t130 -92t180.5 -33q92 0 162.5 22.5t121 61.5t84 90t52.5 107h198q-70 -213 -224.5 -329t-401.5 -116q-152 0 -264.5 47t-186.5 131t-110.5 197t-36.5 246v41t2 41q-154 2 -246 65.5t-92 188.5zM709 819h905q4 29 5 61.5t1 61.5q0 88 -21.5 162 t-66.5 126t-114.5 80.5t-166.5 28.5q-104 0 -192 -37.5t-158 -106.5t-119 -165t-73 -211z" />
<glyph unicode="&#x4bd;" horiz-adv-x="1363" d="M70 707q0 47 13 93t50 99l119 -37q-23 -31 -33 -65.5t-10 -67.5q0 -57 37 -77.5t96 -22.5q25 113 78 202t125.5 149t164 92t193.5 32q100 0 176 -32t127 -87t78 -130t27 -161q0 -35 -2 -79t-13 -87l-8 -34h-790q-2 -18 -2 -41v-41q0 -59 18 -113.5t54 -96.5t90.5 -66.5 t127.5 -24.5q127 0 190.5 48t94.5 138h174q-23 -78 -60.5 -138.5t-94 -103.5t-135 -65.5t-185.5 -22.5q-109 0 -191.5 36t-141 97.5t-88.5 143.5t-30 176v37.5t3 38.5q-51 2 -97.5 15t-80 38.5t-54 64.5t-20.5 93zM520 627h613q2 16 3 32.5t1 34.5q0 121 -60.5 197 t-189.5 76q-135 0 -231.5 -83t-135.5 -257z" />
<glyph unicode="&#x4be;" horiz-adv-x="1824" d="M158 920q0 68 22.5 124t65.5 115l135 -45q-25 -37 -44.5 -77t-19.5 -91q0 -63 52.5 -95t144.5 -32q31 154 98.5 279t166 214t221 138t264.5 49q137 0 239.5 -42t171 -116.5t102 -180t33.5 -230.5q0 -49 -4 -105.5t-10 -103.5l-8 -55h-1102q-2 -27 -2 -48.5v-44.5 q0 -98 26.5 -180t79 -141t130 -92t180.5 -33q92 0 162.5 22.5t121 61.5t84 90t52.5 107h198q-66 -205 -209 -319t-372 -124l-68 -319h-178l70 327q-119 18 -206 72.5t-145.5 134.5t-87 183.5t-28.5 220.5v41t2 41q-154 2 -246 65.5t-92 188.5zM709 819h905q4 29 5 61.5 t1 61.5q0 88 -21.5 162t-66.5 126t-114.5 80.5t-166.5 28.5q-104 0 -192 -37.5t-158 -106.5t-119 -165t-73 -211z" />
<glyph unicode="&#x4bf;" horiz-adv-x="1363" d="M70 707q0 47 13 93t50 99l119 -37q-23 -31 -33 -65.5t-10 -67.5q0 -57 37 -77.5t96 -22.5q25 113 78 202t125.5 149t164 92t193.5 32q100 0 176 -32t127 -87t78 -130t27 -161q0 -35 -2 -79t-13 -87l-8 -34h-790q-2 -18 -2 -41v-41q0 -59 18 -113.5t54 -96.5t90.5 -66.5 t127.5 -24.5q127 0 190.5 48t94.5 138h174q-43 -141 -137 -227t-274 -101l-54 -256h-159l55 262q-86 14 -152.5 54.5t-111.5 99.5t-69 133t-24 158v37.5t3 38.5q-51 2 -97.5 15t-80 38.5t-54 64.5t-20.5 93zM520 627h613q2 16 3 32.5t1 34.5q0 121 -60.5 197t-189.5 76 q-135 0 -231.5 -83t-135.5 -257z" />
<glyph unicode="&#x4c0;" horiz-adv-x="512" d="M88 0l309 1462h189l-310 -1462h-188z" />
<glyph unicode="&#x4c1;" horiz-adv-x="2054" d="M-31 0l502 594q68 82 121 122t119 56q-57 27 -91 80t-57 131l-49 184q-20 76 -53 108t-99 32q-51 0 -88 -7l23 148q16 4 48 9t67 5q106 0 161.5 -45t88.5 -157l49 -179q35 -121 90 -184t164 -63h75l131 628h189l-135 -628h61q98 0 180 58t170 189l111 170q41 61 82 102.5 t84 65t90 33.5t102 10q41 0 73 -5t44 -9l-47 -156q-10 2 -21 4q-10 2 -22 3t-29 1q-37 0 -65.5 -6t-55 -26.5t-56.5 -56t-68 -97.5l-91 -137q-51 -82 -107 -132t-134 -81q49 -20 86 -66.5t71 -124.5l254 -573h-211l-213 500q-20 47 -40.5 79.5t-45 53t-58.5 30t-81 9.5h-94 l-143 -672h-189l144 672h-107q-43 0 -78 -9.5t-67.5 -32t-68.5 -59t-81 -92.5l-401 -479h-234zM1000 1831q0 16 2 30.5t4 28.5h135q-4 -16 -4 -23v-18q0 -49 33.5 -88t130.5 -39q86 0 140 39t81 129h137q-31 -137 -122 -211.5t-247 -74.5q-135 0 -212.5 57t-77.5 170z" />
<glyph unicode="&#x4c2;" horiz-adv-x="1579" d="M-57 0l327 385q63 72 113.5 113t108.5 59q-39 23 -67 58.5t-44 95.5l-33 123q-12 47 -33.5 73.5t-72.5 26.5q-12 0 -23.5 -1t-21.5 -3t-21 -4l12 133q12 2 29 6q12 2 29.5 4t38.5 2q45 0 77.5 -11t55 -32.5t39 -54.5t30.5 -76l43 -141q23 -78 65 -114t112 -36h53l98 465 h170l-98 -465h39q76 0 129 37t102 111l94 141q59 92 125 134t168 42q33 0 61.5 -5t34.5 -9l-43 -135l-20 4t-21.5 3t-23.5 1q-59 0 -92 -38t-74 -97l-68 -103q-35 -53 -74.5 -86t-88.5 -53q45 -18 71.5 -53t46.5 -82q47 -104 92.5 -209t92.5 -209h-187l-137 326 q-16 39 -32.5 67.5t-38 47t-51 27.5t-72.5 9h-62l-102 -477h-168l100 477h-63q-61 0 -108.5 -25.5t-94.5 -82.5q-78 -94 -158 -185.5t-157 -183.5h-207zM670 1444q0 16 2 30.5t4 28.5h135q-4 -16 -4 -23v-18q0 -49 33.5 -88t130.5 -39q86 0 140 39t81 129h137 q-31 -137 -122 -211.5t-247 -74.5q-135 0 -212.5 57t-77.5 170z" />
<glyph unicode="&#x4c3;" horiz-adv-x="1329" d="M86 0l309 1462h189l-133 -628h88q104 0 182 65.5t153 169.5l123 170q43 61 85 103t86 69t92.5 39t105.5 12q37 0 69.5 -6t41.5 -10l-47 -156q-8 4 -27 7t-45 3q-35 0 -62.5 -8t-52 -25.5t-49.5 -46t-55 -71.5l-125 -170q-41 -55 -84 -101.5t-96 -74.5q104 -14 182 -56 t129 -103.5t75.5 -140.5t24.5 -167q0 -147 -48 -269t-143.5 -210t-236.5 -137.5t-330 -49.5h-77l36 166h76q246 0 388.5 125t142.5 367q0 76 -22.5 139t-69 109.5t-114 72t-155.5 25.5h-272l-146 -674h-188z" />
<glyph unicode="&#x4c4;" horiz-adv-x="1079" d="M63 0l226 1071h178l-98 -461h75q68 0 115 31t100 113l101 149q31 47 58.5 80t60 52.5t72.5 27.5t93 8q27 0 56.5 -5t46.5 -9l-41 -137q-10 2 -21 4q-10 2 -22 4t-23 2q-55 0 -82.5 -25.5t-62.5 -77.5l-88 -131q-49 -76 -115 -112q141 -33 219 -137.5t78 -245.5 q0 -291 -161.5 -453t-481.5 -162h-76l31 148h66q221 0 330.5 118.5t109.5 342.5q0 131 -75 205.5t-218 74.5h-172l-100 -475h-179z" />
<glyph unicode="&#x4c5;" horiz-adv-x="1503" d="M-31 -12l33 166h29q72 0 135 27.5t124.5 100t121 200.5t123.5 331l202 649h826l-275 -1296h135q-12 -102 -44.5 -184t-80 -148.5t-104.5 -119t-121 -93.5l-102 123q72 49 135 116.5t94 139.5h-137l276 1300h-462l-183 -585q-66 -211 -136.5 -351.5t-152 -223.5 t-177 -117.5t-212.5 -34.5h-47z" />
<glyph unicode="&#x4c6;" horiz-adv-x="1181" d="M-70 -10l29 153h18q55 0 101.5 20.5t87.5 75t82 145.5t88 232l147 455h697l-195 -921l2 2h115q-10 -80 -30.5 -145.5t-54.5 -120t-82 -99.5t-114 -88l-96 104q59 43 106.5 93.5t69.5 103.5h-127l195 926h-357l-120 -369q-49 -154 -99.5 -261.5t-111 -176t-134 -99 t-170.5 -30.5h-47z" />
<glyph unicode="&#x4c7;" horiz-adv-x="1439" d="M86 0l309 1462h191l-131 -618h737l131 618h188l-325 -1538q-20 -90 -49 -154.5t-71 -106.5t-100.5 -62.5t-134.5 -20.5q-68 0 -114.5 13.5t-83.5 27.5l51 141q27 -10 58.5 -16t74.5 -6q72 0 114 37t62 135l162 756h-737l-142 -668h-190z" />
<glyph unicode="&#x4c8;" horiz-adv-x="1189" d="M63 0l228 1071h178l-92 -436h553l92 436h178l-244 -1151q-18 -82 -41.5 -145.5t-61.5 -106.5t-94.5 -65.5t-140.5 -22.5q-68 0 -114.5 12.5t-83.5 28.5l53 137q25 -10 56.5 -18t76.5 -8q72 0 111 44t57 128l121 579h-553l-100 -483h-179z" />
<glyph unicode="&#x4c9;" horiz-adv-x="1458" d="M86 0l309 1462h191l-131 -618h737l131 618h188l-274 -1296h137q-12 -102 -45 -184t-80 -148.5t-104.5 -119t-120.5 -93.5l-104 123q72 49 136 116.5t93 139.5h-135l141 668h-737l-142 -668h-190z" />
<glyph unicode="&#x4ca;" horiz-adv-x="1200" d="M63 0l228 1071h178l-92 -436h553l92 436h178l-194 -919h116q-12 -80 -32.5 -145.5t-54.5 -120t-82 -99.5t-113 -88l-95 104q59 43 106.5 93.5t70.5 103.5h-127l100 483h-553l-100 -483h-179z" />
<glyph unicode="&#x4cb;" horiz-adv-x="1308" d="M233 926q0 35 2.5 70.5t12.5 76.5l82 389h190l-74 -344q-6 -33 -13 -70.5t-7 -82.5q0 -115 65.5 -171.5t225.5 -56.5q84 0 169 15.5t158 44.5l148 665h190l-323 -1462h-160l-74 -354h-176l113 520h141v-8l107 487q-78 -29 -170 -47t-181 -18q-94 0 -170.5 21.5t-133 65.5 t-88 108.5t-34.5 150.5z" />
<glyph unicode="&#x4cc;" horiz-adv-x="1069" d="M160 686q0 23 2 47.5t8 52.5l61 285h179l-56 -258q-12 -59 -12 -102q0 -88 51 -129t176 -41q72 0 124 12t104 29l104 489h178l-227 -1071h-145l-60 -287h-160l95 439h123v-5l59 287q-53 -16 -113.5 -29.5t-134.5 -13.5q-162 0 -259 74t-97 221z" />
<glyph unicode="&#x4cd;" horiz-adv-x="1753" d="M86 0l309 1462h230l211 -1237l737 1237h233l-274 -1296h135q-12 -102 -45 -184t-79 -148.5t-103.5 -119t-120.5 -93.5l-105 123q72 49 135.5 116.5t94.5 139.5h-123l246 1153l-695 -1153h-161l-209 1149l-242 -1149h-174z" />
<glyph unicode="&#x4ce;" horiz-adv-x="1445" d="M63 0l236 1071h207l174 -885l553 885h215l-201 -919h117q-12 -80 -32.5 -145.5t-54.5 -120t-82 -99.5t-114 -88l-94 104q59 43 106.5 93.5t69.5 103.5h-114l178 807l-516 -807h-140l-161 819l-181 -819h-166z" />
<glyph unicode="&#x4cf;" horiz-adv-x="512" d="M88 0l309 1462h189l-310 -1462h-188z" />
<glyph unicode="&#x4d0;" horiz-adv-x="1380" d="M2 0l878 1462h197l258 -1462h-195l-69 408h-625l-239 -408h-205zM536 571h512l-114 678zM711 1802q0 16 2 30.5t4 28.5h135q-4 -16 -4 -23v-18q0 -49 33.5 -88t130.5 -39q86 0 140 39t81 129h137q-31 -137 -122 -211.5t-247 -74.5q-135 0 -212.5 57t-77.5 170z" />
<glyph unicode="&#x4d1;" horiz-adv-x="1101" d="M57 258q0 113 48.5 188.5t130 121.5t190.5 66.5t231 24.5l201 7l6 28q10 51 10 88q0 82 -48 132.5t-164 50.5q-129 0 -192.5 -35t-98.5 -127l-162 20q49 154 162.5 217.5t306.5 63.5q186 0 278.5 -84t92.5 -232q0 -33 -4.5 -65.5t-10.5 -60.5l-139 -662h-174l31 145 q-74 -76 -162 -123t-221 -47q-141 0 -226.5 74t-85.5 209zM242 268q0 -61 41 -104t133 -43q74 0 139.5 22.5t116.5 61.5t86 92t47 115l26 129l-176 -9q-119 -6 -198.5 -24.5t-126.5 -51t-67.5 -79.5t-20.5 -109zM422 1428q0 16 2 30.5t4 28.5h135q-4 -16 -4 -23v-18 q0 -49 33.5 -88t130.5 -39q86 0 140 39t81 129h137q-31 -137 -122 -211.5t-247 -74.5q-135 0 -212.5 57t-77.5 170z" />
<glyph unicode="&#x4d2;" horiz-adv-x="1380" d="M-51 0l878 1462h197l258 -1462h-195l-69 408h-625l-239 -408h-205zM483 571h512l-114 678zM662 1618l45 209h186l-45 -209h-186zM1030 1618l45 209h189l-45 -209h-189z" />
<glyph unicode="&#x4d3;" horiz-adv-x="1101" d="M57 258q0 113 48.5 188.5t130 121.5t190.5 66.5t231 24.5l201 7l6 28q10 51 10 88q0 82 -48 132.5t-164 50.5q-129 0 -192.5 -35t-98.5 -127l-162 20q49 154 162.5 217.5t306.5 63.5q186 0 278.5 -84t92.5 -232q0 -33 -4.5 -65.5t-10.5 -60.5l-139 -662h-174l31 145 q-74 -76 -162 -123t-221 -47q-141 0 -226.5 74t-85.5 209zM242 268q0 -61 41 -104t133 -43q74 0 139.5 22.5t116.5 61.5t86 92t47 115l26 129l-176 -9q-119 -6 -198.5 -24.5t-126.5 -51t-67.5 -79.5t-20.5 -109zM439 1260l41 202h182l-43 -202h-180zM797 1260l41 202h182 l-43 -202h-180z" />
<glyph unicode="&#x4d4;" horiz-adv-x="2101" d="M-74 0l1161 1462h1141l-33 -166h-712l-99 -458h672l-35 -168h-671l-107 -504h754l-62 -166h-909l102 485h-602l-383 -485h-217zM651 647h512l140 649h-142z" />
<glyph unicode="&#x4d5;" horiz-adv-x="1826" d="M55 262q0 115 47.5 188.5t126 117.5t184 63.5t222.5 25.5l207 9l8 55q2 14 3 26.5t1 22.5q0 86 -46 140.5t-161 54.5q-121 0 -182.5 -35t-97.5 -127l-162 20q49 154 160.5 217.5t291.5 63.5q254 0 320 -186q72 92 167 139t232 47q98 0 173 -32t125 -87t75 -129t25 -160 q0 -35 -2.5 -78t-10.5 -83l-8 -41h-774v-70q0 -66 17.5 -123t51 -99t86 -66.5t123.5 -24.5q127 0 187.5 49t91.5 137h174q-23 -78 -59.5 -138.5t-93 -103.5t-133 -65.5t-181.5 -22.5q-84 0 -147.5 19.5t-110.5 53.5t-80 79t-53 94q-45 -59 -92 -104.5t-102.5 -75t-122 -44 t-148.5 -14.5q-154 0 -243 76t-89 211zM242 272q0 -66 40 -108.5t138 -42.5q88 0 152.5 22.5t108.5 62.5t70.5 94t39.5 116l26 125l-182 -9q-115 -6 -189.5 -23t-120.5 -49t-64.5 -78t-18.5 -110zM997 627h600q6 37 7 82q0 117 -60.5 187.5t-183.5 70.5q-133 0 -228.5 -83 t-134.5 -257z" />
<glyph unicode="&#x4d6;" horiz-adv-x="1216" d="M88 0l309 1462h946l-34 -166h-758l-98 -458h716l-34 -168h-717l-107 -504h799l-61 -166h-961zM592 1802q0 16 2 30.5t4 28.5h135q-4 -16 -4 -23v-18q0 -49 33.5 -88t130.5 -39q86 0 140 39t81 129h137q-31 -137 -122 -211.5t-247 -74.5q-135 0 -212.5 57t-77.5 170z" />
<glyph unicode="&#x4d7;" horiz-adv-x="1167" d="M125 420q0 162 45 289t123 215t185.5 134t230.5 46q100 0 176 -32t127 -87t77.5 -130t26.5 -161q0 -35 -2 -79t-12 -87l-8 -34h-791q-2 -18 -2 -41v-41q0 -59 18.5 -113.5t54.5 -96.5t90 -66.5t128 -24.5q127 0 190.5 48t94.5 138h174q-23 -78 -61 -138.5t-94 -103.5 t-135 -65.5t-186 -22.5q-109 0 -191.5 36t-141 97.5t-88 143.5t-29.5 176zM326 627h612q2 16 3 32.5t1 34.5q0 121 -60.5 197t-189.5 76q-135 0 -231 -83t-135 -257zM430 1436q0 16 2 30.5t4 28.5h135q-4 -16 -4 -23v-18q0 -49 33.5 -88t130.5 -39q86 0 140 39t81 129h137 q-31 -137 -122 -211.5t-247 -74.5q-135 0 -212.5 57t-77.5 170z" />
<glyph unicode="&#x4d8;" horiz-adv-x="1523" d="M217 532q0 39 4 100.5t10 104.5l9 60h1077q2 27 2 51v51q0 88 -22.5 167t-71.5 139.5t-125 96t-182 35.5q-170 0 -266.5 -70.5t-159.5 -203.5l-175 45q82 195 237 293t372 98q143 0 252.5 -47t183.5 -131t110.5 -199.5t36.5 -251.5q0 -193 -53 -358.5t-151.5 -287.5 t-236.5 -191.5t-306 -69.5q-135 0 -236.5 44t-170 121t-103.5 181.5t-35 222.5zM401 530q0 -188 95.5 -297.5t275.5 -109.5q203 0 336 139t184 381h-884q-2 -23 -4.5 -53.5t-2.5 -59.5z" />
<glyph unicode="&#x4d9;" horiz-adv-x="1179" d="M127 389q0 33 6 85t17 106h798q2 16 3 33.5t1 35.5q0 66 -17 122t-51 98t-86.5 67t-119.5 25q-133 0 -207 -49.5t-121 -151.5l-157 37q66 156 185.5 231.5t311.5 75.5q106 0 188.5 -37t137.5 -100.5t83.5 -148.5t28.5 -181q0 -158 -44 -282t-120.5 -210t-183 -132 t-229.5 -46q-104 0 -184 31t-133.5 86t-80 133t-26.5 172zM299 371q0 -117 61.5 -191t196.5 -74q154 0 248 90.5t127 249.5h-627q-6 -35 -6 -75z" />
<glyph unicode="&#x4da;" horiz-adv-x="1529" d="M221 532q0 39 4 100.5t10 104.5l9 60h1077q2 27 2 51v51q0 88 -22.5 167t-71.5 139.5t-125 96t-182 35.5q-170 0 -266.5 -70.5t-159.5 -203.5l-175 45q82 195 237 293t372 98q143 0 252.5 -47t183.5 -131t110.5 -199.5t36.5 -251.5q0 -193 -53 -358.5t-151.5 -287.5 t-236.5 -191.5t-306 -69.5q-135 0 -236.5 44t-170 121t-103.5 181.5t-35 222.5zM405 530q0 -188 95.5 -297.5t275.5 -109.5q203 0 336 139t184 381h-884q-2 -23 -4.5 -53.5t-2.5 -59.5zM721 1618l45 209h186l-45 -209h-186zM1089 1618l45 209h189l-45 -209h-189z" />
<glyph unicode="&#x4db;" horiz-adv-x="1179" d="M127 389q0 33 6 85t17 106h798q2 16 3 33.5t1 35.5q0 66 -17 122t-51 98t-86.5 67t-119.5 25q-133 0 -207 -49.5t-121 -151.5l-157 37q66 156 185.5 231.5t311.5 75.5q106 0 188.5 -37t137.5 -100.5t83.5 -148.5t28.5 -181q0 -158 -44 -282t-120.5 -210t-183 -132 t-229.5 -46q-104 0 -184 31t-133.5 86t-80 133t-26.5 172zM299 371q0 -117 61.5 -191t196.5 -74q154 0 248 90.5t127 249.5h-627q-6 -35 -6 -75zM467 1260l41 202h182l-43 -202h-180zM825 1260l41 202h182l-43 -202h-180z" />
<glyph unicode="&#x4dc;" horiz-adv-x="2054" d="M-31 0l502 594q68 82 121 122t119 56q-57 27 -91 80t-57 131l-49 184q-20 76 -53 108t-99 32q-51 0 -88 -7l23 148q16 4 48 9t67 5q106 0 161.5 -45t88.5 -157l49 -179q35 -121 90 -184t164 -63h75l131 628h189l-135 -628h61q98 0 180 58t170 189l111 170q41 61 82 102.5 t84 65t90 33.5t102 10q41 0 73 -5t44 -9l-47 -156q-10 2 -21 4q-10 2 -22 3t-29 1q-37 0 -65.5 -6t-55 -26.5t-56.5 -56t-68 -97.5l-91 -137q-51 -82 -107 -132t-134 -81q49 -20 86 -66.5t71 -124.5l254 -573h-211l-213 500q-20 47 -40.5 79.5t-45 53t-58.5 30t-81 9.5h-94 l-143 -672h-189l144 672h-107q-43 0 -78 -9.5t-67.5 -32t-68.5 -59t-81 -92.5l-401 -479h-234zM1014 1618l45 209h186l-45 -209h-186zM1382 1618l45 209h189l-45 -209h-189z" />
<glyph unicode="&#x4dd;" horiz-adv-x="1579" d="M-57 0l327 385q63 72 113.5 113t108.5 59q-39 23 -67 58.5t-44 95.5l-33 123q-12 47 -33.5 73.5t-72.5 26.5q-12 0 -23.5 -1t-21.5 -3t-21 -4l12 133q12 2 29 6q12 2 29.5 4t38.5 2q45 0 77.5 -11t55 -32.5t39 -54.5t30.5 -76l43 -141q23 -78 65 -114t112 -36h53l98 465 h170l-98 -465h39q76 0 129 37t102 111l94 141q59 92 125 134t168 42q33 0 61.5 -5t34.5 -9l-43 -135l-20 4t-21.5 3t-23.5 1q-59 0 -92 -38t-74 -97l-68 -103q-35 -53 -74.5 -86t-88.5 -53q45 -18 71.5 -53t46.5 -82q47 -104 92.5 -209t92.5 -209h-187l-137 326 q-16 39 -32.5 67.5t-38 47t-51 27.5t-72.5 9h-62l-102 -477h-168l100 477h-63q-61 0 -108.5 -25.5t-94.5 -82.5q-78 -94 -158 -185.5t-157 -183.5h-207zM707 1260l41 202h182l-43 -202h-180zM1065 1260l41 202h182l-43 -202h-180z" />
<glyph unicode="&#x4de;" horiz-adv-x="1263" d="M108 391h181q8 -78 31.5 -130t64.5 -83t101.5 -44t140.5 -13q78 0 143 17.5t113.5 55t75 100t26.5 155.5q0 117 -76 174t-213 57h-178l35 160h176q82 0 150.5 16t117.5 51t77 90.5t28 135.5q0 98 -72 153t-197 55q-86 0 -148.5 -12t-108.5 -39.5t-78.5 -74t-57.5 -111.5 l-172 26q29 84 74 152t113.5 116t163 74.5t223.5 26.5q100 0 181 -26.5t138 -72.5t88 -111.5t31 -141.5q0 -84 -22.5 -147.5t-62.5 -110.5t-93.5 -79t-114.5 -52q98 -51 140 -131t42 -168q0 -121 -39 -214t-111.5 -156.5t-174 -95.5t-226.5 -32q-244 0 -372.5 107.5 t-137.5 322.5zM586 1618l45 209h186l-45 -209h-186zM954 1618l45 209h189l-45 -209h-189z" />
<glyph unicode="&#x4df;" horiz-adv-x="1075" d="M53 313h168q14 -111 88 -154.5t185 -43.5q135 0 209.5 44t74.5 163q0 74 -50 119.5t-150 45.5h-216l29 131h219q45 0 90 9.5t80 31t56.5 56.5t21.5 86q0 72 -54 114.5t-165 42.5q-141 0 -213 -42t-107 -134l-161 31q45 141 162.5 216t328.5 75q76 0 145.5 -16.5t124 -49 t86 -84t31.5 -118.5q0 -115 -64.5 -182.5t-162.5 -96.5q78 -35 116 -96.5t38 -136.5q0 -182 -125 -268.5t-342 -86.5q-92 0 -170 19.5t-136.5 60.5t-94.5 106.5t-42 157.5zM401 1260l41 202h183l-43 -202h-181zM760 1260l41 202h182l-43 -202h-180z" />
<glyph unicode="&#x4e0;" horiz-adv-x="1198" d="M53 391h176q12 -147 96.5 -208.5t243.5 -61.5q82 0 149.5 18.5t117 59.5t76 106.5t26.5 157.5q0 117 -77 181.5t-222 64.5h-190l28 135l508 452h-696l33 166h938l-29 -145l-539 -469q94 -4 174 -28.5t137.5 -72t89 -116t31.5 -158.5q0 -125 -38.5 -220t-112.5 -159.5 t-178.5 -97.5t-235.5 -33q-256 0 -380 116t-126 312z" />
<glyph unicode="&#x4e1;" horiz-adv-x="1009" d="M-63 -45h169q14 -127 89 -179t211 -52q143 0 231 81.5t88 257.5q0 125 -77 195t-220 70h-172l18 129l510 471h-598l29 143h829l-22 -117l-545 -491q195 -10 311.5 -104.5t116.5 -278.5q0 -242 -131 -371t-379 -129q-213 0 -331.5 94.5t-126.5 280.5z" />
<glyph unicode="&#x4e2;" horiz-adv-x="1411" d="M86 0l311 1462h185l-246 -1140l969 1140h180l-311 -1462h-185l246 1141l-971 -1141h-178zM665 1628l33 152h598l-33 -152h-598z" />
<glyph unicode="&#x4e3;" horiz-adv-x="1153" d="M63 0l228 1071h168l-172 -805l700 805h172l-229 -1071h-168l170 795l-696 -795h-173zM586 1274l31 145h534l-31 -145h-534z" />
<glyph unicode="&#x4e4;" horiz-adv-x="1411" d="M86 0l311 1462h185l-246 -1140l969 1140h180l-311 -1462h-185l246 1141l-971 -1141h-178zM684 1618l45 209h186l-45 -209h-186zM1052 1618l45 209h189l-45 -209h-189z" />
<glyph unicode="&#x4e5;" horiz-adv-x="1153" d="M63 0l228 1071h168l-172 -805l700 805h172l-229 -1071h-168l170 795l-696 -795h-173zM488 1260l41 202h182l-43 -202h-180zM846 1260l41 202h182l-43 -202h-180z" />
<glyph unicode="&#x4e6;" horiz-adv-x="1566" d="M174 569q0 172 53.5 339t155.5 298t251 212t339 81q129 0 234.5 -43t182 -122t118.5 -190.5t42 -250.5q0 -172 -52 -339t-152.5 -298t-250 -212t-341.5 -81q-129 0 -235.5 42t-183.5 121t-119 191.5t-42 251.5zM371 580q0 -100 25.5 -183.5t74.5 -143.5t123 -93t170 -33 q143 0 252.5 66.5t184.5 174t114 242.5t39 275q0 100 -25.5 183t-75 142.5t-123 92t-169.5 32.5q-143 0 -253 -66.5t-184.5 -174t-113.5 -242.5t-39 -272zM721 1618l45 209h186l-45 -209h-186zM1089 1618l45 209h189l-45 -209h-189z" />
<glyph unicode="&#x4e7;" horiz-adv-x="1230" d="M123 416q0 160 48 286.5t132 216t195.5 137.5t240.5 48q96 0 177 -33t138.5 -93t89.5 -142t32 -181q0 -162 -46.5 -288.5t-129 -216t-195.5 -136.5t-244 -47q-98 0 -178 33t-138.5 93.5t-90 142t-31.5 180.5zM311 424q0 -141 66.5 -225t195.5 -84q92 0 168 39 t131.5 109.5t86 168.5t30.5 215q0 141 -67.5 225t-196.5 84q-92 0 -168 -38.5t-130 -109.5t-85 -169t-31 -215zM485 1260l43 202h181l-43 -202h-181zM844 1260l43 202h182l-43 -202h-182z" />
<glyph unicode="&#x4e8;" horiz-adv-x="1566" d="M172 569q0 172 53.5 339t156.5 298t252 212t339 81q129 0 235.5 -43t183 -122t118.5 -190.5t42 -250.5q0 -172 -52 -339t-153.5 -298t-251 -212t-341.5 -81q-129 0 -235.5 42t-183.5 121t-120 191.5t-43 251.5zM371 580q0 -100 25.5 -183.5t74.5 -143.5t123 -93t170 -33 q117 0 211 44t164.5 117.5t118 170t71.5 200.5h-954q-4 -23 -4 -40v-39zM403 825h949q2 16 2 34v34q0 82 -21.5 162t-68.5 142.5t-122 100t-181 37.5q-111 0 -201 -41t-161 -110.5t-120 -161.5t-76 -197z" />
<glyph unicode="&#x4e9;" horiz-adv-x="1230" d="M123 416q0 160 48 287.5t132 217t195.5 136.5t240.5 47q96 0 177 -33t138.5 -92t89.5 -142t32 -182q0 -162 -46.5 -288.5t-129 -216t-195.5 -136.5t-244 -47q-98 0 -178 33t-138.5 93.5t-90 142t-31.5 180.5zM308 432q1 -20 3 -41q8 -129 73.5 -203.5t188.5 -74.5 q74 0 138.5 25.5t117 73.5t88 114.5t54.5 148.5h-662q-2 -23 -1 -43zM330 616h661q0 16 -1 34t-3 34q-8 125 -73.5 199.5t-188.5 74.5q-72 0 -135.5 -24.5t-113.5 -69.5t-88 -108.5t-58 -139.5z" />
<glyph unicode="&#x4ea;" horiz-adv-x="1566" d="M172 569q0 172 53.5 339t156.5 298t252 212t339 81q129 0 235.5 -43t183 -122t118.5 -190.5t42 -250.5q0 -172 -52 -339t-153.5 -298t-251 -212t-341.5 -81q-129 0 -235.5 42t-183.5 121t-120 191.5t-43 251.5zM371 580q0 -100 25.5 -183.5t74.5 -143.5t123 -93t170 -33 q117 0 211 44t164.5 117.5t118 170t71.5 200.5h-954q-4 -23 -4 -40v-39zM403 825h949q2 16 2 34v34q0 82 -21.5 162t-68.5 142.5t-122 100t-181 37.5q-111 0 -201 -41t-161 -110.5t-120 -161.5t-76 -197zM721 1618l45 209h186l-45 -209h-186zM1089 1618l45 209h189l-45 -209 h-189z" />
<glyph unicode="&#x4eb;" horiz-adv-x="1230" d="M123 416q0 160 48 287.5t132 217t195.5 136.5t240.5 47q96 0 177 -33t138.5 -92t89.5 -142t32 -182q0 -162 -46.5 -288.5t-129 -216t-195.5 -136.5t-244 -47q-98 0 -178 33t-138.5 93.5t-90 142t-31.5 180.5zM308 432q1 -20 3 -41q8 -129 73.5 -203.5t188.5 -74.5 q74 0 138.5 25.5t117 73.5t88 114.5t54.5 148.5h-662q-2 -23 -1 -43zM330 616h661q0 16 -1 34t-3 34q-8 125 -73.5 199.5t-188.5 74.5q-72 0 -135.5 -24.5t-113.5 -69.5t-88 -108.5t-58 -139.5zM496 1260l41 202h182l-43 -202h-180zM854 1260l41 202h182l-43 -202h-180z" />
<glyph unicode="&#x4ec;" horiz-adv-x="1454" d="M139 434h187q23 -154 118 -230.5t246 -76.5q121 0 212 43t157.5 116.5t108.5 172t63 211.5h-692l34 164h676q2 14 2 27v28q0 104 -27.5 186t-77.5 140.5t-122 89t-158 30.5q-319 0 -448 -305l-178 43q84 211 243.5 318.5t386.5 107.5q133 0 238.5 -43t179.5 -125 t113 -197.5t39 -259.5q0 -172 -45 -336.5t-138.5 -291.5t-238 -205t-340.5 -78q-109 0 -203 31t-165.5 90t-117 147t-53.5 203zM629 1618l45 209h184l-43 -209h-186zM995 1618l45 209h189l-45 -209h-189z" />
<glyph unicode="&#x4ed;" horiz-adv-x="1146" d="M88 322h170q16 -102 78.5 -155.5t179.5 -53.5q82 0 143.5 28.5t106.5 77.5t73.5 114.5t43.5 141.5h-463l26 137h457q4 31 3 57.5t-5 55.5q-10 109 -71.5 171t-163.5 62q-127 0 -200 -49t-112 -147l-161 31q57 147 175.5 230t315.5 81q96 0 172 -34t128 -92t80 -136 t28 -170q0 -127 -33 -252t-104.5 -226.5t-183.5 -164t-269 -62.5q-86 0 -160 23.5t-129 67.5t-88 111t-37 153zM434 1260l41 202h182l-43 -202h-180zM792 1260l41 202h182l-43 -202h-180z" />
<glyph unicode="&#x4ee;" horiz-adv-x="1193" d="M31 8l55 146q37 -16 76 -25.5t86 -9.5q72 0 124 35.5t109 124.5l84 127l-307 1056h199l229 -880l541 880h200l-714 -1134q-63 -100 -115.5 -170t-106 -113t-111.5 -62.5t-132 -19.5q-63 0 -119.5 12.5t-97.5 32.5zM553 1628l33 152h598l-33 -152h-598z" />
<glyph unicode="&#x4ef;" horiz-adv-x="1073" d="M-35 -365l51 138q23 -8 48.5 -14.5t58.5 -6.5t57.5 8.5t46 27.5t42 50t48.5 76l72 119l-233 1038h196l162 -846l481 846h209q-170 -276 -337 -551.5t-337 -552.5q-51 -86 -94 -154.5t-87 -114.5t-96 -70.5t-122 -24.5q-49 0 -90 8t-76 24zM522 1274l31 145h534l-31 -145 h-534z" />
<glyph unicode="&#x4f0;" horiz-adv-x="1193" d="M31 8l55 146q37 -16 76 -25.5t86 -9.5q72 0 124 35.5t109 124.5l84 127l-307 1056h199l229 -880l541 880h200l-714 -1134q-63 -100 -115.5 -170t-106 -113t-111.5 -62.5t-132 -19.5q-63 0 -119.5 12.5t-97.5 32.5zM568 1618l45 209h186l-45 -209h-186zM936 1618l45 209 h189l-45 -209h-189z" />
<glyph unicode="&#x4f1;" horiz-adv-x="1073" d="M-35 -365l51 138q23 -8 48.5 -14.5t58.5 -6.5t57.5 8.5t46 27.5t42 50t48.5 76l72 119l-233 1038h196l162 -846l481 846h209q-170 -276 -337 -551.5t-337 -552.5q-51 -86 -94 -154.5t-87 -114.5t-96 -70.5t-122 -24.5q-49 0 -90 8t-76 24zM422 1260l41 202h182l-43 -202 h-180zM780 1260l41 202h182l-43 -202h-180z" />
<glyph unicode="&#x4f2;" horiz-adv-x="1193" d="M31 8l55 146q37 -16 76 -25.5t86 -9.5q72 0 124 35.5t109 124.5l84 127l-307 1056h199l229 -880l541 880h200l-714 -1134q-63 -100 -115.5 -170t-106 -113t-111.5 -62.5t-132 -19.5q-63 0 -119.5 12.5t-97.5 32.5zM536 1583l271 277h215l-314 -277h-172zM911 1583 l268 277h215l-313 -277h-170z" />
<glyph unicode="&#x4f3;" horiz-adv-x="1075" d="M-35 -365l51 138q23 -8 48.5 -14.5t58.5 -6.5t57.5 8.5t46 27.5t42 50t48.5 76l72 119l-233 1038h196l162 -846l481 846h209q-170 -276 -337 -551.5t-337 -552.5q-51 -86 -94 -154.5t-87 -114.5t-96 -70.5t-122 -24.5q-49 0 -90 8t-76 24zM403 1210l277 291h209 l-320 -291h-166zM766 1210l274 291h209l-317 -291h-166z" />
<glyph unicode="&#x4f4;" horiz-adv-x="1308" d="M233 926q0 35 2.5 70.5t12.5 76.5l82 389h190l-74 -344q-6 -33 -13 -70.5t-7 -82.5q0 -115 65.5 -171.5t225.5 -56.5q84 0 169 15.5t158 44.5l148 665h190l-323 -1462h-191l142 645q-78 -29 -170 -47t-181 -18q-94 0 -170.5 21.5t-133 65.5t-88 108.5t-34.5 150.5z M604 1618l45 209h186l-45 -209h-186zM972 1618l45 209h189l-45 -209h-189z" />
<glyph unicode="&#x4f5;" horiz-adv-x="1069" d="M160 686q0 23 2 47.5t8 52.5l61 285h179l-56 -258q-12 -59 -12 -102q0 -88 51 -129t176 -41q72 0 124 12t104 29l104 489h178l-227 -1071h-178l90 434q-53 -16 -113.5 -29.5t-134.5 -13.5q-162 0 -259 74t-97 221zM412 1260l41 202h182l-43 -202h-180zM770 1260l41 202 h182l-43 -202h-180z" />
<glyph unicode="&#x4f6;" horiz-adv-x="1073" d="M86 0l309 1462h889l-37 -166h-698l-238 -1128h146l-111 -522h-178l76 354h-158z" />
<glyph unicode="&#x4f7;" horiz-adv-x="870" d="M63 0l226 1071h708l-32 -153h-529l-162 -766h125l-92 -439h-157l61 287h-148z" />
<glyph unicode="&#x4f8;" horiz-adv-x="1763" d="M86 0l309 1462h189l-115 -547h240q236 0 372 -98t136 -305q0 -248 -152 -380t-473 -132h-506zM309 160h303q213 0 315.5 79.5t102.5 270.5q0 119 -80 182.5t-233 63.5h-283zM844 1618l45 209h186l-45 -209h-186zM1212 1618l45 209h189l-45 -209h-189zM1339 0l310 1462 h188l-309 -1462h-189z" />
<glyph unicode="&#x4f9;" horiz-adv-x="1470" d="M63 0l228 1071h178l-82 -393h240q184 0 281.5 -78t97.5 -225q0 -180 -117 -277.5t-357 -97.5h-469zM272 147h279q141 0 205.5 52.5t64.5 171.5q0 74 -46 117.5t-144 43.5h-277zM637 1260l41 202h182l-43 -202h-180zM995 1260l41 202h182l-43 -202h-180zM1081 0l228 1071 h180l-227 -1071h-181z" />
<glyph unicode="&#x1e80;" horiz-adv-x="1906" d="M258 1462h209l51 -1202l569 1196h201l66 -1196l557 1202h207l-717 -1462h-197l-67 1223l-580 -1223h-190zM938 1860h213l187 -277h-170z" />
<glyph unicode="&#x1e81;" horiz-adv-x="1501" d="M158 1059h192l31 -844l422 838h178l61 -838l394 844h190l-532 -1059h-189l-59 844l-418 -844h-186zM625 1501h209l182 -291h-168z" />
<glyph unicode="&#x1e82;" horiz-adv-x="1906" d="M258 1462h209l51 -1202l569 1196h201l66 -1196l557 1202h207l-717 -1462h-197l-67 1223l-580 -1223h-190zM1061 1583l289 277h231l-336 -277h-184z" />
<glyph unicode="&#x1e83;" horiz-adv-x="1501" d="M158 1059h192l31 -844l422 838h178l61 -838l394 844h190l-532 -1059h-189l-59 844l-418 -844h-186zM777 1210l286 291h228l-328 -291h-186z" />
<glyph unicode="&#x1e84;" horiz-adv-x="1906" d="M258 1462h209l51 -1202l569 1196h201l66 -1196l557 1202h207l-717 -1462h-197l-67 1223l-580 -1223h-190zM928 1618l45 209h186l-45 -209h-186zM1296 1618l45 209h189l-45 -209h-189z" />
<glyph unicode="&#x1e85;" horiz-adv-x="1501" d="M158 1059h192l31 -844l422 838h178l61 -838l394 844h190l-532 -1059h-189l-59 844l-418 -844h-186zM645 1260l41 202h182l-43 -202h-180zM1003 1260l41 202h182l-43 -202h-180z" />
<glyph unicode="&#x1ef2;" horiz-adv-x="1255" d="M262 1462h203l250 -676l534 676h213l-680 -841l-131 -621h-188l129 621zM602 1860h213l187 -277h-170z" />
<glyph unicode="&#x1ef3;" horiz-adv-x="1071" d="M-35 -365l51 138q23 -8 48.5 -14.5t58.5 -6.5t57.5 8.5t46 27.5t42 50t48.5 76l70 115l-231 1030h196l162 -832l477 832h207l-709 -1159q-45 -72 -81.5 -127.5t-76.5 -93t-88 -57t-112 -19.5q-49 0 -90 8t-76 24zM412 1501h209l182 -291h-168z" />
<glyph unicode="&#x2000;" horiz-adv-x="965" />
<glyph unicode="&#x2001;" horiz-adv-x="1931" />
<glyph unicode="&#x2002;" horiz-adv-x="965" />
<glyph unicode="&#x2003;" horiz-adv-x="1931" />
<glyph unicode="&#x2004;" horiz-adv-x="643" />
<glyph unicode="&#x2005;" horiz-adv-x="482" />
<glyph unicode="&#x2006;" horiz-adv-x="321" />
<glyph unicode="&#x2007;" horiz-adv-x="321" />
<glyph unicode="&#x2008;" horiz-adv-x="241" />
<glyph unicode="&#x2009;" horiz-adv-x="386" />
<glyph unicode="&#x200a;" horiz-adv-x="107" />
<glyph unicode="&#x2010;" horiz-adv-x="798" d="M131 510l39 178h602l-39 -178h-602z" />
<glyph unicode="&#x2011;" horiz-adv-x="798" d="M131 510l39 178h602l-39 -178h-602z" />
<glyph unicode="&#x2012;" horiz-adv-x="798" d="M131 510l39 178h602l-39 -178h-602z" />
<glyph unicode="&#x2013;" horiz-adv-x="1024" d="M33 512l37 174h1024l-37 -174h-1024z" />
<glyph unicode="&#x2014;" horiz-adv-x="2048" d="M33 512l37 174h2048l-37 -174h-2048z" />
<glyph unicode="&#x2015;" horiz-adv-x="2048" d="M33 512l37 174h2048l-37 -174h-2048z" />
<glyph unicode="&#x2018;" horiz-adv-x="425" d="M236 1022l202 440h144l-152 -440h-194z" />
<glyph unicode="&#x2019;" horiz-adv-x="425" d="M219 1022l152 440h194l-203 -440h-143z" />
<glyph unicode="&#x201a;" horiz-adv-x="425" d="M-41 -199l154 443h192l-201 -443h-145z" />
<glyph unicode="&#x201c;" horiz-adv-x="753" d="M236 1022l202 440h144l-152 -440h-194zM564 1022l202 440h144l-152 -440h-194z" />
<glyph unicode="&#x201d;" horiz-adv-x="753" d="M219 1022l152 440h194l-203 -440h-143zM547 1022l152 440h194l-203 -440h-143z" />
<glyph unicode="&#x201e;" horiz-adv-x="753" d="M-41 -199l154 443h192l-201 -443h-145zM287 -199l154 443h192l-201 -443h-145z" />
<glyph unicode="&#x2020;" horiz-adv-x="956" d="M158 911l30 156h353l84 395h178l-84 -395h350l-33 -156h-350l-231 -1089h-179l234 1089h-352z" />
<glyph unicode="&#x2021;" horiz-adv-x="956" d="M12 233l33 158h352l113 529h-350l30 153h353l82 389h178l-82 -389h348l-31 -153h-350l-113 -529h349l-33 -158h-348l-88 -411h-179l89 411h-353z" />
<glyph unicode="&#x2022;" horiz-adv-x="739" d="M154 748q0 61 21.5 112t59 88t89 57.5t112.5 20.5q59 0 110.5 -20.5t89.5 -57.5t59.5 -88t21.5 -112q0 -129 -80 -206t-201 -77q-61 0 -112.5 20.5t-89 57.5t-59 89t-21.5 116z" />
<glyph unicode="&#x2026;" horiz-adv-x="1728" d="M53 0l49 240h205l-51 -240h-203zM688 0l49 240h205l-51 -240h-203zM1323 0l49 240h205l-51 -240h-203z" />
<glyph unicode="&#x202f;" horiz-adv-x="386" />
<glyph unicode="&#x2030;" horiz-adv-x="2705" d="M176 887q0 98 28.5 197.5t85 180.5t140 132t196.5 51q66 0 120.5 -22.5t94 -64.5t62 -100.5t22.5 -132.5q0 -98 -27.5 -197.5t-82.5 -180t-140 -132t-200 -51.5q-66 0 -120 22.5t-94 64.5t-62.5 100.5t-22.5 132.5zM342 893q0 -78 35.5 -129t113.5 -51q72 0 123 39t83 98 t47.5 130t15.5 136q0 84 -35 135.5t-113 51.5q-72 0 -123 -39t-84 -99.5t-48 -133.5t-15 -138zM413 0l1016 1415h184l-1015 -1415h-185zM1100 281q0 98 28.5 197.5t85 180.5t140 132t196.5 51q66 0 120.5 -22.5t94 -64.5t62 -100.5t22.5 -132.5q0 -98 -27.5 -197.5 t-82.5 -180t-140 -132t-200 -51.5q-66 0 -120 22.5t-94 64.5t-62.5 100.5t-22.5 132.5zM1266 287q0 -78 35.5 -129t113.5 -51q72 0 123 39t83 98t47.5 130t15.5 136q0 84 -35 135.5t-113 51.5q-72 0 -123 -39t-84 -99.5t-48 -133.5t-15 -138zM1925 281q0 98 28.5 197.5 t85 180.5t140 132t196.5 51q66 0 120.5 -22.5t94 -64.5t62 -100.5t22.5 -132.5q0 -98 -27.5 -197.5t-82.5 -180t-140 -132t-200 -51.5q-66 0 -120 22.5t-94 64.5t-62.5 100.5t-22.5 132.5zM2091 287q0 -78 35.5 -129t113.5 -51q72 0 123 39t83 98t47.5 130t15.5 136 q0 84 -35 135.5t-113 51.5q-72 0 -123 -39t-84 -99.5t-48 -133.5t-15 -138z" />
<glyph unicode="&#x2039;" horiz-adv-x="608" d="M127 526l375 455h184l-362 -463l157 -450h-176z" />
<glyph unicode="&#x203a;" horiz-adv-x="608" d="M-4 68l364 462l-157 451h172l180 -459l-373 -454h-186z" />
<glyph unicode="&#x2044;" horiz-adv-x="178" d="M-414 0l1016 1415h184l-1015 -1415h-185z" />
<glyph unicode="&#x205f;" horiz-adv-x="482" />
<glyph unicode="&#x2070;" horiz-adv-x="843" d="M166 887q0 98 28.5 197.5t85 180.5t140 132t196.5 51q66 0 120.5 -22.5t94 -64.5t62 -100.5t22.5 -132.5q0 -98 -27.5 -197.5t-82.5 -180t-140 -132t-200 -51.5q-66 0 -120 22.5t-94 64.5t-62.5 100.5t-22.5 132.5zM332 893q0 -78 35.5 -129t113.5 -51q72 0 123 39t83 98 t47.5 130t15.5 136q0 84 -35 135.5t-113 51.5q-72 0 -123 -39t-84 -99.5t-48 -133.5t-15 -138z" />
<glyph unicode="&#x2074;" horiz-adv-x="843" d="M180 791l21 96l520 530h139l-108 -506h104l-45 -120h-86l-39 -191h-133l39 191h-412zM360 911h258l70 330z" />
<glyph unicode="&#x2075;" horiz-adv-x="843" d="M227 815h133q6 -66 38 -94.5t110 -28.5q86 0 130 51.5t44 141.5q0 51 -27.5 86t-91.5 35q-51 0 -92 -13.5t-84 -48.5h-115l131 473h471l-24 -127h-354l-56 -209q68 41 158 41q111 0 170 -65.5t59 -163.5q0 -152 -87 -239t-236 -87q-119 0 -196 56.5t-81 191.5z" />
<glyph unicode="&#x2076;" horiz-adv-x="843" d="M219 848q0 86 21.5 190.5t70.5 195.5t130 152.5t200 61.5q111 0 170 -55.5t74 -159.5l-127 -19q-14 66 -44 91.5t-87 25.5q-78 0 -145.5 -65.5t-104.5 -218.5q37 35 89 55t105 20q123 0 184.5 -65.5t61.5 -165.5q0 -154 -90 -239t-235 -85q-70 0 -121.5 22.5t-85 61.5 t-50 90.5t-16.5 106.5zM360 823q0 -53 33 -94t103 -41q82 0 132 45t50 154q0 53 -31.5 89t-99.5 36q-37 0 -70 -12.5t-59.5 -36t-42 -58.5t-15.5 -82z" />
<glyph unicode="&#x2077;" horiz-adv-x="843" d="M274 1288l29 129h602l-22 -108q-135 -166 -245 -340t-202 -369h-157q55 111 101 196t93 162.5t102.5 155.5t129.5 174h-431z" />
<glyph unicode="&#x2078;" horiz-adv-x="843" d="M182 786q0 51 16.5 90t42 68t58.5 47.5t66 30.5q-78 57 -78 154q0 117 85 194.5t242 77.5q68 0 118 -17.5t82 -47t47.5 -67.5t15.5 -79q0 -88 -42 -140.5t-114 -80.5q45 -23 76.5 -68t31.5 -106q0 -143 -97 -208t-253 -65q-147 0 -222 62.5t-75 154.5zM332 801 q0 -47 35.5 -82t119.5 -35q86 0 139.5 35t53.5 123q0 41 -33 74.5t-117 33.5q-111 0 -154.5 -41t-43.5 -108zM426 1180q0 -41 28.5 -73t102.5 -32q76 0 127 35t51 117q0 41 -28.5 73.5t-98.5 32.5q-102 0 -142 -45t-40 -108z" />
<glyph unicode="&#x2079;" horiz-adv-x="843" d="M201 801h133q6 -66 43 -88.5t106 -22.5q37 0 72 12.5t62.5 44t48 85t28.5 137.5q-76 -78 -198 -78q-59 0 -104.5 19.5t-76 52t-47 76.5t-16.5 91q0 152 88 235t231 83q70 0 123.5 -24.5t88 -65.5t52 -96.5t17.5 -118.5q0 -100 -16.5 -202.5t-57.5 -185.5t-114.5 -135.5 t-190.5 -52.5q-72 0 -122 18.5t-82.5 49.5t-48 74t-19.5 92zM393 1135q0 -51 33 -89t94 -38q78 0 132.5 41t54.5 131q0 57 -33 102t-101 45q-84 0 -132 -47t-48 -145z" />
<glyph unicode="&#x2080;" horiz-adv-x="843" d="M74 289q0 98 28.5 197.5t85 180.5t140 132t196.5 51q66 0 120.5 -22.5t94 -64.5t62 -100.5t22.5 -132.5q0 -98 -27.5 -197.5t-82.5 -180t-140 -132t-200 -51.5q-66 0 -120 22.5t-94 64.5t-62.5 100.5t-22.5 132.5zM240 295q0 -78 35.5 -129t113.5 -51q72 0 123 39t83 98 t47.5 130t15.5 136q0 84 -35 135.5t-113 51.5q-72 0 -123 -39t-84 -99.5t-48 -133.5t-15 -138z" />
<glyph unicode="&#x2081;" horiz-adv-x="843" d="M225 688l271 131h176l-174 -817h-164l139 657l-194 -92z" />
<glyph unicode="&#x2082;" horiz-adv-x="843" d="M86 2l23 113q57 43 125.5 91t156.5 111q51 39 95.5 71t75 65.5t48 72.5t17.5 88q0 43 -32 77t-89 34q-74 0 -118 -29.5t-74 -115.5l-136 22q33 113 112 180.5t230 67.5q117 0 187.5 -64.5t70.5 -162.5q0 -63 -20.5 -113.5t-56 -93.5t-83.5 -82t-106 -80 q-41 -29 -88 -56.5t-92 -62.5h364l-47 -133h-563z" />
<glyph unicode="&#x2083;" horiz-adv-x="843" d="M107 246h139q4 -74 47 -113t115 -39q78 0 125 37t47 113q0 61 -38 88.5t-91 27.5h-99l27 127h98q156 0 156 140q0 45 -30.5 72.5t-94.5 27.5q-80 0 -123 -25.5t-72 -107.5l-135 22q31 109 108 171.5t228 62.5q129 0 194.5 -63.5t65.5 -149.5q0 -82 -35.5 -132t-107.5 -83 q51 -31 73.5 -77t22.5 -101q0 -129 -79 -202t-244 -73q-66 0 -120.5 19.5t-93 55.5t-61 87t-22.5 115z" />
<glyph unicode="&#x2084;" horiz-adv-x="843" d="M74 193l21 96l520 530h139l-108 -506h104l-45 -120h-86l-39 -191h-133l39 191h-412zM254 313h258l70 330z" />
<glyph unicode="&#x2085;" horiz-adv-x="843" d="M135 217h133q6 -66 38 -94.5t110 -28.5q86 0 130 51.5t44 141.5q0 51 -27.5 86t-91.5 35q-51 0 -92 -13.5t-84 -48.5h-115l131 473h471l-24 -127h-354l-56 -209q68 41 158 41q111 0 170 -65.5t59 -163.5q0 -152 -87 -239t-236 -87q-119 0 -196 56.5t-81 191.5z" />
<glyph unicode="&#x2086;" horiz-adv-x="843" d="M133 250q0 86 21.5 190.5t70.5 195.5t130 152.5t200 61.5q111 0 170 -55.5t74 -159.5l-127 -19q-14 66 -44 91.5t-87 25.5q-78 0 -145.5 -65.5t-104.5 -218.5q37 35 89 55t105 20q123 0 184.5 -65.5t61.5 -165.5q0 -154 -90 -239t-235 -85q-70 0 -121.5 22.5t-85 61.5 t-50 90.5t-16.5 106.5zM274 225q0 -53 33 -94t103 -41q82 0 132 45t50 154q0 53 -31.5 89t-99.5 36q-37 0 -70 -12.5t-59.5 -36t-42 -58.5t-15.5 -82z" />
<glyph unicode="&#x2087;" horiz-adv-x="843" d="M186 690l29 129h602l-22 -108q-135 -166 -245 -340t-202 -369h-157q55 111 101 196t93 162.5t102.5 155.5t129.5 174h-431z" />
<glyph unicode="&#x2088;" horiz-adv-x="843" d="M90 188q0 51 16.5 90t42 68t58.5 47.5t66 30.5q-78 57 -78 154q0 117 85 194.5t242 77.5q68 0 118 -17.5t82 -47t47.5 -67.5t15.5 -79q0 -88 -42 -140.5t-114 -80.5q45 -23 76.5 -68t31.5 -106q0 -143 -97 -208t-253 -65q-147 0 -222 62.5t-75 154.5zM240 203 q0 -47 35.5 -82t119.5 -35q86 0 139.5 35t53.5 123q0 41 -33 74.5t-117 33.5q-111 0 -154.5 -41t-43.5 -108zM334 582q0 -41 28.5 -73t102.5 -32q76 0 127 35t51 117q0 41 -28.5 73.5t-98.5 32.5q-102 0 -142 -45t-40 -108z" />
<glyph unicode="&#x2089;" horiz-adv-x="843" d="M115 203h133q6 -66 43 -88.5t106 -22.5q37 0 72 12.5t62.5 44t48 85t28.5 137.5q-76 -78 -198 -78q-59 0 -104.5 19.5t-76 52t-47 76.5t-16.5 91q0 152 88 235t231 83q70 0 123.5 -24.5t88 -65.5t52 -96.5t17.5 -118.5q0 -100 -16.5 -202.5t-57.5 -185.5t-114.5 -135.5 t-190.5 -52.5q-72 0 -122 18.5t-82.5 49.5t-48 74t-19.5 92zM307 537q0 -51 33 -89t94 -38q78 0 132.5 41t54.5 131q0 57 -33 102t-101 45q-84 0 -132 -47t-48 -145z" />
<glyph unicode="&#x20ac;" d="M76 477l49 133h111q6 98 24 193h-125l47 131h109q35 109 88 203t127 164.5t167 111.5t206 41q104 0 177.5 -26.5t124 -78t78 -123t39.5 -159.5l-168 -29q-10 68 -28.5 116t-48 81t-75.5 48t-112 15q-72 0 -132 -28.5t-108 -77.5t-85 -115.5t-64 -142.5h465l-49 -131h-451 q-20 -100 -22 -193h444l-49 -133h-395q12 -188 90 -273t207 -85q78 0 130 20.5t87 59.5t55.5 91t36.5 118h172q-18 -104 -55 -187.5t-96.5 -139.5t-143.5 -87t-196 -31q-117 0 -204 39t-145.5 108.5t-89 163t-37.5 203.5h-155z" />
<glyph unicode="&#x20ae;" d="M223 295l314 174l45 213l-252 -141l-43 110l327 183l88 419h-428l35 162h1037l-35 -162h-426l-66 -305l238 133l45 -112l-316 -176l-45 -211l254 141l45 -111l-331 -184l-88 -428h-183l66 313l-236 -129z" />
<glyph unicode="&#x20b4;" d="M102 479l27 115h117q39 49 107.5 85t150.5 64.5t167 50t154 42.5h-647l25 114h778q16 25 25.5 59.5t9.5 67.5q0 104 -58.5 161.5t-175.5 57.5q-111 0 -181.5 -46t-113.5 -160l-163 38q47 160 165.5 242t307.5 82q80 0 150.5 -20.5t123.5 -64.5t84 -111.5t31 -161.5 q0 -37 -8.5 -76t-20.5 -68h113l-27 -114h-153q-25 -35 -70 -61.5t-103.5 -47t-122 -38t-123 -33t-109.5 -31t-79 -31.5h713l-27 -115h-794q-18 -27 -25.5 -58.5t-7.5 -66.5q0 -113 66.5 -174t201.5 -61q121 0 196 49t107 172h174q-20 -102 -64 -174t-108.5 -117 t-146.5 -65.5t-178 -20.5q-92 0 -169 23.5t-133.5 70.5t-88 116t-31.5 159q0 80 25 147h-91z" />
<glyph unicode="&#x2122;" horiz-adv-x="1855" d="M242 1339l26 123h682l-26 -123h-271l-147 -696h-139l147 696h-272zM893 643l174 819h168l125 -659l407 659h175l-175 -819h-125l132 617l-388 -617h-114l-121 614l-133 -614h-125z" />
<glyph unicode="&#x2153;" horiz-adv-x="1865" d="M229 1286l271 131h176l-174 -817h-164l139 657l-194 -92zM299 0l1016 1415h184l-1015 -1415h-185zM1147 246h139q4 -74 47 -113t115 -39q78 0 125 37t47 113q0 61 -38 88.5t-91 27.5h-99l27 127h98q156 0 156 140q0 45 -30.5 72.5t-94.5 27.5q-80 0 -123 -25.5 t-72 -107.5l-135 22q31 109 108 171.5t228 62.5q129 0 194.5 -63.5t65.5 -149.5q0 -82 -35.5 -132t-107.5 -83q51 -31 73.5 -77t22.5 -101q0 -129 -79 -202t-244 -73q-66 0 -120.5 19.5t-93 55.5t-61 87t-22.5 115z" />
<glyph unicode="&#x2154;" horiz-adv-x="1865" d="M162 600l23 113q57 43 125.5 91t156.5 111q51 39 95.5 71t75 65.5t48 72.5t17.5 88q0 43 -32 77t-89 34q-74 0 -118 -29.5t-74 -115.5l-136 22q33 113 112 180.5t230 67.5q117 0 187.5 -64.5t70.5 -162.5q0 -63 -20.5 -113.5t-56 -93.5t-83.5 -82t-106 -80 q-41 -29 -88 -56.5t-92 -62.5h364l-47 -133h-563zM407 0l1016 1415h184l-1015 -1415h-185zM1147 246h139q4 -74 47 -113t115 -39q78 0 125 37t47 113q0 61 -38 88.5t-91 27.5h-99l27 127h98q156 0 156 140q0 45 -30.5 72.5t-94.5 27.5q-80 0 -123 -25.5t-72 -107.5l-135 22 q31 109 108 171.5t228 62.5q129 0 194.5 -63.5t65.5 -149.5q0 -82 -35.5 -132t-107.5 -83q51 -31 73.5 -77t22.5 -101q0 -129 -79 -202t-244 -73q-66 0 -120.5 19.5t-93 55.5t-61 87t-22.5 115z" />
<glyph unicode="&#x2155;" horiz-adv-x="1865" d="M229 1286l271 131h176l-174 -817h-164l139 657l-194 -92zM315 0l1016 1415h184l-1015 -1415h-185zM1175 217h133q6 -66 38 -94.5t110 -28.5q86 0 130 51.5t44 141.5q0 51 -27.5 86t-91.5 35q-51 0 -92 -13.5t-84 -48.5h-115l131 473h471l-24 -127h-354l-56 -209 q68 41 158 41q111 0 170 -65.5t59 -163.5q0 -152 -87 -239t-236 -87q-119 0 -196 56.5t-81 191.5z" />
<glyph unicode="&#x2156;" horiz-adv-x="1865" d="M162 600l23 113q57 43 125.5 91t156.5 111q51 39 95.5 71t75 65.5t48 72.5t17.5 88q0 43 -32 77t-89 34q-74 0 -118 -29.5t-74 -115.5l-136 22q33 113 112 180.5t230 67.5q117 0 187.5 -64.5t70.5 -162.5q0 -63 -20.5 -113.5t-56 -93.5t-83.5 -82t-106 -80 q-41 -29 -88 -56.5t-92 -62.5h364l-47 -133h-563zM413 0l1016 1415h184l-1015 -1415h-185zM1175 217h133q6 -66 38 -94.5t110 -28.5q86 0 130 51.5t44 141.5q0 51 -27.5 86t-91.5 35q-51 0 -92 -13.5t-84 -48.5h-115l131 473h471l-24 -127h-354l-56 -209q68 41 158 41 q111 0 170 -65.5t59 -163.5q0 -152 -87 -239t-236 -87q-119 0 -196 56.5t-81 191.5z" />
<glyph unicode="&#x2157;" horiz-adv-x="1865" d="M193 844h139q4 -74 47 -113t115 -39q78 0 125 37t47 113q0 61 -38 88.5t-91 27.5h-99l27 127h98q156 0 156 140q0 45 -30.5 72.5t-94.5 27.5q-80 0 -123 -25.5t-72 -107.5l-135 22q31 109 108 171.5t228 62.5q129 0 194.5 -63.5t65.5 -149.5q0 -82 -35.5 -132t-107.5 -83 q51 -31 73.5 -77t22.5 -101q0 -129 -79 -202t-244 -73q-66 0 -120.5 19.5t-93 55.5t-61 87t-22.5 115zM420 0l1016 1415h184l-1015 -1415h-185zM1175 217h133q6 -66 38 -94.5t110 -28.5q86 0 130 51.5t44 141.5q0 51 -27.5 86t-91.5 35q-51 0 -92 -13.5t-84 -48.5h-115 l131 473h471l-24 -127h-354l-56 -209q68 41 158 41q111 0 170 -65.5t59 -163.5q0 -152 -87 -239t-236 -87q-119 0 -196 56.5t-81 191.5z" />
<glyph unicode="&#x2158;" horiz-adv-x="1865" d="M162 791l21 96l520 530h139l-108 -506h104l-45 -120h-86l-39 -191h-133l39 191h-412zM342 911h258l70 330zM405 0l1016 1415h184l-1015 -1415h-185zM1175 217h133q6 -66 38 -94.5t110 -28.5q86 0 130 51.5t44 141.5q0 51 -27.5 86t-91.5 35q-51 0 -92 -13.5t-84 -48.5 h-115l131 473h471l-24 -127h-354l-56 -209q68 41 158 41q111 0 170 -65.5t59 -163.5q0 -152 -87 -239t-236 -87q-119 0 -196 56.5t-81 191.5z" />
<glyph unicode="&#x2159;" horiz-adv-x="1865" d="M229 1286l271 131h176l-174 -817h-164l139 657l-194 -92zM297 0l1016 1415h184l-1015 -1415h-185zM1153 250q0 86 21.5 190.5t70.5 195.5t130 152.5t200 61.5q111 0 170 -55.5t74 -159.5l-127 -19q-14 66 -44 91.5t-87 25.5q-78 0 -145.5 -65.5t-104.5 -218.5 q37 35 89 55t105 20q123 0 184.5 -65.5t61.5 -165.5q0 -154 -90 -239t-235 -85q-70 0 -121.5 22.5t-85 61.5t-50 90.5t-16.5 106.5zM1294 225q0 -53 33 -94t103 -41q82 0 132 45t50 154q0 53 -31.5 89t-99.5 36q-37 0 -70 -12.5t-59.5 -36t-42 -58.5t-15.5 -82z" />
<glyph unicode="&#x215a;" horiz-adv-x="1865" d="M200 815h133q6 -66 38 -94.5t110 -28.5q86 0 130 51.5t44 141.5q0 51 -27.5 86t-91.5 35q-51 0 -92 -13.5t-84 -48.5h-115l131 473h471l-24 -127h-354l-56 -209q68 41 158 41q111 0 170 -65.5t59 -163.5q0 -152 -87 -239t-236 -87q-119 0 -196 56.5t-81 191.5zM407 0 l1016 1415h184l-1015 -1415h-185zM1153 250q0 86 21.5 190.5t70.5 195.5t130 152.5t200 61.5q111 0 170 -55.5t74 -159.5l-127 -19q-14 66 -44 91.5t-87 25.5q-78 0 -145.5 -65.5t-104.5 -218.5q37 35 89 55t105 20q123 0 184.5 -65.5t61.5 -165.5q0 -154 -90 -239t-235 -85 q-70 0 -121.5 22.5t-85 61.5t-50 90.5t-16.5 106.5zM1294 225q0 -53 33 -94t103 -41q82 0 132 45t50 154q0 53 -31.5 89t-99.5 36q-37 0 -70 -12.5t-59.5 -36t-42 -58.5t-15.5 -82z" />
<glyph unicode="&#x215b;" horiz-adv-x="1865" d="M229 1286l271 131h176l-174 -817h-164l139 657l-194 -92zM276 0l1016 1415h184l-1015 -1415h-185zM1116 188q0 51 16.5 90t42 68t58.5 47.5t66 30.5q-78 57 -78 154q0 117 85 194.5t242 77.5q68 0 118 -17.5t82 -47t47.5 -67.5t15.5 -79q0 -88 -42 -140.5t-114 -80.5 q45 -23 76.5 -68t31.5 -106q0 -143 -97 -208t-253 -65q-147 0 -222 62.5t-75 154.5zM1266 203q0 -47 35.5 -82t119.5 -35q86 0 139.5 35t53.5 123q0 41 -33 74.5t-117 33.5q-111 0 -154.5 -41t-43.5 -108zM1360 582q0 -41 28.5 -73t102.5 -32q76 0 127 35t51 117 q0 41 -28.5 73.5t-98.5 32.5q-102 0 -142 -45t-40 -108z" />
</font>
</defs>
</svg>
